<?xml version="1.0" encoding="iso-8859-1"?>
<!-- Generator: Adobe Illustrator 19.0.0, SVG Export Plug-In . SVG Version: 6.00 Build 0)  -->
<svg version="1.1" id="Capa_1" xmlns="http://www.w3.org/2000/svg" xmlns:xlink="http://www.w3.org/1999/xlink" x="0px" y="0px"
	 viewBox="0 0 480.218 480.218" style="enable-background:new 0 0 480.218 480.218;" xml:space="preserve">
<g>
	
		<linearGradient id="SVGID_1_" gradientUnits="userSpaceOnUse" x1="-26.766" y1="560.078" x2="-26.766" y2="618.97" gradientTransform="matrix(8 0 0 -8 454.2371 4942.9624)">
		<stop  offset="0" style="stop-color:#006DF0"/>
		<stop  offset="1" style="stop-color:#00E7F0"/>
	</linearGradient>
	<path style="fill:url(#SVGID_1_);" d="M240.109,336.218c61.856,0,112-50.144,112-112s-50.144-112-112-112s-112,50.144-112,112
		C128.175,286.046,178.281,336.152,240.109,336.218z M240.109,128.218c53.019,0,96,42.981,96,96s-42.981,96-96,96s-96-42.981-96-96
		C144.166,171.222,187.113,128.275,240.109,128.218z"/>
	
		<linearGradient id="SVGID_2_" gradientUnits="userSpaceOnUse" x1="-26.766" y1="560.078" x2="-26.766" y2="618.97" gradientTransform="matrix(8 0 0 -8 454.2371 4942.9624)">
		<stop  offset="0" style="stop-color:#006DF0"/>
		<stop  offset="1" style="stop-color:#00E7F0"/>
	</linearGradient>
	<path style="fill:url(#SVGID_2_);" d="M240.109,304.218c44.183,0,80-35.817,80-80s-35.817-80-80-80s-80,35.817-80,80
		C160.157,268.381,195.946,304.17,240.109,304.218z M240.109,160.218c35.346,0,64,28.654,64,64s-28.654,64-64,64s-64-28.654-64-64
		C176.149,188.888,204.779,160.258,240.109,160.218z"/>
</g>
<linearGradient id="SVGID_3_" gradientUnits="userSpaceOnUse" x1="-24.266" y1="560.078" x2="-24.266" y2="618.97" gradientTransform="matrix(8 0 0 -8 454.2371 4942.9624)">
	<stop  offset="0" style="stop-color:#006DF0"/>
	<stop  offset="1" style="stop-color:#00E7F0"/>
</linearGradient>
<path style="fill:url(#SVGID_3_);" d="M240.109,192.218c17.673,0,32,14.327,32,32c0,4.418,3.582,8,8,8s8-3.582,8-8
	c-0.026-26.499-21.501-47.974-48-48c-4.418,0-8,3.582-8,8S235.691,192.218,240.109,192.218z"/>
<g>
	
		<linearGradient id="SVGID_4_" gradientUnits="userSpaceOnUse" x1="-26.766" y1="560.078" x2="-26.766" y2="618.97" gradientTransform="matrix(8 0 0 -8 454.2371 4942.9624)">
		<stop  offset="0" style="stop-color:#006DF0"/>
		<stop  offset="1" style="stop-color:#00E7F0"/>
	</linearGradient>
	<path style="fill:url(#SVGID_4_);" d="M477.765,466.562l-81.736-81.736c88.822-86.112,91.018-227.924,4.906-316.746
		S173.011-22.938,84.189,63.174S-6.829,291.099,79.283,379.92c1.61,1.661,3.245,3.296,4.906,4.906L2.453,466.562
		c-3.124,3.125-3.123,8.19,0.002,11.314c1.5,1.499,3.534,2.342,5.654,2.342h464c4.418-0.001,7.999-3.583,7.998-8.002
		C480.107,470.096,479.264,468.062,477.765,466.562L477.765,466.562z M32.109,224.218c0-114.875,93.125-208,208-208
		s208,93.125,208,208s-93.125,208-208,208C125.287,432.09,32.237,339.04,32.109,224.218z M27.421,464.218l68.64-68.64
		c83.207,70.188,204.889,70.188,288.096,0l68.64,68.64H27.421z"/>
	
		<linearGradient id="SVGID_5_" gradientUnits="userSpaceOnUse" x1="-26.766" y1="560.078" x2="-26.766" y2="618.97" gradientTransform="matrix(8 0 0 -8 454.2371 4942.9624)">
		<stop  offset="0" style="stop-color:#006DF0"/>
		<stop  offset="1" style="stop-color:#00E7F0"/>
	</linearGradient>
	<circle style="fill:url(#SVGID_5_);" cx="240.109" cy="64.218" r="16"/>
</g>
<g>
	
		<linearGradient id="SVGID_6_" gradientUnits="userSpaceOnUse" x1="-46.766" y1="560.078" x2="-46.766" y2="618.97" gradientTransform="matrix(8 0 0 -8 454.2371 4942.9624)">
		<stop  offset="0" style="stop-color:#006DF0"/>
		<stop  offset="1" style="stop-color:#00E7F0"/>
	</linearGradient>
	<circle style="fill:url(#SVGID_6_);" cx="80.109" cy="224.218" r="16"/>
	
		<linearGradient id="SVGID_7_" gradientUnits="userSpaceOnUse" x1="-6.766" y1="560.078" x2="-6.766" y2="618.97" gradientTransform="matrix(8 0 0 -8 454.2371 4942.9624)">
		<stop  offset="0" style="stop-color:#006DF0"/>
		<stop  offset="1" style="stop-color:#00E7F0"/>
	</linearGradient>
	<circle style="fill:url(#SVGID_7_);" cx="400.109" cy="224.218" r="16"/>
</g>
<linearGradient id="SVGID_8_" gradientUnits="userSpaceOnUse" x1="-26.766" y1="560.078" x2="-26.766" y2="618.97" gradientTransform="matrix(8 0 0 -8 454.2371 4942.9624)">
	<stop  offset="0" style="stop-color:#006DF0"/>
	<stop  offset="1" style="stop-color:#00E7F0"/>
</linearGradient>
<path style="fill:url(#SVGID_8_);" d="M240.109,352.218c-4.418,0-8,3.582-8,8v32c0,4.418,3.582,8,8,8s8-3.582,8-8v-32
	C248.109,355.8,244.527,352.218,240.109,352.218z"/>
<g>
	
		<linearGradient id="SVGID_9_" gradientUnits="userSpaceOnUse" x1="-31.6825" y1="560.078" x2="-31.6825" y2="618.97" gradientTransform="matrix(8 0 0 -8 454.2371 4942.9624)">
		<stop  offset="0" style="stop-color:#006DF0"/>
		<stop  offset="1" style="stop-color:#00E7F0"/>
	</linearGradient>
	<path style="fill:url(#SVGID_9_);" d="M206.981,347.858c-4.267-1.145-8.655,1.387-9.8,5.654c0,0.001,0,0.001,0,0.002l-8.272,30.904
		c-1.145,4.267,1.387,8.655,5.654,9.799c0.001,0,0.001,0,0.002,0c0.676,0.18,1.372,0.271,2.072,0.272
		c3.621,0,6.79-2.431,7.728-5.928l8.28-30.904c1.144-4.268-1.389-8.654-5.657-9.798
		C206.986,347.859,206.983,347.859,206.981,347.858z"/>
	
		<linearGradient id="SVGID_10_" gradientUnits="userSpaceOnUse" x1="-36.2675" y1="560.078" x2="-36.2675" y2="618.97" gradientTransform="matrix(8 0 0 -8 454.2371 4942.9624)">
		<stop  offset="0" style="stop-color:#006DF0"/>
		<stop  offset="1" style="stop-color:#00E7F0"/>
	</linearGradient>
	<path style="fill:url(#SVGID_10_);" d="M176.109,335.066c-3.827-2.207-8.72-0.894-10.927,2.934c0,0.001-0.001,0.001-0.001,0.002
		l-16,27.712c-2.234,3.812-0.956,8.713,2.856,10.947c3.812,2.234,8.713,0.956,10.947-2.856c0.018-0.03,0.035-0.061,0.053-0.092
		l16-27.712c2.212-3.824,0.906-8.718-2.919-10.931C176.115,335.07,176.112,335.068,176.109,335.066L176.109,335.066z"/>
	
		<linearGradient id="SVGID_11_" gradientUnits="userSpaceOnUse" x1="-40.2008" y1="560.078" x2="-40.2008" y2="618.97" gradientTransform="matrix(8 0 0 -8 454.2371 4942.9624)">
		<stop  offset="0" style="stop-color:#006DF0"/>
		<stop  offset="1" style="stop-color:#00E7F0"/>
	</linearGradient>
	<path style="fill:url(#SVGID_11_);" d="M121.317,351.018c2.122,0,4.156-0.844,5.656-2.344l22.624-22.632
		c3.126-3.124,3.128-8.19,0.004-11.316c-3.124-3.126-8.19-3.128-11.316-0.004l-22.624,22.64c-3.124,3.125-3.123,8.19,0.002,11.314
		C117.162,350.175,119.196,351.018,121.317,351.018L121.317,351.018z"/>
	
		<linearGradient id="SVGID_12_" gradientUnits="userSpaceOnUse" x1="-21.8485" y1="560.078" x2="-21.8485" y2="618.97" gradientTransform="matrix(8 0 0 -8 454.2371 4942.9624)">
		<stop  offset="0" style="stop-color:#006DF0"/>
		<stop  offset="1" style="stop-color:#00E7F0"/>
	</linearGradient>
	<path style="fill:url(#SVGID_12_);" d="M283.037,353.514c-1.144-4.268-5.532-6.8-9.8-5.656c-4.268,1.144-6.8,5.532-5.656,9.8
		l8.28,30.904c0.938,3.497,4.107,5.928,7.728,5.928c0.699-0.001,1.396-0.092,2.072-0.272c4.268-1.144,6.8-5.53,5.656-9.798
		c0-0.001,0-0.001,0-0.002L283.037,353.514z"/>
	
		<linearGradient id="SVGID_13_" gradientUnits="userSpaceOnUse" x1="-17.2694" y1="560.078" x2="-17.2694" y2="618.97" gradientTransform="matrix(8 0 0 -8 454.2371 4942.9624)">
		<stop  offset="0" style="stop-color:#006DF0"/>
		<stop  offset="1" style="stop-color:#00E7F0"/>
	</linearGradient>
	<path style="fill:url(#SVGID_13_);" d="M315.037,338.002c-2.183-3.841-7.067-5.185-10.908-3.002
		c-3.841,2.183-5.185,7.067-3.002,10.908c0.018,0.031,0.036,0.062,0.054,0.093l16,27.712c2.235,3.811,7.136,5.089,10.948,2.854
		c3.775-2.214,5.071-7.05,2.908-10.854L315.037,338.002z"/>
	
		<linearGradient id="SVGID_14_" gradientUnits="userSpaceOnUse" x1="-13.325" y1="560.078" x2="-13.325" y2="618.97" gradientTransform="matrix(8 0 0 -8 454.2371 4942.9624)">
		<stop  offset="0" style="stop-color:#006DF0"/>
		<stop  offset="1" style="stop-color:#00E7F0"/>
	</linearGradient>
	<path style="fill:url(#SVGID_14_);" d="M330.621,314.722c-3.126,3.122-3.129,8.188-0.006,11.314
		c0.002,0.002,0.004,0.004,0.006,0.006l22.624,22.632c3.07,3.178,8.134,3.266,11.312,0.196c3.178-3.07,3.266-8.134,0.196-11.312
		c-0.064-0.066-0.129-0.132-0.196-0.196l-22.624-22.64C338.809,311.599,333.745,311.599,330.621,314.722L330.621,314.722z"/>
</g>
<g>
</g>
<g>
</g>
<g>
</g>
<g>
</g>
<g>
</g>
<g>
</g>
<g>
</g>
<g>
</g>
<g>
</g>
<g>
</g>
<g>
</g>
<g>
</g>
<g>
</g>
<g>
</g>
<g>
</g>
</svg>
