<?xml version="1.0" encoding="iso-8859-1"?>
<!-- Generator: Adobe Illustrator 19.0.0, SVG Export Plug-In . SVG Version: 6.00 Build 0)  -->
<svg version="1.1" id="Capa_1" xmlns="http://www.w3.org/2000/svg" xmlns:xlink="http://www.w3.org/1999/xlink" x="0px" y="0px"
	 viewBox="0 0 480 480" style="enable-background:new 0 0 480 480;" xml:space="preserve">
<linearGradient id="SVGID_1_" gradientUnits="userSpaceOnUse" x1="-48.875" y1="559.8552" x2="-48.875" y2="616.7852" gradientTransform="matrix(8 0 0 -8 455.0002 4935.1514)">
	<stop  offset="0" style="stop-color:#006DF0"/>
	<stop  offset="1" style="stop-color:#00E7F0"/>
</linearGradient>
<path style="fill:url(#SVGID_1_);" d="M64,447.35c-17.673,0-32-14.327-32-32s14.327-32,32-32s32,14.327,32,32
	S81.673,447.35,64,447.35z M64,399.35c-8.837,0-16,7.163-16,16s7.163,16,16,16s16-7.163,16-16S72.837,399.35,64,399.35z"/>
<g>
	
		<linearGradient id="SVGID_2_" gradientUnits="userSpaceOnUse" x1="-35.875" y1="559.8552" x2="-35.875" y2="616.7852" gradientTransform="matrix(8 0 0 -8 455.0002 4935.1514)">
		<stop  offset="0" style="stop-color:#006DF0"/>
		<stop  offset="1" style="stop-color:#00E7F0"/>
	</linearGradient>
	<path style="fill:url(#SVGID_2_);" d="M216,423.35h-96c-4.418,0-8-3.582-8-8s3.582-8,8-8h96c4.418,0,8,3.582,8,8
		S220.418,423.35,216,423.35z"/>
	
		<linearGradient id="SVGID_3_" gradientUnits="userSpaceOnUse" x1="-23.875" y1="559.8552" x2="-23.875" y2="616.7852" gradientTransform="matrix(8 0 0 -8 455.0002 4935.1514)">
		<stop  offset="0" style="stop-color:#006DF0"/>
		<stop  offset="1" style="stop-color:#00E7F0"/>
	</linearGradient>
	<path style="fill:url(#SVGID_3_);" d="M256,399.35h16v32h-16V399.35z"/>
	
		<linearGradient id="SVGID_4_" gradientUnits="userSpaceOnUse" x1="-19.875" y1="559.8552" x2="-19.875" y2="616.7852" gradientTransform="matrix(8 0 0 -8 455.0002 4935.1514)">
		<stop  offset="0" style="stop-color:#006DF0"/>
		<stop  offset="1" style="stop-color:#00E7F0"/>
	</linearGradient>
	<path style="fill:url(#SVGID_4_);" d="M288,399.35h16v32h-16V399.35z"/>
	
		<linearGradient id="SVGID_5_" gradientUnits="userSpaceOnUse" x1="-15.875" y1="559.8552" x2="-15.875" y2="616.7852" gradientTransform="matrix(8 0 0 -8 455.0002 4935.1514)">
		<stop  offset="0" style="stop-color:#006DF0"/>
		<stop  offset="1" style="stop-color:#00E7F0"/>
	</linearGradient>
	<path style="fill:url(#SVGID_5_);" d="M320,399.35h16v32h-16V399.35z"/>
	
		<linearGradient id="SVGID_6_" gradientUnits="userSpaceOnUse" x1="-11.875" y1="559.8552" x2="-11.875" y2="616.7852" gradientTransform="matrix(8 0 0 -8 455.0002 4935.1514)">
		<stop  offset="0" style="stop-color:#006DF0"/>
		<stop  offset="1" style="stop-color:#00E7F0"/>
	</linearGradient>
	<path style="fill:url(#SVGID_6_);" d="M352,399.35h16v32h-16V399.35z"/>
	
		<linearGradient id="SVGID_7_" gradientUnits="userSpaceOnUse" x1="-7.875" y1="559.8552" x2="-7.875" y2="616.7852" gradientTransform="matrix(8 0 0 -8 455.0002 4935.1514)">
		<stop  offset="0" style="stop-color:#006DF0"/>
		<stop  offset="1" style="stop-color:#00E7F0"/>
	</linearGradient>
	<path style="fill:url(#SVGID_7_);" d="M384,399.35h16v32h-16V399.35z"/>
	
		<linearGradient id="SVGID_8_" gradientUnits="userSpaceOnUse" x1="-3.875" y1="559.8552" x2="-3.875" y2="616.7852" gradientTransform="matrix(8 0 0 -8 455.0002 4935.1514)">
		<stop  offset="0" style="stop-color:#006DF0"/>
		<stop  offset="1" style="stop-color:#00E7F0"/>
	</linearGradient>
	<path style="fill:url(#SVGID_8_);" d="M416,399.35h16v32h-16V399.35z"/>
	
		<linearGradient id="SVGID_9_" gradientUnits="userSpaceOnUse" x1="-26.875" y1="559.8552" x2="-26.875" y2="616.7852" gradientTransform="matrix(8 0 0 -8 455.0002 4935.1514)">
		<stop  offset="0" style="stop-color:#006DF0"/>
		<stop  offset="1" style="stop-color:#00E7F0"/>
	</linearGradient>
	<path style="fill:url(#SVGID_9_);" d="M479.808,358.398c0-0.264,0.064-0.52,0-0.8l-26.4-118.976
		c-4.034-18.332-20.318-31.36-39.088-31.272h-40.144L472.8,36.558c6.625-11.455,2.709-26.112-8.746-32.737
		c-0.037-0.021-0.074-0.042-0.11-0.063c-11.501-6.369-25.98-2.481-32.744,8.792l-112.464,194.8H161.264L48.8,12.542
		C42.059,1.202,27.504-2.692,16,3.766C4.515,10.384,0.569,25.058,7.187,36.543c0.004,0.008,0.009,0.015,0.013,0.023l98.624,170.784
		H65.68c-18.782-0.085-35.072,12.958-39.096,31.304l-26.4,118.96c-0.056,0.264,0,0.52,0,0.8c-0.081,0.308-0.142,0.621-0.184,0.936
		v80c0.026,22.08,17.92,39.974,40,40h400c22.08-0.026,39.974-17.92,40-40v-80C479.956,359.029,479.892,358.711,479.808,358.398
		L479.808,358.398z M445.08,20.55c2.256-3.762,7.096-5.045,10.92-2.896c1.825,1.039,3.154,2.769,3.688,4.8
		c0.561,2.054,0.273,4.248-0.8,6.088L355.704,207.35h-18.488L445.08,20.55z M21.08,28.55c-1.073-1.84-1.361-4.034-0.8-6.088
		c0.517-2.021,1.822-3.749,3.624-4.8c3.8-2.254,8.708-1.001,10.962,2.799c0.013,0.022,0.025,0.043,0.038,0.065l107.88,186.824
		h-18.488L21.08,28.55z M42.2,242.15c2.417-11.018,12.201-18.851,23.48-18.8h348.64c11.27-0.053,21.048,7.769,23.472,18.776
		l24.24,109.224H17.968L42.2,242.15z M464,439.35c0,13.255-10.745,24-24,24H40c-13.255,0-24-10.745-24-24v-72h448V439.35z"/>
	
		<linearGradient id="SVGID_10_" gradientUnits="userSpaceOnUse" x1="-30.875" y1="559.8552" x2="-30.875" y2="616.7852" gradientTransform="matrix(8 0 0 -8 455.0002 4935.1514)">
		<stop  offset="0" style="stop-color:#006DF0"/>
		<stop  offset="1" style="stop-color:#00E7F0"/>
	</linearGradient>
	<path style="fill:url(#SVGID_10_);" d="M352,239.35H64c-4.418,0-8,3.582-8,8s3.582,8,8,8h288c4.418,0,8-3.582,8-8
		S356.418,239.35,352,239.35z"/>
	
		<linearGradient id="SVGID_11_" gradientUnits="userSpaceOnUse" x1="-6.875" y1="559.8552" x2="-6.875" y2="616.7852" gradientTransform="matrix(8 0 0 -8 455.0002 4935.1514)">
		<stop  offset="0" style="stop-color:#006DF0"/>
		<stop  offset="1" style="stop-color:#00E7F0"/>
	</linearGradient>
	<path style="fill:url(#SVGID_11_);" d="M416,239.35h-32c-4.418,0-8,3.582-8,8s3.582,8,8,8h32c4.418,0,8-3.582,8-8
		S420.418,239.35,416,239.35z"/>
</g>
<g>
</g>
<g>
</g>
<g>
</g>
<g>
</g>
<g>
</g>
<g>
</g>
<g>
</g>
<g>
</g>
<g>
</g>
<g>
</g>
<g>
</g>
<g>
</g>
<g>
</g>
<g>
</g>
<g>
</g>
</svg>
