<?xml version="1.0" encoding="iso-8859-1"?>
<!-- Generator: Adobe Illustrator 19.0.0, SVG Export Plug-In . SVG Version: 6.00 Build 0)  -->
<svg version="1.1" id="Capa_1" xmlns="http://www.w3.org/2000/svg" xmlns:xlink="http://www.w3.org/1999/xlink" x="0px" y="0px"
	 viewBox="0 0 480.002 480.002" style="enable-background:new 0 0 480.002 480.002;" xml:space="preserve">
<g>
	
		<linearGradient id="SVGID_1_" gradientUnits="userSpaceOnUse" x1="-26.8741" y1="558.0969" x2="-26.8741" y2="617.8529" gradientTransform="matrix(8 0 0 -8 454.9934 4941.0171)">
		<stop  offset="0" style="stop-color:#006DF0"/>
		<stop  offset="1" style="stop-color:#00E7F0"/>
	</linearGradient>
	<path style="fill:url(#SVGID_1_);" d="M475.865,129.002l-232-128c-2.403-1.336-5.325-1.336-7.728,0l-232,128
		c-2.55,1.407-4.134,4.088-4.136,7v32c0.003,4.418,3.587,7.998,8.005,7.995c1.35-0.001,2.677-0.343,3.859-0.995l28.136-15.52v312.52
		c0,4.418,3.582,8,8,8h384c4.418,0,8-3.582,8-8v-312.52l28.136,15.52c3.869,2.134,8.735,0.728,10.869-3.141
		c0.652-1.182,0.994-2.509,0.995-3.859v-32C479.999,133.09,478.415,130.409,475.865,129.002L475.865,129.002z M424.001,464.002h-368
		V150.658l184-101.52l184,101.52V464.002z M464.001,154.45L243.865,33.002c-2.403-1.336-5.325-1.336-7.728,0L16.001,154.45v-13.728
		l224-123.584l224,123.584V154.45z"/>
	
		<linearGradient id="SVGID_2_" gradientUnits="userSpaceOnUse" x1="-26.8741" y1="558.0969" x2="-26.8741" y2="617.8529" gradientTransform="matrix(8 0 0 -8 454.9934 4941.0171)">
		<stop  offset="0" style="stop-color:#006DF0"/>
		<stop  offset="1" style="stop-color:#00E7F0"/>
	</linearGradient>
	<path style="fill:url(#SVGID_2_);" d="M72.001,216.002v16c0.035,12.64,6.064,24.513,16.248,32
		c-10.184,7.487-16.213,19.36-16.248,32v16c0.035,12.64,6.064,24.513,16.248,32c-10.184,7.487-16.213,19.36-16.248,32v16
		c0.026,22.08,17.92,39.974,40,40h256c22.08-0.026,39.974-17.92,40-40v-16c-0.035-12.64-6.064-24.513-16.248-32
		c10.184-7.487,16.213-19.36,16.248-32v-16c-0.035-12.64-6.064-24.513-16.248-32c10.184-7.487,16.213-19.36,16.248-32v-16
		c-0.026-22.08-17.92-39.974-40-40h-256C89.921,176.028,72.027,193.921,72.001,216.002z M392.001,376.002v16
		c0,13.255-10.745,24-24,24h-256c-13.255,0-24-10.745-24-24v-16c0-13.255,10.745-24,24-24h256
		C381.256,352.002,392.001,362.747,392.001,376.002z M392.001,296.002v16c0,13.255-10.745,24-24,24h-256c-13.255,0-24-10.745-24-24
		v-16c0-13.255,10.745-24,24-24h256C381.256,272.002,392.001,282.747,392.001,296.002z M392.001,216.002v16
		c0,13.255-10.745,24-24,24h-256c-13.255,0-24-10.745-24-24v-16c0-13.255,10.745-24,24-24h256
		C381.256,192.002,392.001,202.747,392.001,216.002z"/>
</g>
<g>
	
		<linearGradient id="SVGID_3_" gradientUnits="userSpaceOnUse" x1="-35.8741" y1="558.0969" x2="-35.8741" y2="617.8529" gradientTransform="matrix(8 0 0 -8 454.9934 4941.0171)">
		<stop  offset="0" style="stop-color:#006DF0"/>
		<stop  offset="1" style="stop-color:#00E7F0"/>
	</linearGradient>
	<path style="fill:url(#SVGID_3_);" d="M104.001,224.002c-0.025,13.224,10.675,23.964,23.899,23.989
		c10.174,0.019,19.249-6.393,22.629-15.989h73.472c4.418,0,8-3.582,8-8s-3.582-8-8-8h-73.472
		c-4.393-12.473-18.066-19.023-30.539-14.629C110.394,204.753,103.982,213.828,104.001,224.002z M128.001,216.002
		c4.418,0,8,3.582,8,8s-3.582,8-8,8s-8-3.582-8-8S123.583,216.002,128.001,216.002z"/>
	
		<linearGradient id="SVGID_4_" gradientUnits="userSpaceOnUse" x1="-22.8741" y1="558.0969" x2="-22.8741" y2="617.8529" gradientTransform="matrix(8 0 0 -8 454.9934 4941.0171)">
		<stop  offset="0" style="stop-color:#006DF0"/>
		<stop  offset="1" style="stop-color:#00E7F0"/>
	</linearGradient>
	<path style="fill:url(#SVGID_4_);" d="M264.001,216.002h16v16h-16V216.002z"/>
	
		<linearGradient id="SVGID_5_" gradientUnits="userSpaceOnUse" x1="-18.8741" y1="558.0969" x2="-18.8741" y2="617.8529" gradientTransform="matrix(8 0 0 -8 454.9934 4941.0171)">
		<stop  offset="0" style="stop-color:#006DF0"/>
		<stop  offset="1" style="stop-color:#00E7F0"/>
	</linearGradient>
	<path style="fill:url(#SVGID_5_);" d="M296.001,216.002h16v16h-16V216.002z"/>
	
		<linearGradient id="SVGID_6_" gradientUnits="userSpaceOnUse" x1="-14.8741" y1="558.0969" x2="-14.8741" y2="617.8529" gradientTransform="matrix(8 0 0 -8 454.9934 4941.0171)">
		<stop  offset="0" style="stop-color:#006DF0"/>
		<stop  offset="1" style="stop-color:#00E7F0"/>
	</linearGradient>
	<path style="fill:url(#SVGID_6_);" d="M328.001,216.002h16v16h-16V216.002z"/>
	
		<linearGradient id="SVGID_7_" gradientUnits="userSpaceOnUse" x1="-35.8741" y1="558.0969" x2="-35.8741" y2="617.8529" gradientTransform="matrix(8 0 0 -8 454.9934 4941.0171)">
		<stop  offset="0" style="stop-color:#006DF0"/>
		<stop  offset="1" style="stop-color:#00E7F0"/>
	</linearGradient>
	<path style="fill:url(#SVGID_7_);" d="M104.001,304.002c-0.025,13.224,10.675,23.964,23.899,23.989
		c10.174,0.019,19.249-6.393,22.629-15.989h73.472c4.418,0,8-3.582,8-8s-3.582-8-8-8h-73.472
		c-4.393-12.473-18.066-19.023-30.539-14.629C110.394,284.753,103.982,293.828,104.001,304.002z M128.001,296.002
		c4.418,0,8,3.582,8,8s-3.582,8-8,8s-8-3.582-8-8S123.583,296.002,128.001,296.002z"/>
	
		<linearGradient id="SVGID_8_" gradientUnits="userSpaceOnUse" x1="-22.8741" y1="558.0969" x2="-22.8741" y2="617.8529" gradientTransform="matrix(8 0 0 -8 454.9934 4941.0171)">
		<stop  offset="0" style="stop-color:#006DF0"/>
		<stop  offset="1" style="stop-color:#00E7F0"/>
	</linearGradient>
	<path style="fill:url(#SVGID_8_);" d="M264.001,296.002h16v16h-16V296.002z"/>
	
		<linearGradient id="SVGID_9_" gradientUnits="userSpaceOnUse" x1="-18.8741" y1="558.0969" x2="-18.8741" y2="617.8529" gradientTransform="matrix(8 0 0 -8 454.9934 4941.0171)">
		<stop  offset="0" style="stop-color:#006DF0"/>
		<stop  offset="1" style="stop-color:#00E7F0"/>
	</linearGradient>
	<path style="fill:url(#SVGID_9_);" d="M296.001,296.002h16v16h-16V296.002z"/>
	
		<linearGradient id="SVGID_10_" gradientUnits="userSpaceOnUse" x1="-14.8741" y1="558.0969" x2="-14.8741" y2="617.8529" gradientTransform="matrix(8 0 0 -8 454.9934 4941.0171)">
		<stop  offset="0" style="stop-color:#006DF0"/>
		<stop  offset="1" style="stop-color:#00E7F0"/>
	</linearGradient>
	<path style="fill:url(#SVGID_10_);" d="M328.001,296.002h16v16h-16V296.002z"/>
	
		<linearGradient id="SVGID_11_" gradientUnits="userSpaceOnUse" x1="-10.8741" y1="558.0969" x2="-10.8741" y2="617.8529" gradientTransform="matrix(8 0 0 -8 454.9934 4941.0171)">
		<stop  offset="0" style="stop-color:#006DF0"/>
		<stop  offset="1" style="stop-color:#00E7F0"/>
	</linearGradient>
	<path style="fill:url(#SVGID_11_);" d="M360.001,296.002h16v16h-16V296.002z"/>
	
		<linearGradient id="SVGID_12_" gradientUnits="userSpaceOnUse" x1="-35.8741" y1="558.0969" x2="-35.8741" y2="617.8529" gradientTransform="matrix(8 0 0 -8 454.9934 4941.0171)">
		<stop  offset="0" style="stop-color:#006DF0"/>
		<stop  offset="1" style="stop-color:#00E7F0"/>
	</linearGradient>
	<path style="fill:url(#SVGID_12_);" d="M104.001,384.002c-0.025,13.224,10.675,23.964,23.899,23.989
		c10.174,0.019,19.249-6.393,22.629-15.989h73.472c4.418,0,8-3.582,8-8s-3.582-8-8-8h-73.472
		c-4.393-12.473-18.066-19.023-30.539-14.629C110.394,364.753,103.982,373.828,104.001,384.002z M128.001,376.002
		c4.418,0,8,3.582,8,8s-3.582,8-8,8s-8-3.582-8-8S123.583,376.002,128.001,376.002z"/>
	
		<linearGradient id="SVGID_13_" gradientUnits="userSpaceOnUse" x1="-22.8741" y1="558.0969" x2="-22.8741" y2="617.8529" gradientTransform="matrix(8 0 0 -8 454.9934 4941.0171)">
		<stop  offset="0" style="stop-color:#006DF0"/>
		<stop  offset="1" style="stop-color:#00E7F0"/>
	</linearGradient>
	<path style="fill:url(#SVGID_13_);" d="M264.001,376.002h16v16h-16V376.002z"/>
	
		<linearGradient id="SVGID_14_" gradientUnits="userSpaceOnUse" x1="-18.8741" y1="558.0969" x2="-18.8741" y2="617.8529" gradientTransform="matrix(8 0 0 -8 454.9934 4941.0171)">
		<stop  offset="0" style="stop-color:#006DF0"/>
		<stop  offset="1" style="stop-color:#00E7F0"/>
	</linearGradient>
	<path style="fill:url(#SVGID_14_);" d="M296.001,376.002h16v16h-16V376.002z"/>
	
		<linearGradient id="SVGID_15_" gradientUnits="userSpaceOnUse" x1="-14.8741" y1="558.0969" x2="-14.8741" y2="617.8529" gradientTransform="matrix(8 0 0 -8 454.9934 4941.0171)">
		<stop  offset="0" style="stop-color:#006DF0"/>
		<stop  offset="1" style="stop-color:#00E7F0"/>
	</linearGradient>
	<path style="fill:url(#SVGID_15_);" d="M328.001,376.002h16v16h-16V376.002z"/>
	
		<linearGradient id="SVGID_16_" gradientUnits="userSpaceOnUse" x1="-10.8741" y1="558.0969" x2="-10.8741" y2="617.8529" gradientTransform="matrix(8 0 0 -8 454.9934 4941.0171)">
		<stop  offset="0" style="stop-color:#006DF0"/>
		<stop  offset="1" style="stop-color:#00E7F0"/>
	</linearGradient>
	<path style="fill:url(#SVGID_16_);" d="M360.001,376.002h16v16h-16V376.002z"/>
	
		<linearGradient id="SVGID_17_" gradientUnits="userSpaceOnUse" x1="-10.8741" y1="558.0969" x2="-10.8741" y2="617.8529" gradientTransform="matrix(8 0 0 -8 454.9934 4941.0171)">
		<stop  offset="0" style="stop-color:#006DF0"/>
		<stop  offset="1" style="stop-color:#00E7F0"/>
	</linearGradient>
	<path style="fill:url(#SVGID_17_);" d="M360.001,216.002h16v16h-16V216.002z"/>
</g>
<g>
</g>
<g>
</g>
<g>
</g>
<g>
</g>
<g>
</g>
<g>
</g>
<g>
</g>
<g>
</g>
<g>
</g>
<g>
</g>
<g>
</g>
<g>
</g>
<g>
</g>
<g>
</g>
<g>
</g>
</svg>
