<?xml version="1.0" encoding="iso-8859-1"?>
<!-- Generator: Adobe Illustrator 19.0.0, SVG Export Plug-In . SVG Version: 6.00 Build 0)  -->
<svg version="1.1" id="Capa_1" xmlns="http://www.w3.org/2000/svg" xmlns:xlink="http://www.w3.org/1999/xlink" x="0px" y="0px"
	 viewBox="0 0 480.01 480.01" style="enable-background:new 0 0 480.01 480.01;" xml:space="preserve">
<linearGradient id="SVGID_1_" gradientUnits="userSpaceOnUse" x1="-26.8698" y1="558.395" x2="-26.8698" y2="619.08" gradientTransform="matrix(8 0 0 -8 454.9633 4941)">
	<stop  offset="0" style="stop-color:#006DF0"/>
	<stop  offset="1" style="stop-color:#00E7F0"/>
</linearGradient>
<path style="fill:url(#SVGID_1_);" d="M480.005,88V40c-0.026-22.08-17.92-39.974-40-40h-400c-22.08,0.026-39.974,17.92-40,40v48
	c0.035,12.64,6.064,24.513,16.248,32C6.07,127.487,0.041,139.36,0.005,152v48c0.035,12.64,6.064,24.513,16.248,32
	C6.07,239.487,0.041,251.36,0.005,264v48c0.026,22.08,17.92,39.974,40,40h176v38.624c-7.192,4.185-13.167,10.174-17.336,17.376
	H8.005c-4.418,0-8,3.582-8,8v32c0,4.418,3.582,8,8,8h190.504c13.178,22.915,42.438,30.809,65.354,17.63
	c7.331-4.216,13.414-10.299,17.63-17.63h190.512c4.418,0,8-3.582,8-8v-32c0-4.418-3.582-8-8-8H281.333
	c-4.17-7.196-10.142-13.181-17.328-17.368V352h176c22.08-0.026,39.974-17.92,40-40v-48c-0.035-12.64-6.064-24.513-16.248-32
	c10.184-7.487,16.213-19.36,16.248-32v-48c-0.035-12.64-6.064-24.513-16.248-32C473.941,112.513,479.97,100.64,480.005,88z
	 M16.005,440v-16h176.664c-0.048,0.28,0,0.568-0.072,0.848c-0.795,4.748-0.795,9.596,0,14.344c0,0.264,0,0.544,0.064,0.8L16.005,440
	z M240.005,464c-12.704-0.032-24.202-7.527-29.36-19.136c-1.742-4.065-2.64-8.441-2.64-12.864c-0.012-4.409,0.907-8.77,2.696-12.8
	c7.001-16.184,25.797-23.628,41.981-16.626c7.469,3.231,13.422,9.193,16.644,16.666c1.78,4.018,2.693,8.366,2.68,12.76
	c-0.006,4.4-0.898,8.753-2.624,12.8C264.231,456.432,252.726,463.951,240.005,464L240.005,464z M464.005,424v16H287.341
	c0-0.256,0-0.52,0.064-0.8c0.797-4.767,0.797-9.633,0-14.4c-0.04-0.28,0-0.568-0.072-0.8L464.005,424z M248.005,384.664
	c-0.304-0.056-0.624,0-0.928-0.08c-2.274-0.358-4.57-0.553-6.872-0.584h-0.2c-0.096,0-0.184,0-0.28,0
	c-2.237,0.028-4.469,0.213-6.68,0.552c-0.344,0.048-0.696,0-1.04,0.088V352h16V384.664z M464.005,264v48c0,13.255-10.745,24-24,24
	h-400c-13.255,0-24-10.745-24-24v-48c0-13.255,10.745-24,24-24h400C453.26,240,464.005,250.745,464.005,264z M464.005,152v48
	c0,13.255-10.745,24-24,24h-400c-13.255,0-24-10.745-24-24v-48c0-13.255,10.745-24,24-24h400
	C453.26,128,464.005,138.745,464.005,152z M464.005,88c0,13.255-10.745,24-24,24h-400c-13.255,0-24-10.745-24-24V40
	c0-13.255,10.745-24,24-24h400c13.255,0,24,10.745,24,24V88z"/>
<g>
	
		<linearGradient id="SVGID_2_" gradientUnits="userSpaceOnUse" x1="-48.8698" y1="558.395" x2="-48.8698" y2="619.08" gradientTransform="matrix(8 0 0 -8 454.9633 4941)">
		<stop  offset="0" style="stop-color:#006DF0"/>
		<stop  offset="1" style="stop-color:#00E7F0"/>
	</linearGradient>
	<path style="fill:url(#SVGID_2_);" d="M64.005,32c-17.673,0-32,14.327-32,32s14.327,32,32,32s32-14.327,32-32S81.678,32,64.005,32z
		 M64.005,80c-8.837,0-16-7.163-16-16s7.163-16,16-16s16,7.163,16,16S72.842,80,64.005,80z"/>
	
		<linearGradient id="SVGID_3_" gradientUnits="userSpaceOnUse" x1="-35.8698" y1="558.395" x2="-35.8698" y2="619.08" gradientTransform="matrix(8 0 0 -8 454.9633 4941)">
		<stop  offset="0" style="stop-color:#006DF0"/>
		<stop  offset="1" style="stop-color:#00E7F0"/>
	</linearGradient>
	<path style="fill:url(#SVGID_3_);" d="M216.005,56h-96c-4.418,0-8,3.582-8,8s3.582,8,8,8h96c4.418,0,8-3.582,8-8
		S220.424,56,216.005,56z"/>
	
		<linearGradient id="SVGID_4_" gradientUnits="userSpaceOnUse" x1="-48.8698" y1="558.395" x2="-48.8698" y2="619.08" gradientTransform="matrix(8 0 0 -8 454.9633 4941)">
		<stop  offset="0" style="stop-color:#006DF0"/>
		<stop  offset="1" style="stop-color:#00E7F0"/>
	</linearGradient>
	<path style="fill:url(#SVGID_4_);" d="M64.005,208c17.673,0,32-14.327,32-32s-14.327-32-32-32s-32,14.327-32,32
		S46.332,208,64.005,208z M64.005,160c8.837,0,16,7.163,16,16s-7.163,16-16,16s-16-7.163-16-16S55.169,160,64.005,160z"/>
	
		<linearGradient id="SVGID_5_" gradientUnits="userSpaceOnUse" x1="-35.8698" y1="558.395" x2="-35.8698" y2="619.08" gradientTransform="matrix(8 0 0 -8 454.9633 4941)">
		<stop  offset="0" style="stop-color:#006DF0"/>
		<stop  offset="1" style="stop-color:#00E7F0"/>
	</linearGradient>
	<path style="fill:url(#SVGID_5_);" d="M120.005,184h96c4.418,0,8-3.582,8-8s-3.582-8-8-8h-96c-4.418,0-8,3.582-8,8
		S115.587,184,120.005,184z"/>
	
		<linearGradient id="SVGID_6_" gradientUnits="userSpaceOnUse" x1="-23.8698" y1="558.395" x2="-23.8698" y2="619.08" gradientTransform="matrix(8 0 0 -8 454.9633 4941)">
		<stop  offset="0" style="stop-color:#006DF0"/>
		<stop  offset="1" style="stop-color:#00E7F0"/>
	</linearGradient>
	<path style="fill:url(#SVGID_6_);" d="M256.005,48h16v32h-16V48z"/>
	
		<linearGradient id="SVGID_7_" gradientUnits="userSpaceOnUse" x1="-19.8698" y1="558.395" x2="-19.8698" y2="619.08" gradientTransform="matrix(8 0 0 -8 454.9633 4941)">
		<stop  offset="0" style="stop-color:#006DF0"/>
		<stop  offset="1" style="stop-color:#00E7F0"/>
	</linearGradient>
	<path style="fill:url(#SVGID_7_);" d="M288.005,48h16v32h-16V48z"/>
	
		<linearGradient id="SVGID_8_" gradientUnits="userSpaceOnUse" x1="-15.8698" y1="558.395" x2="-15.8698" y2="619.08" gradientTransform="matrix(8 0 0 -8 454.9633 4941)">
		<stop  offset="0" style="stop-color:#006DF0"/>
		<stop  offset="1" style="stop-color:#00E7F0"/>
	</linearGradient>
	<path style="fill:url(#SVGID_8_);" d="M320.005,48h16v32h-16V48z"/>
	
		<linearGradient id="SVGID_9_" gradientUnits="userSpaceOnUse" x1="-11.8698" y1="558.395" x2="-11.8698" y2="619.08" gradientTransform="matrix(8 0 0 -8 454.9633 4941)">
		<stop  offset="0" style="stop-color:#006DF0"/>
		<stop  offset="1" style="stop-color:#00E7F0"/>
	</linearGradient>
	<path style="fill:url(#SVGID_9_);" d="M352.005,48h16v32h-16V48z"/>
	
		<linearGradient id="SVGID_10_" gradientUnits="userSpaceOnUse" x1="-7.8698" y1="558.395" x2="-7.8698" y2="619.08" gradientTransform="matrix(8 0 0 -8 454.9633 4941)">
		<stop  offset="0" style="stop-color:#006DF0"/>
		<stop  offset="1" style="stop-color:#00E7F0"/>
	</linearGradient>
	<path style="fill:url(#SVGID_10_);" d="M384.005,48h16v32h-16V48z"/>
	
		<linearGradient id="SVGID_11_" gradientUnits="userSpaceOnUse" x1="-3.8698" y1="558.395" x2="-3.8698" y2="619.08" gradientTransform="matrix(8 0 0 -8 454.9633 4941)">
		<stop  offset="0" style="stop-color:#006DF0"/>
		<stop  offset="1" style="stop-color:#00E7F0"/>
	</linearGradient>
	<path style="fill:url(#SVGID_11_);" d="M416.005,48h16v32h-16V48z"/>
	
		<linearGradient id="SVGID_12_" gradientUnits="userSpaceOnUse" x1="-23.8698" y1="558.395" x2="-23.8698" y2="619.08" gradientTransform="matrix(8 0 0 -8 454.9633 4941)">
		<stop  offset="0" style="stop-color:#006DF0"/>
		<stop  offset="1" style="stop-color:#00E7F0"/>
	</linearGradient>
	<path style="fill:url(#SVGID_12_);" d="M256.005,160h16v32h-16V160z"/>
	
		<linearGradient id="SVGID_13_" gradientUnits="userSpaceOnUse" x1="-19.8698" y1="558.395" x2="-19.8698" y2="619.08" gradientTransform="matrix(8 0 0 -8 454.9633 4941)">
		<stop  offset="0" style="stop-color:#006DF0"/>
		<stop  offset="1" style="stop-color:#00E7F0"/>
	</linearGradient>
	<path style="fill:url(#SVGID_13_);" d="M288.005,160h16v32h-16V160z"/>
	
		<linearGradient id="SVGID_14_" gradientUnits="userSpaceOnUse" x1="-15.8698" y1="558.395" x2="-15.8698" y2="619.08" gradientTransform="matrix(8 0 0 -8 454.9633 4941)">
		<stop  offset="0" style="stop-color:#006DF0"/>
		<stop  offset="1" style="stop-color:#00E7F0"/>
	</linearGradient>
	<path style="fill:url(#SVGID_14_);" d="M320.005,160h16v32h-16V160z"/>
	
		<linearGradient id="SVGID_15_" gradientUnits="userSpaceOnUse" x1="-11.8698" y1="558.395" x2="-11.8698" y2="619.08" gradientTransform="matrix(8 0 0 -8 454.9633 4941)">
		<stop  offset="0" style="stop-color:#006DF0"/>
		<stop  offset="1" style="stop-color:#00E7F0"/>
	</linearGradient>
	<path style="fill:url(#SVGID_15_);" d="M352.005,160h16v32h-16V160z"/>
	
		<linearGradient id="SVGID_16_" gradientUnits="userSpaceOnUse" x1="-7.8698" y1="558.395" x2="-7.8698" y2="619.08" gradientTransform="matrix(8 0 0 -8 454.9633 4941)">
		<stop  offset="0" style="stop-color:#006DF0"/>
		<stop  offset="1" style="stop-color:#00E7F0"/>
	</linearGradient>
	<path style="fill:url(#SVGID_16_);" d="M384.005,160h16v32h-16V160z"/>
	
		<linearGradient id="SVGID_17_" gradientUnits="userSpaceOnUse" x1="-3.8698" y1="558.395" x2="-3.8698" y2="619.08" gradientTransform="matrix(8 0 0 -8 454.9633 4941)">
		<stop  offset="0" style="stop-color:#006DF0"/>
		<stop  offset="1" style="stop-color:#00E7F0"/>
	</linearGradient>
	<path style="fill:url(#SVGID_17_);" d="M416.005,160h16v32h-16V160z"/>
	
		<linearGradient id="SVGID_18_" gradientUnits="userSpaceOnUse" x1="-48.8698" y1="558.395" x2="-48.8698" y2="619.08" gradientTransform="matrix(8 0 0 -8 454.9633 4941)">
		<stop  offset="0" style="stop-color:#006DF0"/>
		<stop  offset="1" style="stop-color:#00E7F0"/>
	</linearGradient>
	<path style="fill:url(#SVGID_18_);" d="M64.005,320c17.673,0,32-14.327,32-32s-14.327-32-32-32s-32,14.327-32,32
		S46.332,320,64.005,320z M64.005,272c8.837,0,16,7.163,16,16s-7.163,16-16,16s-16-7.163-16-16S55.169,272,64.005,272z"/>
	
		<linearGradient id="SVGID_19_" gradientUnits="userSpaceOnUse" x1="-35.8698" y1="558.395" x2="-35.8698" y2="619.08" gradientTransform="matrix(8 0 0 -8 454.9633 4941)">
		<stop  offset="0" style="stop-color:#006DF0"/>
		<stop  offset="1" style="stop-color:#00E7F0"/>
	</linearGradient>
	<path style="fill:url(#SVGID_19_);" d="M120.005,296h96c4.418,0,8-3.582,8-8s-3.582-8-8-8h-96c-4.418,0-8,3.582-8,8
		S115.587,296,120.005,296z"/>
	
		<linearGradient id="SVGID_20_" gradientUnits="userSpaceOnUse" x1="-23.8698" y1="558.395" x2="-23.8698" y2="619.08" gradientTransform="matrix(8 0 0 -8 454.9633 4941)">
		<stop  offset="0" style="stop-color:#006DF0"/>
		<stop  offset="1" style="stop-color:#00E7F0"/>
	</linearGradient>
	<path style="fill:url(#SVGID_20_);" d="M256.005,272h16v32h-16V272z"/>
	
		<linearGradient id="SVGID_21_" gradientUnits="userSpaceOnUse" x1="-19.8698" y1="558.395" x2="-19.8698" y2="619.08" gradientTransform="matrix(8 0 0 -8 454.9633 4941)">
		<stop  offset="0" style="stop-color:#006DF0"/>
		<stop  offset="1" style="stop-color:#00E7F0"/>
	</linearGradient>
	<path style="fill:url(#SVGID_21_);" d="M288.005,272h16v32h-16V272z"/>
	
		<linearGradient id="SVGID_22_" gradientUnits="userSpaceOnUse" x1="-15.8698" y1="558.395" x2="-15.8698" y2="619.08" gradientTransform="matrix(8 0 0 -8 454.9633 4941)">
		<stop  offset="0" style="stop-color:#006DF0"/>
		<stop  offset="1" style="stop-color:#00E7F0"/>
	</linearGradient>
	<path style="fill:url(#SVGID_22_);" d="M320.005,272h16v32h-16V272z"/>
	
		<linearGradient id="SVGID_23_" gradientUnits="userSpaceOnUse" x1="-11.8698" y1="558.395" x2="-11.8698" y2="619.08" gradientTransform="matrix(8 0 0 -8 454.9633 4941)">
		<stop  offset="0" style="stop-color:#006DF0"/>
		<stop  offset="1" style="stop-color:#00E7F0"/>
	</linearGradient>
	<path style="fill:url(#SVGID_23_);" d="M352.005,272h16v32h-16V272z"/>
	
		<linearGradient id="SVGID_24_" gradientUnits="userSpaceOnUse" x1="-7.8698" y1="558.395" x2="-7.8698" y2="619.08" gradientTransform="matrix(8 0 0 -8 454.9633 4941)">
		<stop  offset="0" style="stop-color:#006DF0"/>
		<stop  offset="1" style="stop-color:#00E7F0"/>
	</linearGradient>
	<path style="fill:url(#SVGID_24_);" d="M384.005,272h16v32h-16V272z"/>
	
		<linearGradient id="SVGID_25_" gradientUnits="userSpaceOnUse" x1="-3.8698" y1="558.395" x2="-3.8698" y2="619.08" gradientTransform="matrix(8 0 0 -8 454.9633 4941)">
		<stop  offset="0" style="stop-color:#006DF0"/>
		<stop  offset="1" style="stop-color:#00E7F0"/>
	</linearGradient>
	<path style="fill:url(#SVGID_25_);" d="M416.005,272h16v32h-16V272z"/>
</g>
<g>
</g>
<g>
</g>
<g>
</g>
<g>
</g>
<g>
</g>
<g>
</g>
<g>
</g>
<g>
</g>
<g>
</g>
<g>
</g>
<g>
</g>
<g>
</g>
<g>
</g>
<g>
</g>
<g>
</g>
</svg>
