<?xml version="1.0" encoding="iso-8859-1"?>
<!-- Generator: Adobe Illustrator 19.0.0, SVG Export Plug-In . SVG Version: 6.00 Build 0)  -->
<svg version="1.1" id="Capa_1" xmlns="http://www.w3.org/2000/svg" xmlns:xlink="http://www.w3.org/1999/xlink" x="0px" y="0px"
	 viewBox="0 0 480 480" style="enable-background:new 0 0 480 480;" xml:space="preserve">
<linearGradient id="SVGID_1_" gradientUnits="userSpaceOnUse" x1="-26.3697" y1="559.9126" x2="-27.2707" y2="615.1876" gradientTransform="matrix(8 0 0 -8 455 4941.1396)">
	<stop  offset="0" style="stop-color:#006DF0"/>
	<stop  offset="1" style="stop-color:#00E7F0"/>
</linearGradient>
<path style="fill:url(#SVGID_1_);" d="M384,128.016c-3.386,0.012-6.77,0.205-10.136,0.576
	C361.029,54.684,290.711,5.175,216.804,18.01c-44.474,7.723-82.206,37.037-100.684,78.222c-1.368-0.064-2.712-0.216-4.12-0.216
	C50.171,96.029,0.059,146.162,0.072,207.991c0.012,57.49,43.566,105.625,100.768,111.368c0.968,0.416,283.16,0.656,283.16,0.656
	c53.019,0,96-42.981,96-96S437.019,128.016,384,128.016L384,128.016z M384,304.016c0,0-276.864-0.064-279.392-0.296
	c-52.836-4.071-92.368-50.204-88.297-103.04c3.793-49.228,44.325-87.541,93.689-88.56c-3.983,12.924-6.006,26.372-6,39.896
	c0,4.418,3.582,8,8,8c4.418,0,8-3.582,8-8c-0.047-14.895,2.716-29.665,8.144-43.536c0.188-0.329,0.351-0.671,0.488-1.024
	c24.56-61.498,94.324-91.443,155.822-66.883c38.72,15.463,66.627,49.93,73.698,91.019c-9.441,2.601-18.422,6.649-26.624,12
	c-3.7,2.417-4.741,7.376-2.324,11.076c2.417,3.7,7.376,4.741,11.076,2.324c8.635-5.654,18.294-9.559,28.432-11.496
	c5.038-0.971,10.157-1.466,15.288-1.48c44.183,0,80,35.817,80,80S428.183,304.016,384,304.016L384,304.016z"/>
<linearGradient id="SVGID_2_" gradientUnits="userSpaceOnUse" x1="-26.7491" y1="559.9064" x2="-27.6491" y2="615.1815" gradientTransform="matrix(8 0 0 -8 455 4941.1396)">
	<stop  offset="0" style="stop-color:#006DF0"/>
	<stop  offset="1" style="stop-color:#00E7F0"/>
</linearGradient>
<path style="fill:url(#SVGID_2_);" d="M456,464.016H24c-13.255,0-24-10.745-24-24v-80c0-13.255,10.745-24,24-24h432
	c13.255,0,24,10.745,24,24v80C480,453.27,469.255,464.016,456,464.016z M24,352.016c-4.418,0-8,3.582-8,8v80c0,4.418,3.582,8,8,8
	h432c4.418,0,8-3.582,8-8v-80c0-4.418-3.582-8-8-8H24z"/>
<linearGradient id="SVGID_3_" gradientUnits="userSpaceOnUse" x1="-48.7431" y1="559.5505" x2="-49.6441" y2="614.8225" gradientTransform="matrix(8 0 0 -8 455 4941.1396)">
	<stop  offset="0" style="stop-color:#006DF0"/>
	<stop  offset="1" style="stop-color:#00E7F0"/>
</linearGradient>
<path style="fill:url(#SVGID_3_);" d="M64,432.016c-17.673,0-32-14.327-32-32s14.327-32,32-32s32,14.327,32,32
	S81.673,432.016,64,432.016z M64,384.016c-8.837,0-16,7.163-16,16s7.163,16,16,16s16-7.163,16-16S72.837,384.016,64,384.016z"/>
<linearGradient id="SVGID_4_" gradientUnits="userSpaceOnUse" x1="-21.7504" y1="559.9875" x2="-22.6504" y2="615.2626" gradientTransform="matrix(8 0 0 -8 455 4941.1396)">
	<stop  offset="0" style="stop-color:#006DF0"/>
	<stop  offset="1" style="stop-color:#00E7F0"/>
</linearGradient>
<path style="fill:url(#SVGID_4_);" d="M440,408.016H120c-4.418,0-8-3.582-8-8s3.582-8,8-8h320c4.418,0,8,3.582,8,8
	S444.418,408.016,440,408.016z"/>
<g>
</g>
<g>
</g>
<g>
</g>
<g>
</g>
<g>
</g>
<g>
</g>
<g>
</g>
<g>
</g>
<g>
</g>
<g>
</g>
<g>
</g>
<g>
</g>
<g>
</g>
<g>
</g>
<g>
</g>
</svg>
