<?xml version="1.0" encoding="iso-8859-1"?>
<!-- Generator: Adobe Illustrator 19.0.0, SVG Export Plug-In . SVG Version: 6.00 Build 0)  -->
<svg version="1.1" id="Capa_1" xmlns="http://www.w3.org/2000/svg" xmlns:xlink="http://www.w3.org/1999/xlink" x="0px" y="0px"
	 viewBox="0 0 480 480" style="enable-background:new 0 0 480 480;" xml:space="preserve">
<linearGradient id="SVGID_1_" gradientUnits="userSpaceOnUse" x1="-27.2899" y1="557.605" x2="-26.3889" y2="622.796" gradientTransform="matrix(8 0 0 -8 455 4941)">
	<stop  offset="0" style="stop-color:#006DF0"/>
	<stop  offset="1" style="stop-color:#00E7F0"/>
</linearGradient>
<path style="fill:url(#SVGID_1_);" d="M440,480H40c-22.08-0.026-39.974-17.92-40-40V40C0.026,17.92,17.92,0.026,40,0h400
	c22.08,0.026,39.974,17.92,40,40v400C479.974,462.08,462.08,479.974,440,480z M40,16c-13.255,0-24,10.745-24,24v400
	c0,13.255,10.745,24,24,24h400c13.255,0,24-10.745,24-24V40c0-13.255-10.745-24-24-24H40z"/>
<linearGradient id="SVGID_2_" gradientUnits="userSpaceOnUse" x1="-19.2919" y1="557.495" x2="-18.3899" y2="622.686" gradientTransform="matrix(8 0 0 -8 455 4941)">
	<stop  offset="0" style="stop-color:#006DF0"/>
	<stop  offset="1" style="stop-color:#00E7F0"/>
</linearGradient>
<path style="fill:url(#SVGID_2_);" d="M176,48v384h256V48H176z M416,416h-64v-8h-16v8h-64v-8h-16v8h-64V64h64v8h16v-8h64v8h16v-8h64
	V416z"/>
<linearGradient id="SVGID_3_" gradientUnits="userSpaceOnUse" x1="-14.2098" y1="557.425" x2="-13.3078" y2="622.616" gradientTransform="matrix(8 0 0 -8 455 4941)">
	<stop  offset="0" style="stop-color:#006DF0"/>
	<stop  offset="1" style="stop-color:#00E7F0"/>
</linearGradient>
<path style="fill:url(#SVGID_3_);" d="M336,280h16v16h-16V280z"/>
<linearGradient id="SVGID_4_" gradientUnits="userSpaceOnUse" x1="-14.1542" y1="557.425" x2="-13.2532" y2="622.615" gradientTransform="matrix(8 0 0 -8 455 4941)">
	<stop  offset="0" style="stop-color:#006DF0"/>
	<stop  offset="1" style="stop-color:#00E7F0"/>
</linearGradient>
<path style="fill:url(#SVGID_4_);" d="M336,312h16v16h-16V312z"/>
<linearGradient id="SVGID_5_" gradientUnits="userSpaceOnUse" x1="-14.2648" y1="557.425" x2="-13.3637" y2="622.616" gradientTransform="matrix(8 0 0 -8 455 4941)">
	<stop  offset="0" style="stop-color:#006DF0"/>
	<stop  offset="1" style="stop-color:#00E7F0"/>
</linearGradient>
<path style="fill:url(#SVGID_5_);" d="M336,248h16v16h-16V248z"/>
<linearGradient id="SVGID_6_" gradientUnits="userSpaceOnUse" x1="-14.5404" y1="557.4349" x2="-13.6404" y2="622.6199" gradientTransform="matrix(8 0 0 -8 455 4941)">
	<stop  offset="0" style="stop-color:#006DF0"/>
	<stop  offset="1" style="stop-color:#00E7F0"/>
</linearGradient>
<path style="fill:url(#SVGID_6_);" d="M336,88h16v16h-16V88z"/>
<linearGradient id="SVGID_7_" gradientUnits="userSpaceOnUse" x1="-14.0989" y1="557.425" x2="-13.1979" y2="622.614" gradientTransform="matrix(8 0 0 -8 455 4941)">
	<stop  offset="0" style="stop-color:#006DF0"/>
	<stop  offset="1" style="stop-color:#00E7F0"/>
</linearGradient>
<path style="fill:url(#SVGID_7_);" d="M336,344h16v16h-16V344z"/>
<linearGradient id="SVGID_8_" gradientUnits="userSpaceOnUse" x1="-14.0438" y1="557.425" x2="-13.1418" y2="622.613" gradientTransform="matrix(8 0 0 -8 455 4941)">
	<stop  offset="0" style="stop-color:#006DF0"/>
	<stop  offset="1" style="stop-color:#00E7F0"/>
</linearGradient>
<path style="fill:url(#SVGID_8_);" d="M336,376h16v16h-16V376z"/>
<linearGradient id="SVGID_9_" gradientUnits="userSpaceOnUse" x1="-14.322" y1="557.425" x2="-13.417" y2="622.617" gradientTransform="matrix(8 0 0 -8 455 4941)">
	<stop  offset="0" style="stop-color:#006DF0"/>
	<stop  offset="1" style="stop-color:#00E7F0"/>
</linearGradient>
<path style="fill:url(#SVGID_9_);" d="M336,216h16v16h-16V216z"/>
<linearGradient id="SVGID_10_" gradientUnits="userSpaceOnUse" x1="-14.4851" y1="557.435" x2="-13.5851" y2="622.619" gradientTransform="matrix(8 0 0 -8 455 4941)">
	<stop  offset="0" style="stop-color:#006DF0"/>
	<stop  offset="1" style="stop-color:#00E7F0"/>
</linearGradient>
<path style="fill:url(#SVGID_10_);" d="M336,120h16v16h-16V120z"/>
<linearGradient id="SVGID_11_" gradientUnits="userSpaceOnUse" x1="-14.4361" y1="557.425" x2="-13.5261" y2="622.619" gradientTransform="matrix(8 0 0 -8 455 4941)">
	<stop  offset="0" style="stop-color:#006DF0"/>
	<stop  offset="1" style="stop-color:#00E7F0"/>
</linearGradient>
<path style="fill:url(#SVGID_11_);" d="M336,152h16v16h-16V152z"/>
<linearGradient id="SVGID_12_" gradientUnits="userSpaceOnUse" x1="-14.3748" y1="557.425" x2="-13.4747" y2="622.618" gradientTransform="matrix(8 0 0 -8 455 4941)">
	<stop  offset="0" style="stop-color:#006DF0"/>
	<stop  offset="1" style="stop-color:#00E7F0"/>
</linearGradient>
<path style="fill:url(#SVGID_12_);" d="M336,184h16v16h-16V184z"/>
<linearGradient id="SVGID_13_" gradientUnits="userSpaceOnUse" x1="-24.2079" y1="557.565" x2="-23.3059" y2="622.754" gradientTransform="matrix(8 0 0 -8 455 4941)">
	<stop  offset="0" style="stop-color:#006DF0"/>
	<stop  offset="1" style="stop-color:#00E7F0"/>
</linearGradient>
<path style="fill:url(#SVGID_13_);" d="M256,280h16v16h-16V280z"/>
<linearGradient id="SVGID_14_" gradientUnits="userSpaceOnUse" x1="-24.2628" y1="557.565" x2="-23.3618" y2="622.755" gradientTransform="matrix(8 0 0 -8 455 4941)">
	<stop  offset="0" style="stop-color:#006DF0"/>
	<stop  offset="1" style="stop-color:#00E7F0"/>
</linearGradient>
<path style="fill:url(#SVGID_14_);" d="M256,248h16v16h-16V248z"/>
<linearGradient id="SVGID_15_" gradientUnits="userSpaceOnUse" x1="-24.1523" y1="557.565" x2="-23.2513" y2="622.753" gradientTransform="matrix(8 0 0 -8 455 4941)">
	<stop  offset="0" style="stop-color:#006DF0"/>
	<stop  offset="1" style="stop-color:#00E7F0"/>
</linearGradient>
<path style="fill:url(#SVGID_15_);" d="M256,312h16v16h-16V312z"/>
<linearGradient id="SVGID_16_" gradientUnits="userSpaceOnUse" x1="-24.0417" y1="557.565" x2="-23.1407" y2="622.751" gradientTransform="matrix(8 0 0 -8 455 4941)">
	<stop  offset="0" style="stop-color:#006DF0"/>
	<stop  offset="1" style="stop-color:#00E7F0"/>
</linearGradient>
<path style="fill:url(#SVGID_16_);" d="M256,376h16v16h-16V376z"/>
<linearGradient id="SVGID_17_" gradientUnits="userSpaceOnUse" x1="-24.097" y1="557.565" x2="-23.196" y2="622.752" gradientTransform="matrix(8 0 0 -8 455 4941)">
	<stop  offset="0" style="stop-color:#006DF0"/>
	<stop  offset="1" style="stop-color:#00E7F0"/>
</linearGradient>
<path style="fill:url(#SVGID_17_);" d="M256,344h16v16h-16V344z"/>
<linearGradient id="SVGID_18_" gradientUnits="userSpaceOnUse" x1="-24.4826" y1="557.565" x2="-23.5836" y2="622.758" gradientTransform="matrix(8 0 0 -8 455 4941)">
	<stop  offset="0" style="stop-color:#006DF0"/>
	<stop  offset="1" style="stop-color:#00E7F0"/>
</linearGradient>
<path style="fill:url(#SVGID_18_);" d="M256,120h16v16h-16V120z"/>
<linearGradient id="SVGID_19_" gradientUnits="userSpaceOnUse" x1="-24.3181" y1="557.565" x2="-23.4171" y2="622.755" gradientTransform="matrix(8 0 0 -8 455 4941)">
	<stop  offset="0" style="stop-color:#006DF0"/>
	<stop  offset="1" style="stop-color:#00E7F0"/>
</linearGradient>
<path style="fill:url(#SVGID_19_);" d="M256,216h16v16h-16V216z"/>
<linearGradient id="SVGID_20_" gradientUnits="userSpaceOnUse" x1="-24.5384" y1="557.5751" x2="-23.6384" y2="622.7581" gradientTransform="matrix(8 0 0 -8 455 4941)">
	<stop  offset="0" style="stop-color:#006DF0"/>
	<stop  offset="1" style="stop-color:#00E7F0"/>
</linearGradient>
<path style="fill:url(#SVGID_20_);" d="M256,88h16v16h-16V88z"/>
<linearGradient id="SVGID_21_" gradientUnits="userSpaceOnUse" x1="-24.4305" y1="557.565" x2="-23.5265" y2="622.757" gradientTransform="matrix(8 0 0 -8 455 4941)">
	<stop  offset="0" style="stop-color:#006DF0"/>
	<stop  offset="1" style="stop-color:#00E7F0"/>
</linearGradient>
<path style="fill:url(#SVGID_21_);" d="M256,152h16v16h-16V152z"/>
<linearGradient id="SVGID_22_" gradientUnits="userSpaceOnUse" x1="-24.3734" y1="557.565" x2="-23.4724" y2="622.756" gradientTransform="matrix(8 0 0 -8 455 4941)">
	<stop  offset="0" style="stop-color:#006DF0"/>
	<stop  offset="1" style="stop-color:#00E7F0"/>
</linearGradient>
<path style="fill:url(#SVGID_22_);" d="M256,184h16v16h-16V184z"/>
<linearGradient id="SVGID_23_" gradientUnits="userSpaceOnUse" x1="-29.5237" y1="557.639" x2="-28.6237" y2="622.827" gradientTransform="matrix(8 0 0 -8 455 4941)">
	<stop  offset="0" style="stop-color:#006DF0"/>
	<stop  offset="1" style="stop-color:#00E7F0"/>
</linearGradient>
<path style="fill:url(#SVGID_23_);" d="M216,80h16v48h-16V80z"/>
<linearGradient id="SVGID_24_" gradientUnits="userSpaceOnUse" x1="-19.5256" y1="557.505" x2="-18.6256" y2="622.689" gradientTransform="matrix(8 0 0 -8 455 4941)">
	<stop  offset="0" style="stop-color:#006DF0"/>
	<stop  offset="1" style="stop-color:#00E7F0"/>
</linearGradient>
<path style="fill:url(#SVGID_24_);" d="M296,80h16v48h-16V80z"/>
<linearGradient id="SVGID_25_" gradientUnits="userSpaceOnUse" x1="-9.5275" y1="557.3651" x2="-8.6275" y2="622.551" gradientTransform="matrix(8 0 0 -8 455 4941)">
	<stop  offset="0" style="stop-color:#006DF0"/>
	<stop  offset="1" style="stop-color:#00E7F0"/>
</linearGradient>
<path style="fill:url(#SVGID_25_);" d="M376,80h16v48h-16V80z"/>
<linearGradient id="SVGID_26_" gradientUnits="userSpaceOnUse" x1="-45.5352" y1="557.86" x2="-44.6342" y2="623.049" gradientTransform="matrix(8 0 0 -8 455 4941)">
	<stop  offset="0" style="stop-color:#006DF0"/>
	<stop  offset="1" style="stop-color:#00E7F0"/>
</linearGradient>
<path style="fill:url(#SVGID_26_);" d="M96,136c-22.091,0-40-17.909-40-40s17.909-40,40-40s40,17.909,40,40
	C135.974,118.08,118.08,135.974,96,136z M96,72c-13.255,0-24,10.745-24,24s10.745,24,24,24s24-10.745,24-24S109.255,72,96,72z"/>
<linearGradient id="SVGID_27_" gradientUnits="userSpaceOnUse" x1="-45.3279" y1="557.857" x2="-44.4269" y2="623.046" gradientTransform="matrix(8 0 0 -8 455 4941)">
	<stop  offset="0" style="stop-color:#006DF0"/>
	<stop  offset="1" style="stop-color:#00E7F0"/>
</linearGradient>
<path style="fill:url(#SVGID_27_);" d="M96,256c-22.091,0-40-17.909-40-40s17.909-40,40-40s40,17.909,40,40
	C135.974,238.08,118.08,255.974,96,256z M96,192c-13.255,0-24,10.745-24,24s10.745,24,24,24s24-10.745,24-24l0,0
	C120,202.745,109.255,192,96,192z"/>
<g>
</g>
<g>
</g>
<g>
</g>
<g>
</g>
<g>
</g>
<g>
</g>
<g>
</g>
<g>
</g>
<g>
</g>
<g>
</g>
<g>
</g>
<g>
</g>
<g>
</g>
<g>
</g>
<g>
</g>
</svg>
