<?xml version="1.0" encoding="iso-8859-1"?>
<!-- Generator: Adobe Illustrator 19.0.0, SVG Export Plug-In . SVG Version: 6.00 Build 0)  -->
<svg version="1.1" id="Capa_1" xmlns="http://www.w3.org/2000/svg" xmlns:xlink="http://www.w3.org/1999/xlink" x="0px" y="0px"
	 viewBox="0 0 480 480" style="enable-background:new 0 0 480 480;" xml:space="preserve">
<linearGradient id="SVGID_1_" gradientUnits="userSpaceOnUse" x1="-26.875" y1="557.8361" x2="-26.875" y2="617.665" gradientTransform="matrix(8 0 0 -8 454.9998 4941.0005)">
	<stop  offset="0" style="stop-color:#006DF0"/>
	<stop  offset="1" style="stop-color:#00E7F0"/>
</linearGradient>
<path style="fill:url(#SVGID_1_);" d="M440,375.312l-32-368c-0.358-4.148-3.837-7.327-8-7.312H80c-4.163-0.015-7.642,3.164-8,7.312
	L40,376v96c0,4.418,3.582,8,8,8h384c4.418,0,8-3.582,8-8V375.312z M87.336,16h305.328L424,376v8H56v-7.312L87.336,16z M424,464H56
	v-64h368V464z"/>
<g>
	
		<linearGradient id="SVGID_2_" gradientUnits="userSpaceOnUse" x1="-8.875" y1="557.8361" x2="-8.875" y2="617.665" gradientTransform="matrix(8 0 0 -8 454.9998 4941.0005)">
		<stop  offset="0" style="stop-color:#006DF0"/>
		<stop  offset="1" style="stop-color:#00E7F0"/>
	</linearGradient>
	<path style="fill:url(#SVGID_2_);" d="M368,424h32v16h-32V424z"/>
	
		<linearGradient id="SVGID_3_" gradientUnits="userSpaceOnUse" x1="-13.875" y1="557.8361" x2="-13.875" y2="617.665" gradientTransform="matrix(8 0 0 -8 454.9998 4941.0005)">
		<stop  offset="0" style="stop-color:#006DF0"/>
		<stop  offset="1" style="stop-color:#00E7F0"/>
	</linearGradient>
	<path style="fill:url(#SVGID_3_);" d="M328,424h32v16h-32V424z"/>
</g>
<linearGradient id="SVGID_4_" gradientUnits="userSpaceOnUse" x1="-26.875" y1="557.8361" x2="-26.875" y2="617.665" gradientTransform="matrix(8 0 0 -8 454.9998 4941.0005)">
	<stop  offset="0" style="stop-color:#006DF0"/>
	<stop  offset="1" style="stop-color:#00E7F0"/>
</linearGradient>
<path style="fill:url(#SVGID_4_);" d="M240,280c74.992,0,136-39.48,136-88s-61.008-88-136-88s-136,39.48-136,88S165.008,280,240,280
	z M240,120c66.168,0,120,32.304,120,72s-53.832,72-120,72c-61.656,0-112.552-28.056-119.2-64h105.44
	c4.418,7.653,14.204,10.275,21.856,5.856c7.653-4.418,10.275-14.204,5.856-21.856c-4.418-7.653-14.204-10.275-21.856-5.856
	c-2.432,1.404-4.452,3.424-5.856,5.856H120.8C127.448,148.056,178.344,120,240,120z"/>
<g>
</g>
<g>
</g>
<g>
</g>
<g>
</g>
<g>
</g>
<g>
</g>
<g>
</g>
<g>
</g>
<g>
</g>
<g>
</g>
<g>
</g>
<g>
</g>
<g>
</g>
<g>
</g>
<g>
</g>
</svg>
