<?xml version="1.0" encoding="iso-8859-1"?>
<!-- Generator: Adobe Illustrator 19.0.0, SVG Export Plug-In . SVG Version: 6.00 Build 0)  -->
<svg version="1.1" id="Capa_1" xmlns="http://www.w3.org/2000/svg" xmlns:xlink="http://www.w3.org/1999/xlink" x="0px" y="0px"
	 viewBox="0 0 479.91 479.91" style="enable-background:new 0 0 479.91 479.91;" xml:space="preserve">
<linearGradient id="SVGID_1_" gradientUnits="userSpaceOnUse" x1="-40.92" y1="558.115" x2="-40.92" y2="617.334" gradientTransform="matrix(8 0 0 -8 567.3154 4941)">
	<stop  offset="0" style="stop-color:#006DF0"/>
	<stop  offset="1" style="stop-color:#00E7F0"/>
</linearGradient>
<path style="fill:url(#SVGID_1_);" d="M431.955,324.368V24c0-13.255-10.745-24-24-24h-368c-13.255,0-24,10.745-24,24v368
	c0,13.255,10.745,24,24,24h251.368c13.317,46.741,62.004,73.837,108.745,60.52c37.77-10.761,63.837-45.247,63.888-84.52
	C464.023,365.786,452.267,340.939,431.955,324.368L431.955,324.368z M39.955,400c-4.418,0-8-3.582-8-8V24c0-4.418,3.582-8,8-8h368
	c4.418,0,8,3.582,8,8v289.656l-0.176-0.072c-7.025-3.589-14.508-6.199-22.24-7.76l-0.8-0.168c-3.698-0.72-7.44-1.198-11.2-1.432
	c-0.424,0-0.856,0-1.28-0.056c-1.456-0.064-2.872-0.168-4.304-0.168c-1.824,0-3.608,0.168-5.408,0.272c-0.6,0.04-1.192,0-1.784,0
	c-0.328,0-0.648,0.088-0.976,0.12c-0.976,0.088-1.928,0.232-2.896,0.36c-1.696,0.216-3.384,0.456-5.064,0.8
	c-1.232,0.232-2.448,0.504-3.664,0.8s-2.4,0.592-3.592,0.92c-1.6,0.44-3.12,0.896-4.656,1.408l-1.44,0.528
	c-18.759,6.727-34.693,19.596-45.216,36.52c-0.8,1.288-1.6,2.568-2.4,3.904c-0.336,0.616-0.64,1.256-0.968,1.88
	c-0.992,1.888-1.928,3.808-2.784,5.776c-0.184,0.424-0.352,0.856-0.528,1.288c-0.928,2.213-1.76,4.475-2.496,6.784
	c-0.104,0.328-0.208,0.64-0.304,0.968c-0.731,2.368-1.352,4.781-1.864,7.24c-0.08,0.368-0.176,0.728-0.248,1.104
	s-0.232,0.928-0.312,1.4c-0.144,0.8-0.152,1.6-0.272,2.4c-0.392,2.528-0.68,5.072-0.856,7.664c-0.08,1.192-0.144,2.4-0.176,3.56
	c0,0.8-0.12,1.544-0.12,2.328c0,2.072,0.168,4.144,0.312,6.216v1.784L39.955,400z M375.955,464
	c-34.185-0.083-63.63-24.123-70.552-57.6c-0.478-2.329-0.836-4.682-1.072-7.048c-0.048-0.48,0-0.96-0.08-1.44
	c-0.152-1.872-0.272-3.752-0.28-5.6c0-0.736,0.064-1.48,0.08-2.216c0.048-1.664,0.096-3.328,0.256-4.96
	c0.064-0.736,0.192-1.472,0.288-2.208c0.224-1.768,0.456-3.544,0.8-5.272c0-0.128,0.056-0.256,0.088-0.384
	c0.464-2.232,1.024-4.432,1.696-6.584v-0.112c0.688-2.187,1.472-4.32,2.352-6.4l0.096-0.224c0.856-2.008,1.808-4,2.832-5.872
	c0.08-0.152,0.152-0.304,0.232-0.448c1.016-1.864,2.128-3.672,3.304-5.432c0.736-1.096,1.536-2.136,2.328-3.2
	c0.464-0.616,0.912-1.256,1.4-1.864c1.096-1.36,2.256-2.672,3.448-3.952l0.408-0.448c7.738-8.143,17.24-14.402,27.776-18.296
	c0.592-0.216,1.176-0.456,1.776-0.656c1.136-0.384,2.288-0.712,3.44-1.04s2.192-0.592,3.304-0.848
	c0.904-0.208,1.816-0.408,2.736-0.584c1.456-0.272,2.928-0.488,4.416-0.672c0.712-0.088,1.424-0.2,2.136-0.264
	c1.552-0.144,3.128-0.2,4.704-0.24c0.8,0,1.656-0.096,2.48-0.088c0.504,0,0.992,0.048,1.488,0.064c1.6,0.04,3.272,0.112,4.888,0.272
	c0.504,0.048,0.992,0.12,1.488,0.176c1.6,0.192,3.264,0.416,4.872,0.72c0.44,0.08,0.872,0.176,1.312,0.264
	c1.648,0.344,3.288,0.736,4.912,1.192l1.208,0.352c1.6,0.48,3.2,1.032,4.8,1.6c0.4,0.152,0.8,0.296,1.208,0.456
	c1.536,0.616,3.048,1.304,4.544,2.024l1.28,0.608c1.464,0.744,2.888,1.6,4.296,2.4c0.416,0.24,0.84,0.464,1.248,0.72
	c1.776,1.112,3.512,2.288,5.192,3.56h0.048c18.217,13.503,28.919,34.869,28.824,57.544C447.911,431.746,415.701,463.956,375.955,464
	L375.955,464z"/>
<g>
	
		<linearGradient id="SVGID_2_" gradientUnits="userSpaceOnUse" x1="-42.9201" y1="558.115" x2="-42.9201" y2="617.334" gradientTransform="matrix(8 0 0 -8 567.3154 4941)">
		<stop  offset="0" style="stop-color:#006DF0"/>
		<stop  offset="1" style="stop-color:#00E7F0"/>
	</linearGradient>
	<path style="fill:url(#SVGID_2_);" d="M311.955,240h48V64h-272v176h48v32h32v32h112v-32h32V240z M295.955,256h-32v32h-80v-32h-32
		v-32h-48V80h16v56h16V80h16v56h16V80h16v56h16V80h16v56h16V80h16v56h16V80h16v56h16V80h16v56h16V80h16v144h-48V256z"/>
	
		<linearGradient id="SVGID_3_" gradientUnits="userSpaceOnUse" x1="-52.9201" y1="558.115" x2="-52.9201" y2="617.334" gradientTransform="matrix(8 0 0 -8 567.3154 4941)">
		<stop  offset="0" style="stop-color:#006DF0"/>
		<stop  offset="1" style="stop-color:#00E7F0"/>
	</linearGradient>
	<path style="fill:url(#SVGID_3_);" d="M63.955,352h160v16h-160V352z"/>
	
		<linearGradient id="SVGID_4_" gradientUnits="userSpaceOnUse" x1="-38.9201" y1="558.115" x2="-38.9201" y2="617.334" gradientTransform="matrix(8 0 0 -8 567.3154 4941)">
		<stop  offset="0" style="stop-color:#006DF0"/>
		<stop  offset="1" style="stop-color:#00E7F0"/>
	</linearGradient>
	<path style="fill:url(#SVGID_4_);" d="M239.955,352h32v16h-32V352z"/>
	
		<linearGradient id="SVGID_5_" gradientUnits="userSpaceOnUse" x1="-23.9201" y1="558.115" x2="-23.9201" y2="617.334" gradientTransform="matrix(8 0 0 -8 567.3154 4941)">
		<stop  offset="0" style="stop-color:#006DF0"/>
		<stop  offset="1" style="stop-color:#00E7F0"/>
	</linearGradient>
	<path style="fill:url(#SVGID_5_);" d="M413.211,354.744c-3.124-3.123-8.188-3.123-11.312,0l-25.944,25.944l-25.944-25.944
		c-3.07-3.178-8.134-3.266-11.312-0.196c-3.178,3.07-3.266,8.134-0.196,11.312c0.064,0.066,0.129,0.132,0.196,0.196L364.643,392
		l-25.944,25.944c-3.178,3.07-3.266,8.134-0.196,11.312c3.07,3.178,8.134,3.266,11.312,0.196c0.066-0.064,0.132-0.129,0.196-0.196
		l25.944-25.944l25.944,25.944c3.07,3.178,8.134,3.266,11.312,0.196c3.178-3.07,3.266-8.134,0.196-11.312
		c-0.064-0.066-0.129-0.132-0.196-0.196L387.267,392l25.944-25.944C416.334,362.932,416.334,357.868,413.211,354.744z"/>
</g>
<g>
</g>
<g>
</g>
<g>
</g>
<g>
</g>
<g>
</g>
<g>
</g>
<g>
</g>
<g>
</g>
<g>
</g>
<g>
</g>
<g>
</g>
<g>
</g>
<g>
</g>
<g>
</g>
<g>
</g>
</svg>
