<?xml version="1.0" encoding="iso-8859-1"?>
<!-- Generator: Adobe Illustrator 19.0.0, SVG Export Plug-In . SVG Version: 6.00 Build 0)  -->
<svg version="1.1" id="Capa_1" xmlns="http://www.w3.org/2000/svg" xmlns:xlink="http://www.w3.org/1999/xlink" x="0px" y="0px"
	 viewBox="0 0 480 480" style="enable-background:new 0 0 480 480;" xml:space="preserve">
<g>
	
		<linearGradient id="SVGID_1_" gradientUnits="userSpaceOnUse" x1="-42.875" y1="556.575" x2="-42.875" y2="621.02" gradientTransform="matrix(8 0 0 -8 455 4941)">
		<stop  offset="0" style="stop-color:#006DF0"/>
		<stop  offset="1" style="stop-color:#00E7F0"/>
	</linearGradient>
	<path style="fill:url(#SVGID_1_);" d="M40,128h144v16H40V128z"/>
	
		<linearGradient id="SVGID_2_" gradientUnits="userSpaceOnUse" x1="-42.875" y1="556.575" x2="-42.875" y2="621.02" gradientTransform="matrix(8 0 0 -8 455 4941)">
		<stop  offset="0" style="stop-color:#006DF0"/>
		<stop  offset="1" style="stop-color:#00E7F0"/>
	</linearGradient>
	<path style="fill:url(#SVGID_2_);" d="M40,160h144v16H40V160z"/>
</g>
<g>
	
		<linearGradient id="SVGID_3_" gradientUnits="userSpaceOnUse" x1="-47.875" y1="556.575" x2="-47.875" y2="621.02" gradientTransform="matrix(8 0 0 -8 455 4941)">
		<stop  offset="0" style="stop-color:#006DF0"/>
		<stop  offset="1" style="stop-color:#00E7F0"/>
	</linearGradient>
	<path style="fill:url(#SVGID_3_);" d="M72,336c-13.255,0-24,10.745-24,24s10.745,24,24,24s24-10.745,24-24S85.255,336,72,336z
		 M72,368c-4.418,0-8-3.582-8-8s3.582-8,8-8s8,3.582,8,8S76.418,368,72,368z"/>
	
		<linearGradient id="SVGID_4_" gradientUnits="userSpaceOnUse" x1="-37.875" y1="556.575" x2="-37.875" y2="621.02" gradientTransform="matrix(8 0 0 -8 455 4941)">
		<stop  offset="0" style="stop-color:#006DF0"/>
		<stop  offset="1" style="stop-color:#00E7F0"/>
	</linearGradient>
	<path style="fill:url(#SVGID_4_);" d="M176,360c0-13.255-10.745-24-24-24s-24,10.745-24,24s10.745,24,24,24S176,373.255,176,360z
		 M152,368c-4.418,0-8-3.582-8-8s3.582-8,8-8s8,3.582,8,8S156.418,368,152,368z"/>
	
		<linearGradient id="SVGID_5_" gradientUnits="userSpaceOnUse" x1="-50.875" y1="556.575" x2="-50.875" y2="621.02" gradientTransform="matrix(8 0 0 -8 455 4941)">
		<stop  offset="0" style="stop-color:#006DF0"/>
		<stop  offset="1" style="stop-color:#00E7F0"/>
	</linearGradient>
	<path style="fill:url(#SVGID_5_);" d="M40,408h16v32H40V408z"/>
	
		<linearGradient id="SVGID_6_" gradientUnits="userSpaceOnUse" x1="-46.875" y1="556.575" x2="-46.875" y2="621.02" gradientTransform="matrix(8 0 0 -8 455 4941)">
		<stop  offset="0" style="stop-color:#006DF0"/>
		<stop  offset="1" style="stop-color:#00E7F0"/>
	</linearGradient>
	<path style="fill:url(#SVGID_6_);" d="M72,408h16v32H72V408z"/>
</g>
<linearGradient id="SVGID_7_" gradientUnits="userSpaceOnUse" x1="-42.875" y1="556.575" x2="-42.875" y2="621.02" gradientTransform="matrix(8 0 0 -8 455 4941)">
	<stop  offset="0" style="stop-color:#006DF0"/>
	<stop  offset="1" style="stop-color:#00E7F0"/>
</linearGradient>
<path style="fill:url(#SVGID_7_);" d="M104,408h16v32h-16V408z"/>
<g>
	
		<linearGradient id="SVGID_8_" gradientUnits="userSpaceOnUse" x1="-38.875" y1="556.575" x2="-38.875" y2="621.02" gradientTransform="matrix(8 0 0 -8 455 4941)">
		<stop  offset="0" style="stop-color:#006DF0"/>
		<stop  offset="1" style="stop-color:#00E7F0"/>
	</linearGradient>
	<path style="fill:url(#SVGID_8_);" d="M136,408h16v32h-16V408z"/>
	
		<linearGradient id="SVGID_9_" gradientUnits="userSpaceOnUse" x1="-34.875" y1="556.575" x2="-34.875" y2="621.02" gradientTransform="matrix(8 0 0 -8 455 4941)">
		<stop  offset="0" style="stop-color:#006DF0"/>
		<stop  offset="1" style="stop-color:#00E7F0"/>
	</linearGradient>
	<path style="fill:url(#SVGID_9_);" d="M168,408h16v32h-16V408z"/>
	
		<linearGradient id="SVGID_10_" gradientUnits="userSpaceOnUse" x1="-26.875" y1="556.575" x2="-26.875" y2="621.02" gradientTransform="matrix(8 0 0 -8 455 4941)">
		<stop  offset="0" style="stop-color:#006DF0"/>
		<stop  offset="1" style="stop-color:#00E7F0"/>
	</linearGradient>
	<path style="fill:url(#SVGID_10_);" d="M472,176H348.28l-24.872-37.312c-4.444-6.684-11.941-10.697-19.968-10.688H224V8
		c0-4.418-3.582-8-8-8H8C3.582,0,0,3.582,0,8v464c0,4.418,3.582,8,8,8h448c4.418,0,8-3.582,8-8V306.4
		c9.563-3.381,15.968-12.409,16-22.552V184C480,179.582,476.418,176,472,176z M303.44,144c2.674,0,5.172,1.335,6.656,3.56
		L329.048,176H224v-32H303.44z M16,16h192v448H16V16z M224,464v-16h168c4.418,0,8-3.582,8-8s-3.582-8-8-8H224v-68.904l8,2.664V376
		c0,13.255,10.745,24,24,24s24-10.745,24-24v-10.168l168-54.2V432h-24c-4.418,0-8,3.582-8,8s3.582,8,8,8h24v16H224z M248,376v-40h16
		v40c0,4.418-3.582,8-8,8S248,380.418,248,376z M464,283.84c-0.046,3.72-2.603,6.938-6.216,7.824L280,349.008V328
		c0-4.418-3.582-8-8-8h-32c-4.418,0-8,3.582-8,8v20.904l-8-2.672V192h240V283.84z"/>
</g>
<g>
</g>
<g>
</g>
<g>
</g>
<g>
</g>
<g>
</g>
<g>
</g>
<g>
</g>
<g>
</g>
<g>
</g>
<g>
</g>
<g>
</g>
<g>
</g>
<g>
</g>
<g>
</g>
<g>
</g>
</svg>
