<?xml version="1.0" encoding="iso-8859-1"?>
<!-- Generator: Adobe Illustrator 19.0.0, SVG Export Plug-In . SVG Version: 6.00 Build 0)  -->
<svg version="1.1" id="Capa_1" xmlns="http://www.w3.org/2000/svg" xmlns:xlink="http://www.w3.org/1999/xlink" x="0px" y="0px"
	 viewBox="0 0 480 480" style="enable-background:new 0 0 480 480;" xml:space="preserve">
<linearGradient id="SVGID_1_" gradientUnits="userSpaceOnUse" x1="-26.875" y1="564.105" x2="-26.875" y2="612.194" gradientTransform="matrix(8 0 0 -8 455 4941)">
	<stop  offset="0" style="stop-color:#006DF0"/>
	<stop  offset="1" style="stop-color:#00E7F0"/>
</linearGradient>
<path style="fill:url(#SVGID_1_);" d="M472,104H96V64c0-13.255-10.745-24-24-24H8c-4.418,0-8,3.582-8,8v32c0,4.418,3.582,8,8,8h40
	v48H24c-4.418,0-8,3.582-8,8s3.582,8,8,8h24v8H24c-4.418,0-8,3.582-8,8v112c0,4.418,3.582,8,8,8h24v8H24c-4.418,0-8,3.582-8,8
	s3.582,8,8,8h24v120c0,4.418,3.582,8,8,8h32c4.418,0,8-3.582,8-8v-56h40v40c0,4.418,3.582,8,8,8h96c4.418,0,8-3.582,8-8v-8
	c0-4.418,3.582-8,8-8s8,3.582,8,8v8c0,4.418,3.582,8,8,8h160c4.418,0,8-3.582,8-8v-40h32c4.418,0,8-3.582,8-8V112
	C480,107.582,476.418,104,472,104z M32,272v-96h16v96H32z M80,424H64V80c0-4.418-3.582-8-8-8H16V56h56c4.418,0,8,3.582,8,8V424z
	 M424,408h-16v-24h-16v24h-16v-24h-16v24h-16v-24h-16v24h-16v-24h-16v24h-16c0-13.255-10.745-24-24-24s-24,10.745-24,24h-16v-24h-16
	v24h-16v-24h-16v24h-16v-32h272V408z M464,360H96V120h368V360z"/>
<g>
	
		<linearGradient id="SVGID_2_" gradientUnits="userSpaceOnUse" x1="-15.8802" y1="564.105" x2="-15.8802" y2="612.194" gradientTransform="matrix(8 0 0 -8 455 4941)">
		<stop  offset="0" style="stop-color:#006DF0"/>
		<stop  offset="1" style="stop-color:#00E7F0"/>
	</linearGradient>
	<path style="fill:url(#SVGID_2_);" d="M238.832,293.264C257.557,324.688,291.421,343.956,328,344
		c18.714-0.011,37.073-5.11,53.112-14.752l0.152-0.08c14.797-8.882,27.165-21.288,36-36.112c0.34-0.438,0.63-0.913,0.864-1.416
		c18.783-32.502,18.419-72.644-0.952-104.8v-0.056c-29.117-49.172-92.582-65.43-141.754-36.314
		c-0.216,0.128-0.431,0.256-0.646,0.386h-0.056c-49.172,29.117-65.43,92.582-36.314,141.754c0.128,0.216,0.256,0.431,0.386,0.646
		L238.832,293.264z M248.8,201.816l19.008,6.504c7.875,2.703,15.053,7.118,21.016,12.928l8.904,8.712l-0.056,0.176l-9.016-2.304
		c-10.377-2.643-21.211-2.949-31.72-0.896l-16.392,3.2C241.668,220.296,244.46,210.719,248.8,201.816z M318.848,199.872
		c-2.899-10.287-8.038-19.805-15.048-27.872l-11-12.616c9.084-3.957,18.774-6.343,28.656-7.056l3.88,19.736
		c1.599,8.171,1.361,16.596-0.696,24.664l-3.04,11.92l-0.256,0.064L318.848,199.872z M407.2,278.184l-19.008-6.504
		c-7.875-2.703-15.053-7.118-21.016-12.928l-8.904-8.712l0.056-0.176l9.016,2.304c10.378,2.635,21.21,2.941,31.72,0.896l16.392-3.2
		C414.332,259.704,411.54,269.281,407.2,278.184L407.2,278.184z M337.152,280.128c2.905,10.305,8.058,19.837,15.088,27.912
		l10.96,12.576c-9.084,3.957-18.774,6.343-28.656,7.056l-3.88-19.736c-1.599-8.171-1.361-16.596,0.696-24.664l3.04-11.92
		l0.256-0.064L337.152,280.128z M328,224c8.837,0,16,7.163,16,16c0,8.837-7.163,16-16,16s-16-7.163-16-16
		C312,231.163,319.163,224,328,224z M309.248,279.136l8.712-8.904l0.176,0.056l-2.304,9.016c-2.639,10.377-2.945,21.21-0.896,31.72
		l3.2,16.392c-9.838-1.111-19.415-3.889-28.32-8.216l6.504-19.008C299.017,292.303,303.433,285.111,309.248,279.136L309.248,279.136
		z M415.648,233.48l-19.736,3.88c-8.172,1.595-16.595,1.357-24.664-0.696l-11.92-3.04l-0.064-0.256l8.8-2.48
		c10.305-2.905,19.837-8.058,27.912-15.088l12.64-11c3.959,9.091,6.345,18.789,7.056,28.68L415.648,233.48z M346.728,200.864
		l-8.712,8.904l-0.176-0.056l2.304-9.016c2.639-10.377,2.945-21.21,0.896-31.72l-3.2-16.392c9.849,1.121,19.434,3.913,28.344,8.256
		l-6.504,19.008c-2.703,7.875-7.118,15.053-12.928,21.016H346.728z M260.064,242.64c8.171-1.603,16.596-1.365,24.664,0.696
		l11.92,3.04l0.064,0.256l-8.8,2.48c-10.305,2.905-19.837,8.058-27.912,15.088l-12.616,11c-3.957-9.084-6.343-18.774-7.056-28.656
		L260.064,242.64z M255.264,289.504l15.2-13.248c6.278-5.468,13.691-9.476,21.704-11.736l12-3.36l0.12,0.152l-6.496,6.648
		c-7.474,7.664-13.155,16.891-16.632,27.016l-5.376,15.712c-7.96-5.871-14.882-13.031-20.48-21.184L255.264,289.504z
		 M377.464,312.704l-13.248-15.2c-5.468-6.278-9.476-13.691-11.736-21.704l-3.36-12l0.152-0.12l6.648,6.496
		c7.664,7.474,16.891,13.155,27.016,16.632l15.712,5.376c-5.856,7.968-13.002,14.901-21.144,20.512L377.464,312.704z
		 M400.664,190.504l-15.2,13.248c-6.278,5.468-13.691,9.476-21.704,11.736l-12,3.36l-0.12-0.152l6.496-6.648
		c7.474-7.664,13.155-16.891,16.632-27.016l5.376-15.712c7.985,5.862,14.931,13.02,20.552,21.176L400.664,190.504z M278.464,167.304
		l13.248,15.2c5.468,6.278,9.476,13.691,11.736,21.704l3.36,12l-0.152,0.12l-6.648-6.496c-7.664-7.474-16.891-13.155-27.016-16.632
		l-15.712-5.376c5.877-7.977,13.048-14.913,21.216-20.52L278.464,167.304z"/>
	
		<linearGradient id="SVGID_3_" gradientUnits="userSpaceOnUse" x1="-36.875" y1="564.105" x2="-36.875" y2="612.194" gradientTransform="matrix(8 0 0 -8 455 4941)">
		<stop  offset="0" style="stop-color:#006DF0"/>
		<stop  offset="1" style="stop-color:#00E7F0"/>
	</linearGradient>
	<path style="fill:url(#SVGID_3_);" d="M192,160h-64v64h64V160z M176,208h-32v-32h32V208z"/>
	
		<linearGradient id="SVGID_4_" gradientUnits="userSpaceOnUse" x1="-36.875" y1="564.105" x2="-36.875" y2="612.194" gradientTransform="matrix(8 0 0 -8 455 4941)">
		<stop  offset="0" style="stop-color:#006DF0"/>
		<stop  offset="1" style="stop-color:#00E7F0"/>
	</linearGradient>
	<path style="fill:url(#SVGID_4_);" d="M128,240h64v16h-64V240z"/>
	
		<linearGradient id="SVGID_5_" gradientUnits="userSpaceOnUse" x1="-36.875" y1="564.105" x2="-36.875" y2="612.194" gradientTransform="matrix(8 0 0 -8 455 4941)">
		<stop  offset="0" style="stop-color:#006DF0"/>
		<stop  offset="1" style="stop-color:#00E7F0"/>
	</linearGradient>
	<path style="fill:url(#SVGID_5_);" d="M128,272h64v16h-64V272z"/>
	
		<linearGradient id="SVGID_6_" gradientUnits="userSpaceOnUse" x1="-39.875" y1="564.105" x2="-39.875" y2="612.194" gradientTransform="matrix(8 0 0 -8 455 4941)">
		<stop  offset="0" style="stop-color:#006DF0"/>
		<stop  offset="1" style="stop-color:#00E7F0"/>
	</linearGradient>
	<path style="fill:url(#SVGID_6_);" d="M128,304h16v16h-16V304z"/>
	
		<linearGradient id="SVGID_7_" gradientUnits="userSpaceOnUse" x1="-36.875" y1="564.105" x2="-36.875" y2="612.194" gradientTransform="matrix(8 0 0 -8 455 4941)">
		<stop  offset="0" style="stop-color:#006DF0"/>
		<stop  offset="1" style="stop-color:#00E7F0"/>
	</linearGradient>
	<path style="fill:url(#SVGID_7_);" d="M152,304h16v16h-16V304z"/>
	
		<linearGradient id="SVGID_8_" gradientUnits="userSpaceOnUse" x1="-33.875" y1="564.105" x2="-33.875" y2="612.194" gradientTransform="matrix(8 0 0 -8 455 4941)">
		<stop  offset="0" style="stop-color:#006DF0"/>
		<stop  offset="1" style="stop-color:#00E7F0"/>
	</linearGradient>
	<path style="fill:url(#SVGID_8_);" d="M176,304h16v16h-16V304z"/>
</g>
<g>
</g>
<g>
</g>
<g>
</g>
<g>
</g>
<g>
</g>
<g>
</g>
<g>
</g>
<g>
</g>
<g>
</g>
<g>
</g>
<g>
</g>
<g>
</g>
<g>
</g>
<g>
</g>
<g>
</g>
</svg>
