<?xml version="1.0" encoding="iso-8859-1"?>
<!-- Generator: Adobe Illustrator 19.0.0, SVG Export Plug-In . SVG Version: 6.00 Build 0)  -->
<svg version="1.1" id="Capa_1" xmlns="http://www.w3.org/2000/svg" xmlns:xlink="http://www.w3.org/1999/xlink" x="0px" y="0px"
	 viewBox="0 0 480 480" style="enable-background:new 0 0 480 480;" xml:space="preserve">
<linearGradient id="SVGID_1_" gradientUnits="userSpaceOnUse" x1="-60.8754" y1="558.335" x2="-60.8754" y2="616.298" gradientTransform="matrix(8 0 0 -8 651.0026 4941)">
	<stop  offset="0" style="stop-color:#006DF0"/>
	<stop  offset="1" style="stop-color:#00E7F0"/>
</linearGradient>
<path style="fill:url(#SVGID_1_);" d="M188,96h-48V48h48V96z M156,80h16V64h-16V80z"/>
<g>
	
		<linearGradient id="SVGID_2_" gradientUnits="userSpaceOnUse" x1="-48.8754" y1="558.335" x2="-48.8754" y2="616.298" gradientTransform="matrix(8 0 0 -8 651.0026 4941)">
		<stop  offset="0" style="stop-color:#006DF0"/>
		<stop  offset="1" style="stop-color:#00E7F0"/>
	</linearGradient>
	<path style="fill:url(#SVGID_2_);" d="M284,96h-48V48h48V96z M252,80h16V64h-16V80z"/>
	
		<linearGradient id="SVGID_3_" gradientUnits="userSpaceOnUse" x1="-66.8754" y1="558.335" x2="-66.8754" y2="616.298" gradientTransform="matrix(8 0 0 -8 651.0026 4941)">
		<stop  offset="0" style="stop-color:#006DF0"/>
		<stop  offset="1" style="stop-color:#00E7F0"/>
	</linearGradient>
	<path style="fill:url(#SVGID_3_);" d="M108,176h16v32h-16V176z"/>
	
		<linearGradient id="SVGID_4_" gradientUnits="userSpaceOnUse" x1="-62.8754" y1="558.335" x2="-62.8754" y2="616.298" gradientTransform="matrix(8 0 0 -8 651.0026 4941)">
		<stop  offset="0" style="stop-color:#006DF0"/>
		<stop  offset="1" style="stop-color:#00E7F0"/>
	</linearGradient>
	<path style="fill:url(#SVGID_4_);" d="M140,176h16v32h-16V176z"/>
	
		<linearGradient id="SVGID_5_" gradientUnits="userSpaceOnUse" x1="-58.8754" y1="558.335" x2="-58.8754" y2="616.298" gradientTransform="matrix(8 0 0 -8 651.0026 4941)">
		<stop  offset="0" style="stop-color:#006DF0"/>
		<stop  offset="1" style="stop-color:#00E7F0"/>
	</linearGradient>
	<path style="fill:url(#SVGID_5_);" d="M172,176h16v32h-16V176z"/>
	
		<linearGradient id="SVGID_6_" gradientUnits="userSpaceOnUse" x1="-54.8754" y1="558.335" x2="-54.8754" y2="616.298" gradientTransform="matrix(8 0 0 -8 651.0026 4941)">
		<stop  offset="0" style="stop-color:#006DF0"/>
		<stop  offset="1" style="stop-color:#00E7F0"/>
	</linearGradient>
	<path style="fill:url(#SVGID_6_);" d="M204,176h16v32h-16V176z"/>
	
		<linearGradient id="SVGID_7_" gradientUnits="userSpaceOnUse" x1="-50.8754" y1="558.335" x2="-50.8754" y2="616.298" gradientTransform="matrix(8 0 0 -8 651.0026 4941)">
		<stop  offset="0" style="stop-color:#006DF0"/>
		<stop  offset="1" style="stop-color:#00E7F0"/>
	</linearGradient>
	<path style="fill:url(#SVGID_7_);" d="M236,176h16v32h-16V176z"/>
	
		<linearGradient id="SVGID_8_" gradientUnits="userSpaceOnUse" x1="-46.8754" y1="558.335" x2="-46.8754" y2="616.298" gradientTransform="matrix(8 0 0 -8 651.0026 4941)">
		<stop  offset="0" style="stop-color:#006DF0"/>
		<stop  offset="1" style="stop-color:#00E7F0"/>
	</linearGradient>
	<path style="fill:url(#SVGID_8_);" d="M268,176h16v32h-16V176z"/>
	
		<linearGradient id="SVGID_9_" gradientUnits="userSpaceOnUse" x1="-42.8754" y1="558.335" x2="-42.8754" y2="616.298" gradientTransform="matrix(8 0 0 -8 651.0026 4941)">
		<stop  offset="0" style="stop-color:#006DF0"/>
		<stop  offset="1" style="stop-color:#00E7F0"/>
	</linearGradient>
	<path style="fill:url(#SVGID_9_);" d="M300,176h16v32h-16V176z"/>
	
		<linearGradient id="SVGID_10_" gradientUnits="userSpaceOnUse" x1="-51.3753" y1="558.335" x2="-51.3753" y2="616.298" gradientTransform="matrix(8 0 0 -8 651.0026 4941)">
		<stop  offset="0" style="stop-color:#006DF0"/>
		<stop  offset="1" style="stop-color:#00E7F0"/>
	</linearGradient>
	<path style="fill:url(#SVGID_10_);" d="M368.8,321.696c-11.378-8.635-24.711-14.331-38.816-16.584l17.76-71.2
		c0.015-0.266,0.015-0.534,0-0.8c0.114-0.363,0.2-0.735,0.256-1.112v-80c0-4.418-3.582-8-8-8h-24V8c0-4.418-3.582-8-8-8H116
		c-4.418,0-8,3.582-8,8v136H84c-4.418,0-8,3.582-8,8v80c0.046,0.373,0.121,0.742,0.224,1.104c-0.015,0.266-0.015,0.534,0,0.8l48,192
		c0.878,3.581,4.089,6.099,7.776,6.096h56v48h16v-48h16v48h16v-48h1.664c22.143,43.264,75.165,60.386,118.429,38.243
		C385.469,455.208,403.965,425.001,404,392C404.114,364.301,391.046,338.199,368.8,321.696L368.8,321.696z M124,16h176v128H124
		L124,16z M92,160h240v64H92L92,160z M138.248,416l-44-176H329.76l-16,64.112c-48.585,1.237-86.969,41.625-85.732,90.211
		c0.131,5.133,0.71,10.245,1.732,15.277c0.448,2.176,1.008,4.296,1.6,6.4H138.248z M316,464c-39.764,0-72-32.236-72-72
		s32.236-72,72-72c39.724,0.097,71.903,32.276,72,72C387.956,431.746,355.746,463.956,316,464z"/>
	
		<linearGradient id="SVGID_11_" gradientUnits="userSpaceOnUse" x1="-41.7484" y1="558.335" x2="-41.7484" y2="616.298" gradientTransform="matrix(8 0 0 -8 651.0026 4941)">
		<stop  offset="0" style="stop-color:#006DF0"/>
		<stop  offset="1" style="stop-color:#00E7F0"/>
	</linearGradient>
	<path style="fill:url(#SVGID_11_);" d="M365.536,358.464c-3.124-3.123-8.188-3.123-11.312,0L300,412.688l-20.288-20.28
		c-3.178-3.07-8.242-2.982-11.312,0.196c-2.995,3.1-2.995,8.016,0,11.116l25.944,25.936c3.124,3.123,8.188,3.123,11.312,0
		l59.88-59.88C368.659,366.652,368.659,361.588,365.536,358.464z"/>
</g>
<g>
</g>
<g>
</g>
<g>
</g>
<g>
</g>
<g>
</g>
<g>
</g>
<g>
</g>
<g>
</g>
<g>
</g>
<g>
</g>
<g>
</g>
<g>
</g>
<g>
</g>
<g>
</g>
<g>
</g>
</svg>
