<?xml version="1.0" encoding="iso-8859-1"?>
<!-- Generator: Adobe Illustrator 19.0.0, SVG Export Plug-In . SVG Version: 6.00 Build 0)  -->
<svg version="1.1" id="Capa_1" xmlns="http://www.w3.org/2000/svg" xmlns:xlink="http://www.w3.org/1999/xlink" x="0px" y="0px"
	 viewBox="0 0 472 472" style="enable-background:new 0 0 472 472;" xml:space="preserve">
<linearGradient id="SVGID_1_" gradientUnits="userSpaceOnUse" x1="-30.8613" y1="558.678" x2="-30.8613" y2="618.478" gradientTransform="matrix(8 0 0 -8 482.9041 4941)">
	<stop  offset="0" style="stop-color:#006DF0"/>
	<stop  offset="1" style="stop-color:#00E7F0"/>
</linearGradient>
<path style="fill:url(#SVGID_1_);" d="M228.014,416h16v32h-16V416z"/>
<g>
	
		<linearGradient id="SVGID_2_" gradientUnits="userSpaceOnUse" x1="-26.8613" y1="558.678" x2="-26.8613" y2="618.478" gradientTransform="matrix(8 0 0 -8 482.9041 4941)">
		<stop  offset="0" style="stop-color:#006DF0"/>
		<stop  offset="1" style="stop-color:#00E7F0"/>
	</linearGradient>
	<path style="fill:url(#SVGID_2_);" d="M260.014,416h16v32h-16V416z"/>
	
		<linearGradient id="SVGID_3_" gradientUnits="userSpaceOnUse" x1="-22.8613" y1="558.678" x2="-22.8613" y2="618.478" gradientTransform="matrix(8 0 0 -8 482.9041 4941)">
		<stop  offset="0" style="stop-color:#006DF0"/>
		<stop  offset="1" style="stop-color:#00E7F0"/>
	</linearGradient>
	<path style="fill:url(#SVGID_3_);" d="M292.014,416h16v32h-16V416z"/>
	
		<linearGradient id="SVGID_4_" gradientUnits="userSpaceOnUse" x1="-18.8613" y1="558.678" x2="-18.8613" y2="618.478" gradientTransform="matrix(8 0 0 -8 482.9041 4941)">
		<stop  offset="0" style="stop-color:#006DF0"/>
		<stop  offset="1" style="stop-color:#00E7F0"/>
	</linearGradient>
	<path style="fill:url(#SVGID_4_);" d="M324.014,416h16v32h-16V416z"/>
	
		<linearGradient id="SVGID_5_" gradientUnits="userSpaceOnUse" x1="-14.8613" y1="558.678" x2="-14.8613" y2="618.478" gradientTransform="matrix(8 0 0 -8 482.9041 4941)">
		<stop  offset="0" style="stop-color:#006DF0"/>
		<stop  offset="1" style="stop-color:#00E7F0"/>
	</linearGradient>
	<path style="fill:url(#SVGID_5_);" d="M356.014,416h16v32h-16V416z"/>
	
		<linearGradient id="SVGID_6_" gradientUnits="userSpaceOnUse" x1="-10.8613" y1="558.678" x2="-10.8613" y2="618.478" gradientTransform="matrix(8 0 0 -8 482.9041 4941)">
		<stop  offset="0" style="stop-color:#006DF0"/>
		<stop  offset="1" style="stop-color:#00E7F0"/>
	</linearGradient>
	<path style="fill:url(#SVGID_6_);" d="M388.014,416h16v32h-16V416z"/>
	
		<linearGradient id="SVGID_7_" gradientUnits="userSpaceOnUse" x1="-42.8613" y1="558.678" x2="-42.8613" y2="618.478" gradientTransform="matrix(8 0 0 -8 482.9041 4941)">
		<stop  offset="0" style="stop-color:#006DF0"/>
		<stop  offset="1" style="stop-color:#00E7F0"/>
	</linearGradient>
	<path style="fill:url(#SVGID_7_);" d="M132.014,416h16v32h-16V416z"/>
	
		<linearGradient id="SVGID_8_" gradientUnits="userSpaceOnUse" x1="-38.8613" y1="558.678" x2="-38.8613" y2="618.478" gradientTransform="matrix(8 0 0 -8 482.9041 4941)">
		<stop  offset="0" style="stop-color:#006DF0"/>
		<stop  offset="1" style="stop-color:#00E7F0"/>
	</linearGradient>
	<path style="fill:url(#SVGID_8_);" d="M164.014,416h16v32h-16V416z"/>
	
		<linearGradient id="SVGID_9_" gradientUnits="userSpaceOnUse" x1="-34.8613" y1="558.678" x2="-34.8613" y2="618.478" gradientTransform="matrix(8 0 0 -8 482.9041 4941)">
		<stop  offset="0" style="stop-color:#006DF0"/>
		<stop  offset="1" style="stop-color:#00E7F0"/>
	</linearGradient>
	<path style="fill:url(#SVGID_9_);" d="M196.014,416h16v32h-16V416z"/>
	
		<linearGradient id="SVGID_10_" gradientUnits="userSpaceOnUse" x1="-50.8613" y1="558.678" x2="-50.8613" y2="618.478" gradientTransform="matrix(8 0 0 -8 482.9041 4941)">
		<stop  offset="0" style="stop-color:#006DF0"/>
		<stop  offset="1" style="stop-color:#00E7F0"/>
	</linearGradient>
	<path style="fill:url(#SVGID_10_);" d="M68.014,416h16v32h-16V416z"/>
	
		<linearGradient id="SVGID_11_" gradientUnits="userSpaceOnUse" x1="-46.8613" y1="558.678" x2="-46.8613" y2="618.478" gradientTransform="matrix(8 0 0 -8 482.9041 4941)">
		<stop  offset="0" style="stop-color:#006DF0"/>
		<stop  offset="1" style="stop-color:#00E7F0"/>
	</linearGradient>
	<path style="fill:url(#SVGID_11_);" d="M100.014,416h16v32h-16V416z"/>
</g>
<linearGradient id="SVGID_12_" gradientUnits="userSpaceOnUse" x1="-30.8614" y1="558.678" x2="-30.8614" y2="618.478" gradientTransform="matrix(8 0 0 -8 482.9041 4941)">
	<stop  offset="0" style="stop-color:#006DF0"/>
	<stop  offset="1" style="stop-color:#00E7F0"/>
</linearGradient>
<path style="fill:url(#SVGID_12_);" d="M352.902,136H119.126c-3.914-0.002-7.254,2.827-7.896,6.688l-37.336,224
	c-0.725,4.358,2.221,8.479,6.58,9.204c0.435,0.072,0.875,0.109,1.316,0.108h308.448c4.418,0.002,8.002-3.577,8.004-7.996
	c0-0.441-0.036-0.881-0.108-1.316l-37.336-224C360.156,138.827,356.815,135.998,352.902,136L352.902,136z M125.894,152h220.24
	l26.632,159.824H99.262L125.894,152z M91.214,360l5.368-32.176H375.43L380.814,360H91.214z"/>
<linearGradient id="SVGID_13_" gradientUnits="userSpaceOnUse" x1="-51.0341" y1="552.2961" x2="-19.0341" y2="612.0961" gradientTransform="matrix(8 0 0 -8 482.9041 4941)">
	<stop  offset="0" style="stop-color:#006DF0"/>
	<stop  offset="1" style="stop-color:#00E7F0"/>
</linearGradient>
<path style="fill:url(#SVGID_13_);" d="M450.998,4.096C449.583,1.566,446.912,0,444.014,0h-416
	c-4.418-0.001-8.001,3.579-8.002,7.998c0,1.481,0.41,2.933,1.186,4.194l62.4,101.448L36.126,398.688
	c-0.012,0.205-0.012,0.411,0,0.616c-0.05,0.23-0.087,0.462-0.112,0.696v64c0,4.418,3.582,8,8,8h384c4.418,0,8-3.582,8-8v-64
	c-0.036-0.234-0.084-0.467-0.144-0.696c0.012-0.205,0.012-0.411,0-0.616L388.398,113.6l62.4-101.448
	C452.311,9.699,452.387,6.621,450.998,4.096L450.998,4.096z M420.014,456h-368v-48h368V456z M53.462,392L98.79,120h274.448
	l45.328,272H53.462z M375.542,104H96.486L42.334,16h387.36L375.542,104z"/>
<linearGradient id="SVGID_14_" gradientUnits="userSpaceOnUse" x1="-30.8613" y1="558.678" x2="-30.8613" y2="618.478" gradientTransform="matrix(8 0 0 -8 482.9041 4941)">
	<stop  offset="0" style="stop-color:#006DF0"/>
	<stop  offset="1" style="stop-color:#00E7F0"/>
</linearGradient>
<path style="fill:url(#SVGID_14_);" d="M204.014,40h64c4.418,0,8-3.582,8-8s-3.582-8-8-8h-64c-4.418,0-8,3.582-8,8
	S199.595,40,204.014,40z"/>
<g>
</g>
<g>
</g>
<g>
</g>
<g>
</g>
<g>
</g>
<g>
</g>
<g>
</g>
<g>
</g>
<g>
</g>
<g>
</g>
<g>
</g>
<g>
</g>
<g>
</g>
<g>
</g>
<g>
</g>
</svg>
