<?xml version="1.0" encoding="iso-8859-1"?>
<!-- Generator: Adobe Illustrator 19.0.0, SVG Export Plug-In . SVG Version: 6.00 Build 0)  -->
<svg version="1.1" id="Capa_1" xmlns="http://www.w3.org/2000/svg" xmlns:xlink="http://www.w3.org/1999/xlink" x="0px" y="0px"
	 viewBox="0 0 480 480" style="enable-background:new 0 0 480 480;" xml:space="preserve">
<g>
	
		<linearGradient id="SVGID_1_" gradientUnits="userSpaceOnUse" x1="-50.875" y1="592.4785" x2="-50.875" y2="644.1564" gradientTransform="matrix(8 0 0 -8 454.9998 5188.603)">
		<stop  offset="0" style="stop-color:#006DF0"/>
		<stop  offset="1" style="stop-color:#00E7F0"/>
	</linearGradient>
	<path style="fill:url(#SVGID_1_);" d="M48,291.511c-13.255,0-24-10.745-24-24c0-13.255,10.745-24,24-24s24,10.745,24,24
		C72,280.766,61.255,291.511,48,291.511z M48,259.511c-4.418,0-8,3.582-8,8s3.582,8,8,8s8-3.582,8-8S52.418,259.511,48,259.511z"/>
	
		<linearGradient id="SVGID_2_" gradientUnits="userSpaceOnUse" x1="-50.875" y1="592.4785" x2="-50.875" y2="644.1564" gradientTransform="matrix(8 0 0 -8 454.9998 5188.603)">
		<stop  offset="0" style="stop-color:#006DF0"/>
		<stop  offset="1" style="stop-color:#00E7F0"/>
	</linearGradient>
	<path style="fill:url(#SVGID_2_);" d="M32,211.511h32v16H32V211.511z"/>
	
		<linearGradient id="SVGID_3_" gradientUnits="userSpaceOnUse" x1="-50.875" y1="592.4785" x2="-50.875" y2="644.1564" gradientTransform="matrix(8 0 0 -8 454.9998 5188.603)">
		<stop  offset="0" style="stop-color:#006DF0"/>
		<stop  offset="1" style="stop-color:#00E7F0"/>
	</linearGradient>
	<path style="fill:url(#SVGID_3_);" d="M32,179.511h32v16H32V179.511z"/>
	
		<linearGradient id="SVGID_4_" gradientUnits="userSpaceOnUse" x1="-50.875" y1="592.4785" x2="-50.875" y2="644.1564" gradientTransform="matrix(8 0 0 -8 454.9998 5188.603)">
		<stop  offset="0" style="stop-color:#006DF0"/>
		<stop  offset="1" style="stop-color:#00E7F0"/>
	</linearGradient>
	<path style="fill:url(#SVGID_4_);" d="M32,339.511h32v16H32V339.511z"/>
	
		<linearGradient id="SVGID_5_" gradientUnits="userSpaceOnUse" x1="-50.875" y1="592.4785" x2="-50.875" y2="644.1564" gradientTransform="matrix(8 0 0 -8 454.9998 5188.603)">
		<stop  offset="0" style="stop-color:#006DF0"/>
		<stop  offset="1" style="stop-color:#00E7F0"/>
	</linearGradient>
	<path style="fill:url(#SVGID_5_);" d="M32,307.511h32v16H32V307.511z"/>
</g>
<g>
	
		<linearGradient id="SVGID_6_" gradientUnits="userSpaceOnUse" x1="-26.875" y1="592.4785" x2="-26.875" y2="644.1564" gradientTransform="matrix(8 0 0 -8 454.9998 5188.603)">
		<stop  offset="0" style="stop-color:#006DF0"/>
		<stop  offset="1" style="stop-color:#00E7F0"/>
	</linearGradient>
	<path style="fill:url(#SVGID_6_);" d="M456,83.511h-16.664L449.6,64.255c6.093-11.372,2.073-25.528-9.088-32l-0.984-0.584
		c-11.201-6.413-25.467-2.844-32.328,8.088L380,83.511H24c-13.255,0-24,10.745-24,24v320c0,13.255,10.745,24,24,24h432
		c13.255,0,24-10.745,24-24v-320C480,94.257,469.255,83.511,456,83.511L456,83.511z M420.8,48.183
		c2.267-3.602,6.975-4.771,10.664-2.648l1.04,0.608c3.674,2.123,5.005,6.776,3.008,10.52L329.744,254.951
		c-0.168,0.306-0.313,0.624-0.432,0.952l-13.792,36.728l-39.032-22.536l24.896-30.304c0.221-0.269,0.424-0.553,0.608-0.848
		L420.8,48.183z M302.736,303.759l-27.528,13.6l-1.976-30.648L302.736,303.759z M258.488,266.807
		c-0.096,0.096-0.168,0.2-0.248,0.296l-0.104,0.128l-0.04,0.08c-0.698,0.867-1.208,1.869-1.496,2.944v0.064
		c-0.224,0.809-0.315,1.649-0.272,2.488l3.712,57.6c0.285,4.409,4.09,7.752,8.499,7.467c1.053-0.068,2.083-0.344,3.029-0.811
		l51.712-25.6c0.723-0.363,1.385-0.838,1.96-1.408c0.072-0.064,0.12-0.152,0.192-0.216c0.717-0.742,1.282-1.617,1.664-2.576
		c0-0.056,0.072-0.088,0.096-0.144l0.104-0.272l0.08-0.224l16.752-44.608l69.632-130.504H432v272H96v-272h254.064l-61.376,98.528
		L258.488,266.807z M464,427.511c0,4.418-3.582,8-8,8H24c-4.418,0-8-3.582-8-8v-320c0-4.418,3.582-8,8-8h345.992l-9.992,16H88
		c-4.418,0-8,3.582-8,8v288c0,4.418,3.582,8,8,8h352c4.418,0,8-3.582,8-8v-288c0-4.418-3.582-8-8-8h-17.728l8.536-16H456
		c4.418,0,8,3.582,8,8V427.511z"/>
	
		<linearGradient id="SVGID_7_" gradientUnits="userSpaceOnUse" x1="-16.8756" y1="592.4785" x2="-16.8756" y2="644.1564" gradientTransform="matrix(8 0 0 -8 454.9998 5188.603)">
		<stop  offset="0" style="stop-color:#006DF0"/>
		<stop  offset="1" style="stop-color:#00E7F0"/>
	</linearGradient>
	<path style="fill:url(#SVGID_7_);" d="M304,275.511c-4.418-0.005-7.996-3.59-7.992-8.008c0.001-1.402,0.371-2.778,1.072-3.992
		l32-55.424c2.235-3.811,7.136-5.089,10.948-2.854c3.775,2.214,5.071,7.05,2.908,10.854l-32,55.424
		C309.506,273.989,306.861,275.514,304,275.511L304,275.511z"/>
</g>
<g>
</g>
<g>
</g>
<g>
</g>
<g>
</g>
<g>
</g>
<g>
</g>
<g>
</g>
<g>
</g>
<g>
</g>
<g>
</g>
<g>
</g>
<g>
</g>
<g>
</g>
<g>
</g>
<g>
</g>
</svg>
