<?xml version="1.0" encoding="iso-8859-1"?>
<!-- Generator: Adobe Illustrator 19.0.0, SVG Export Plug-In . SVG Version: 6.00 Build 0)  -->
<svg version="1.1" id="Capa_1" xmlns="http://www.w3.org/2000/svg" xmlns:xlink="http://www.w3.org/1999/xlink" x="0px" y="0px"
	 viewBox="0 0 487.149 487.149" style="enable-background:new 0 0 487.149 487.149;" xml:space="preserve">
<linearGradient id="SVGID_1_" gradientUnits="userSpaceOnUse" x1="-24.1562" y1="563.7755" x2="-24.1562" y2="623.9365" gradientTransform="matrix(8 0 0 -8 317.9799 4978.9839)">
	<stop  offset="0" style="stop-color:#006DF0"/>
	<stop  offset="1" style="stop-color:#00E7F0"/>
</linearGradient>
<path style="fill:url(#SVGID_1_);" d="M113.462,406.332c-4.418-0.001-7.999-3.583-7.998-8.002c0-2.121,0.843-4.154,2.342-5.654
	l22.632-22.632c3.178-3.069,8.243-2.982,11.312,0.196c2.994,3.1,2.994,8.015,0,11.116l-22.632,22.632
	C117.618,405.489,115.584,406.332,113.462,406.332z"/>
<g>
	
		<linearGradient id="SVGID_2_" gradientUnits="userSpaceOnUse" x1="-19.6635" y1="563.7755" x2="-19.6635" y2="623.9365" gradientTransform="matrix(8 0 0 -8 317.9799 4978.9839)">
		<stop  offset="0" style="stop-color:#006DF0"/>
		<stop  offset="1" style="stop-color:#00E7F0"/>
	</linearGradient>
	<path style="fill:url(#SVGID_2_);" d="M156.51,431.172c-0.702,0-1.401-0.092-2.08-0.272c-4.268-1.144-6.8-5.53-5.656-9.798
		c0-0.001,0-0.001,0-0.002l8.288-30.904c1.029-4.297,5.347-6.946,9.643-5.917c4.297,1.029,6.946,5.347,5.917,9.643
		c-0.034,0.14-0.071,0.279-0.112,0.417l-8.28,30.904C163.293,428.739,160.128,431.169,156.51,431.172L156.51,431.172z"/>
	
		<linearGradient id="SVGID_3_" gradientUnits="userSpaceOnUse" x1="-14.4907" y1="563.7755" x2="-14.4907" y2="623.9365" gradientTransform="matrix(8 0 0 -8 317.9799 4978.9839)">
		<stop  offset="0" style="stop-color:#006DF0"/>
		<stop  offset="1" style="stop-color:#00E7F0"/>
	</linearGradient>
	<path style="fill:url(#SVGID_3_);" d="M206.19,431.172c-3.618-0.003-6.783-2.434-7.72-5.928l-8.288-30.904
		c-1.144-4.268,1.388-8.656,5.656-9.8c4.268-1.144,8.656,1.388,9.8,5.656l8.288,30.904c1.145,4.267-1.387,8.655-5.654,9.799
		c-0.001,0-0.001,0-0.002,0C207.592,431.081,206.892,431.172,206.19,431.172L206.19,431.172z"/>
	
		<linearGradient id="SVGID_4_" gradientUnits="userSpaceOnUse" x1="-9.3007" y1="563.7755" x2="-9.3007" y2="623.9365" gradientTransform="matrix(8 0 0 -8 317.9799 4978.9839)">
		<stop  offset="0" style="stop-color:#006DF0"/>
		<stop  offset="1" style="stop-color:#00E7F0"/>
	</linearGradient>
	<path style="fill:url(#SVGID_4_);" d="M418.654,104.452l0.28-0.28c15.594-15.632,15.594-40.936,0-56.568l-5.656-5.656
		c-6.246-6.248-6.246-16.376,0-22.624l5.656-5.664c3.124-3.128,3.12-8.196-0.008-11.32s-8.196-3.12-11.32,0.008l0,0l-5.648,5.664
		c-12.492,12.496-12.492,32.752,0,45.248l5.656,5.656c9.373,9.372,9.375,24.568,0.003,33.941c-0.001,0.001-0.002,0.002-0.003,0.003
		l-0.28,0.28c-66.222-60.464-168.303-58.095-231.648,5.376L73.87,200.34c-65.611,65.611-65.611,171.989,0,237.6
		s171.989,65.611,237.6,0l0,0L413.278,336.1C476.749,272.755,479.118,170.674,418.654,104.452z M300.142,426.62
		c-59.362,59.362-155.606,59.362-214.968,0s-59.362-155.606,0-214.968l84.864-84.856l90.504,90.504l-5.664,5.664
		c-9.373,9.376-9.372,24.575,0.004,33.948c9.376,9.373,24.575,9.372,33.948-0.004l5.656-5.656l90.512,90.504L300.142,426.62z
		 M277.518,245.588c-3.124,3.126-8.19,3.128-11.316,0.004c-3.126-3.124-3.128-8.19-0.004-11.316l79.2-79.2
		c3.124-3.123,8.188-3.123,11.312,0c1.533,1.527,2.364,3.621,2.296,5.784c0.023,2.086-0.806,4.091-2.296,5.552L277.518,245.588z
		 M401.966,324.788l-5.656,5.656l-90.512-90.504l62.232-62.224c9.297-9.408,9.297-24.544,0-33.952
		c-9.388-9.345-24.564-9.345-33.952,0l-62.224,62.224l-90.504-90.504l5.656-5.656c59.36-59.362,155.602-59.364,214.964-0.004
		s59.364,155.602,0.004,214.964l0,0L401.966,324.788z"/>
</g>
<g>
	
		<linearGradient id="SVGID_5_" gradientUnits="userSpaceOnUse" x1="-26.7256" y1="563.7755" x2="-26.7246" y2="623.9365" gradientTransform="matrix(8 0 0 -8 317.9799 4978.9839)">
		<stop  offset="0" style="stop-color:#006DF0"/>
		<stop  offset="1" style="stop-color:#00E7F0"/>
	</linearGradient>
	<path style="fill:url(#SVGID_5_);" d="M117.454,339.284l-30.904,8.28c-4.268,1.142-6.802,5.528-5.66,9.796
		c0.936,3.497,4.104,5.93,7.724,5.932c0.702,0,1.401-0.092,2.08-0.272l30.904-8.288c4.297-1.029,6.946-5.347,5.917-9.643
		c-1.029-4.297-5.347-6.946-9.643-5.917C117.732,339.206,117.592,339.243,117.454,339.284z"/>
	
		<linearGradient id="SVGID_6_" gradientUnits="userSpaceOnUse" x1="-26.7385" y1="563.7755" x2="-26.7375" y2="623.9365" gradientTransform="matrix(8 0 0 -8 317.9799 4978.9839)">
		<stop  offset="0" style="stop-color:#006DF0"/>
		<stop  offset="1" style="stop-color:#00E7F0"/>
	</linearGradient>
	<path style="fill:url(#SVGID_6_);" d="M121.598,306.156l-30.904-8.288c-4.268-1.144-8.656,1.388-9.8,5.656
		c-1.144,4.268,1.388,8.656,5.656,9.8l30.904,8.288c0.679,0.18,1.378,0.272,2.08,0.272c4.418-0.002,7.998-3.586,7.996-8.004
		C127.528,310.26,125.095,307.092,121.598,306.156z"/>
</g>
<g>
</g>
<g>
</g>
<g>
</g>
<g>
</g>
<g>
</g>
<g>
</g>
<g>
</g>
<g>
</g>
<g>
</g>
<g>
</g>
<g>
</g>
<g>
</g>
<g>
</g>
<g>
</g>
<g>
</g>
</svg>
