<?xml version="1.0" encoding="iso-8859-1"?>
<!-- Generator: Adobe Illustrator 19.0.0, SVG Export Plug-In . SVG Version: 6.00 Build 0)  -->
<svg version="1.1" id="Capa_1" xmlns="http://www.w3.org/2000/svg" xmlns:xlink="http://www.w3.org/1999/xlink" x="0px" y="0px"
	 viewBox="0 0 480 480" style="enable-background:new 0 0 480 480;" xml:space="preserve">
<linearGradient id="SVGID_1_" gradientUnits="userSpaceOnUse" x1="-26.875" y1="553.816" x2="-26.875" y2="614.089" gradientTransform="matrix(8 0 0 -8 455 4905)">
	<stop  offset="0" style="stop-color:#006DF0"/>
	<stop  offset="1" style="stop-color:#00E7F0"/>
</linearGradient>
<path style="fill:url(#SVGID_1_);" d="M472,28h-64V12c0-4.418-3.582-8-8-8h-96c-4.418,0-8,3.582-8,8v16h-16v-8c0-4.418-3.582-8-8-8
	h-32c-4.418,0-8,3.582-8,8v8h-16V12c0-4.418-3.582-8-8-8h-64c-4.418,0-8,3.582-8,8v16H8c-4.418,0-8,3.582-8,8v432
	c0,4.418,3.582,8,8,8h464c4.418,0,8-3.582,8-8V36C480,31.582,476.418,28,472,28z M312,20h80v32h-80V20z M248,28h16v16h-16V28z
	 M152,20h48v32h-48V20z M464,460H16V44h120v16c0,4.418,3.582,8,8,8h64c4.418,0,8-3.582,8-8V44h16v8c0,4.418,3.582,8,8,8h32
	c4.418,0,8-3.582,8-8v-8h16v16c0,4.418,3.582,8,8,8h96c4.418,0,8-3.582,8-8V44h56V460z"/>
<g>
	
		<linearGradient id="SVGID_2_" gradientUnits="userSpaceOnUse" x1="-50.875" y1="553.816" x2="-50.875" y2="614.089" gradientTransform="matrix(8 0 0 -8 455 4905)">
		<stop  offset="0" style="stop-color:#006DF0"/>
		<stop  offset="1" style="stop-color:#00E7F0"/>
	</linearGradient>
	<circle style="fill:url(#SVGID_2_);" cx="48" cy="76" r="16"/>
	
		<linearGradient id="SVGID_3_" gradientUnits="userSpaceOnUse" x1="-50.875" y1="553.816" x2="-50.875" y2="614.089" gradientTransform="matrix(8 0 0 -8 455 4905)">
		<stop  offset="0" style="stop-color:#006DF0"/>
		<stop  offset="1" style="stop-color:#00E7F0"/>
	</linearGradient>
	<circle style="fill:url(#SVGID_3_);" cx="48" cy="428" r="16"/>
	
		<linearGradient id="SVGID_4_" gradientUnits="userSpaceOnUse" x1="-2.875" y1="553.816" x2="-2.875" y2="614.089" gradientTransform="matrix(8 0 0 -8 455 4905)">
		<stop  offset="0" style="stop-color:#006DF0"/>
		<stop  offset="1" style="stop-color:#00E7F0"/>
	</linearGradient>
	<circle style="fill:url(#SVGID_4_);" cx="432" cy="428" r="16"/>
	
		<linearGradient id="SVGID_5_" gradientUnits="userSpaceOnUse" x1="-2.875" y1="553.816" x2="-2.875" y2="614.089" gradientTransform="matrix(8 0 0 -8 455 4905)">
		<stop  offset="0" style="stop-color:#006DF0"/>
		<stop  offset="1" style="stop-color:#00E7F0"/>
	</linearGradient>
	<circle style="fill:url(#SVGID_5_);" cx="432" cy="76" r="16"/>
	
		<linearGradient id="SVGID_6_" gradientUnits="userSpaceOnUse" x1="-11.875" y1="553.816" x2="-11.875" y2="614.089" gradientTransform="matrix(8 0 0 -8 455 4905)">
		<stop  offset="0" style="stop-color:#006DF0"/>
		<stop  offset="1" style="stop-color:#00E7F0"/>
	</linearGradient>
	<path style="fill:url(#SVGID_6_);" d="M424,116H296v128h128V116z M408,228h-96v-96h96V228z"/>
	
		<linearGradient id="SVGID_7_" gradientUnits="userSpaceOnUse" x1="-11.875" y1="553.816" x2="-11.875" y2="614.089" gradientTransform="matrix(8 0 0 -8 455 4905)">
		<stop  offset="0" style="stop-color:#006DF0"/>
		<stop  offset="1" style="stop-color:#00E7F0"/>
	</linearGradient>
	<path style="fill:url(#SVGID_7_);" d="M400,140h-80v80h80V140z M384,204h-48v-48h48V204z"/>
	
		<linearGradient id="SVGID_8_" gradientUnits="userSpaceOnUse" x1="-25.875" y1="553.816" x2="-25.875" y2="614.089" gradientTransform="matrix(8 0 0 -8 455 4905)">
		<stop  offset="0" style="stop-color:#006DF0"/>
		<stop  offset="1" style="stop-color:#00E7F0"/>
	</linearGradient>
	<path style="fill:url(#SVGID_8_);" d="M232,124h32v16h-32V124z"/>
	
		<linearGradient id="SVGID_9_" gradientUnits="userSpaceOnUse" x1="-25.875" y1="553.816" x2="-25.875" y2="614.089" gradientTransform="matrix(8 0 0 -8 455 4905)">
		<stop  offset="0" style="stop-color:#006DF0"/>
		<stop  offset="1" style="stop-color:#00E7F0"/>
	</linearGradient>
	<path style="fill:url(#SVGID_9_);" d="M232,156h32v16h-32V156z"/>
	
		<linearGradient id="SVGID_10_" gradientUnits="userSpaceOnUse" x1="-25.875" y1="553.816" x2="-25.875" y2="614.089" gradientTransform="matrix(8 0 0 -8 455 4905)">
		<stop  offset="0" style="stop-color:#006DF0"/>
		<stop  offset="1" style="stop-color:#00E7F0"/>
	</linearGradient>
	<path style="fill:url(#SVGID_10_);" d="M232,188h32v16h-32V188z"/>
	
		<linearGradient id="SVGID_11_" gradientUnits="userSpaceOnUse" x1="-25.875" y1="553.816" x2="-25.875" y2="614.089" gradientTransform="matrix(8 0 0 -8 455 4905)">
		<stop  offset="0" style="stop-color:#006DF0"/>
		<stop  offset="1" style="stop-color:#00E7F0"/>
	</linearGradient>
	<path style="fill:url(#SVGID_11_);" d="M232,220h32v16h-32V220z"/>
	
		<linearGradient id="SVGID_12_" gradientUnits="userSpaceOnUse" x1="-31.875" y1="553.816" x2="-31.875" y2="614.089" gradientTransform="matrix(8 0 0 -8 455 4905)">
		<stop  offset="0" style="stop-color:#006DF0"/>
		<stop  offset="1" style="stop-color:#00E7F0"/>
	</linearGradient>
	<path style="fill:url(#SVGID_12_);" d="M184,124h32v16h-32V124z"/>
	
		<linearGradient id="SVGID_13_" gradientUnits="userSpaceOnUse" x1="-31.875" y1="553.816" x2="-31.875" y2="614.089" gradientTransform="matrix(8 0 0 -8 455 4905)">
		<stop  offset="0" style="stop-color:#006DF0"/>
		<stop  offset="1" style="stop-color:#00E7F0"/>
	</linearGradient>
	<path style="fill:url(#SVGID_13_);" d="M184,156h32v16h-32V156z"/>
	
		<linearGradient id="SVGID_14_" gradientUnits="userSpaceOnUse" x1="-31.875" y1="553.816" x2="-31.875" y2="614.089" gradientTransform="matrix(8 0 0 -8 455 4905)">
		<stop  offset="0" style="stop-color:#006DF0"/>
		<stop  offset="1" style="stop-color:#00E7F0"/>
	</linearGradient>
	<path style="fill:url(#SVGID_14_);" d="M184,188h32v16h-32V188z"/>
	
		<linearGradient id="SVGID_15_" gradientUnits="userSpaceOnUse" x1="-31.875" y1="553.816" x2="-31.875" y2="614.089" gradientTransform="matrix(8 0 0 -8 455 4905)">
		<stop  offset="0" style="stop-color:#006DF0"/>
		<stop  offset="1" style="stop-color:#00E7F0"/>
	</linearGradient>
	<path style="fill:url(#SVGID_15_);" d="M184,220h32v16h-32V220z"/>
	
		<linearGradient id="SVGID_16_" gradientUnits="userSpaceOnUse" x1="-41.875" y1="553.816" x2="-41.875" y2="614.089" gradientTransform="matrix(8 0 0 -8 455 4905)">
		<stop  offset="0" style="stop-color:#006DF0"/>
		<stop  offset="1" style="stop-color:#00E7F0"/>
	</linearGradient>
	<path style="fill:url(#SVGID_16_);" d="M88,292h64V116H88V292z M104,132h32v144h-8V148h-16v128h-8V132z"/>
	
		<linearGradient id="SVGID_17_" gradientUnits="userSpaceOnUse" x1="-41.875" y1="553.816" x2="-41.875" y2="614.089" gradientTransform="matrix(8 0 0 -8 455 4905)">
		<stop  offset="0" style="stop-color:#006DF0"/>
		<stop  offset="1" style="stop-color:#00E7F0"/>
	</linearGradient>
	<path style="fill:url(#SVGID_17_);" d="M120,340c-17.673,0-32,14.327-32,32s14.327,32,32,32s32-14.327,32-32S137.673,340,120,340z
		 M120,388c-8.837,0-16-7.163-16-16s7.163-16,16-16s16,7.163,16,16S128.837,388,120,388z"/>
	
		<linearGradient id="SVGID_18_" gradientUnits="userSpaceOnUse" x1="-12.875" y1="553.816" x2="-12.875" y2="614.089" gradientTransform="matrix(8 0 0 -8 455 4905)">
		<stop  offset="0" style="stop-color:#006DF0"/>
		<stop  offset="1" style="stop-color:#00E7F0"/>
	</linearGradient>
	<path style="fill:url(#SVGID_18_);" d="M272,356h160v16H272V356z"/>
	
		<linearGradient id="SVGID_19_" gradientUnits="userSpaceOnUse" x1="-24.875" y1="553.816" x2="-24.875" y2="614.089" gradientTransform="matrix(8 0 0 -8 455 4905)">
		<stop  offset="0" style="stop-color:#006DF0"/>
		<stop  offset="1" style="stop-color:#00E7F0"/>
	</linearGradient>
	<path style="fill:url(#SVGID_19_);" d="M176,380h160v16H176V380z"/>
	
		<linearGradient id="SVGID_20_" gradientUnits="userSpaceOnUse" x1="-29.875" y1="553.816" x2="-29.875" y2="614.089" gradientTransform="matrix(8 0 0 -8 455 4905)">
		<stop  offset="0" style="stop-color:#006DF0"/>
		<stop  offset="1" style="stop-color:#00E7F0"/>
	</linearGradient>
	<path style="fill:url(#SVGID_20_);" d="M176,356h80v16h-80V356z"/>
	
		<linearGradient id="SVGID_21_" gradientUnits="userSpaceOnUse" x1="-7.875" y1="553.816" x2="-7.875" y2="614.089" gradientTransform="matrix(8 0 0 -8 455 4905)">
		<stop  offset="0" style="stop-color:#006DF0"/>
		<stop  offset="1" style="stop-color:#00E7F0"/>
	</linearGradient>
	<path style="fill:url(#SVGID_21_);" d="M352,380h80v16h-80V380z"/>
	
		<linearGradient id="SVGID_22_" gradientUnits="userSpaceOnUse" x1="-30.875" y1="553.816" x2="-30.875" y2="614.089" gradientTransform="matrix(8 0 0 -8 455 4905)">
		<stop  offset="0" style="stop-color:#006DF0"/>
		<stop  offset="1" style="stop-color:#00E7F0"/>
	</linearGradient>
	<path style="fill:url(#SVGID_22_);" d="M208,316c13.255,0,24-10.745,24-24s-10.745-24-24-24s-24,10.745-24,24S194.745,316,208,316z
		 M208,284c4.418,0,8,3.582,8,8s-3.582,8-8,8s-8-3.582-8-8S203.582,284,208,284z"/>
	
		<linearGradient id="SVGID_23_" gradientUnits="userSpaceOnUse" x1="-22.875" y1="553.816" x2="-22.875" y2="614.089" gradientTransform="matrix(8 0 0 -8 455 4905)">
		<stop  offset="0" style="stop-color:#006DF0"/>
		<stop  offset="1" style="stop-color:#00E7F0"/>
	</linearGradient>
	<path style="fill:url(#SVGID_23_);" d="M248,292c0,13.255,10.745,24,24,24s24-10.745,24-24s-10.745-24-24-24S248,278.745,248,292z
		 M272,284c4.418,0,8,3.582,8,8s-3.582,8-8,8s-8-3.582-8-8S267.582,284,272,284z"/>
	
		<linearGradient id="SVGID_24_" gradientUnits="userSpaceOnUse" x1="-48.875" y1="553.816" x2="-48.875" y2="614.089" gradientTransform="matrix(8 0 0 -8 455 4905)">
		<stop  offset="0" style="stop-color:#006DF0"/>
		<stop  offset="1" style="stop-color:#00E7F0"/>
	</linearGradient>
	<path style="fill:url(#SVGID_24_);" d="M56,148h16v112H56V148z"/>
	
		<linearGradient id="SVGID_25_" gradientUnits="userSpaceOnUse" x1="-15.875" y1="553.816" x2="-15.875" y2="614.089" gradientTransform="matrix(8 0 0 -8 455 4905)">
		<stop  offset="0" style="stop-color:#006DF0"/>
		<stop  offset="1" style="stop-color:#00E7F0"/>
	</linearGradient>
	<path style="fill:url(#SVGID_25_);" d="M320,276h16v16h-16V276z"/>
	
		<linearGradient id="SVGID_26_" gradientUnits="userSpaceOnUse" x1="-15.875" y1="553.816" x2="-15.875" y2="614.089" gradientTransform="matrix(8 0 0 -8 455 4905)">
		<stop  offset="0" style="stop-color:#006DF0"/>
		<stop  offset="1" style="stop-color:#00E7F0"/>
	</linearGradient>
	<path style="fill:url(#SVGID_26_);" d="M320,300h16v16h-16V300z"/>
	
		<linearGradient id="SVGID_27_" gradientUnits="userSpaceOnUse" x1="-12.875" y1="553.816" x2="-12.875" y2="614.089" gradientTransform="matrix(8 0 0 -8 455 4905)">
		<stop  offset="0" style="stop-color:#006DF0"/>
		<stop  offset="1" style="stop-color:#00E7F0"/>
	</linearGradient>
	<path style="fill:url(#SVGID_27_);" d="M344,276h16v16h-16V276z"/>
	
		<linearGradient id="SVGID_28_" gradientUnits="userSpaceOnUse" x1="-12.875" y1="553.816" x2="-12.875" y2="614.089" gradientTransform="matrix(8 0 0 -8 455 4905)">
		<stop  offset="0" style="stop-color:#006DF0"/>
		<stop  offset="1" style="stop-color:#00E7F0"/>
	</linearGradient>
	<path style="fill:url(#SVGID_28_);" d="M344,300h16v16h-16V300z"/>
	
		<linearGradient id="SVGID_29_" gradientUnits="userSpaceOnUse" x1="-9.875" y1="553.816" x2="-9.875" y2="614.089" gradientTransform="matrix(8 0 0 -8 455 4905)">
		<stop  offset="0" style="stop-color:#006DF0"/>
		<stop  offset="1" style="stop-color:#00E7F0"/>
	</linearGradient>
	<path style="fill:url(#SVGID_29_);" d="M368,276h16v16h-16V276z"/>
	
		<linearGradient id="SVGID_30_" gradientUnits="userSpaceOnUse" x1="-9.875" y1="553.816" x2="-9.875" y2="614.089" gradientTransform="matrix(8 0 0 -8 455 4905)">
		<stop  offset="0" style="stop-color:#006DF0"/>
		<stop  offset="1" style="stop-color:#00E7F0"/>
	</linearGradient>
	<path style="fill:url(#SVGID_30_);" d="M368,300h16v16h-16V300z"/>
	
		<linearGradient id="SVGID_31_" gradientUnits="userSpaceOnUse" x1="-6.875" y1="553.816" x2="-6.875" y2="614.089" gradientTransform="matrix(8 0 0 -8 455 4905)">
		<stop  offset="0" style="stop-color:#006DF0"/>
		<stop  offset="1" style="stop-color:#00E7F0"/>
	</linearGradient>
	<path style="fill:url(#SVGID_31_);" d="M392,276h16v16h-16V276z"/>
	
		<linearGradient id="SVGID_32_" gradientUnits="userSpaceOnUse" x1="-6.875" y1="553.816" x2="-6.875" y2="614.089" gradientTransform="matrix(8 0 0 -8 455 4905)">
		<stop  offset="0" style="stop-color:#006DF0"/>
		<stop  offset="1" style="stop-color:#00E7F0"/>
	</linearGradient>
	<path style="fill:url(#SVGID_32_);" d="M392,300h16v16h-16V300z"/>
	
		<linearGradient id="SVGID_33_" gradientUnits="userSpaceOnUse" x1="-48.875" y1="553.816" x2="-48.875" y2="614.089" gradientTransform="matrix(8 0 0 -8 455 4905)">
		<stop  offset="0" style="stop-color:#006DF0"/>
		<stop  offset="1" style="stop-color:#00E7F0"/>
	</linearGradient>
	<path style="fill:url(#SVGID_33_);" d="M56,116h16v16H56V116z"/>
	
		<linearGradient id="SVGID_34_" gradientUnits="userSpaceOnUse" x1="-48.875" y1="553.816" x2="-48.875" y2="614.089" gradientTransform="matrix(8 0 0 -8 455 4905)">
		<stop  offset="0" style="stop-color:#006DF0"/>
		<stop  offset="1" style="stop-color:#00E7F0"/>
	</linearGradient>
	<path style="fill:url(#SVGID_34_);" d="M56,276h16v16H56V276z"/>
</g>
<g>
</g>
<g>
</g>
<g>
</g>
<g>
</g>
<g>
</g>
<g>
</g>
<g>
</g>
<g>
</g>
<g>
</g>
<g>
</g>
<g>
</g>
<g>
</g>
<g>
</g>
<g>
</g>
<g>
</g>
</svg>
