<?xml version="1.0" encoding="iso-8859-1"?>
<!-- Generator: Adobe Illustrator 19.0.0, SVG Export Plug-In . SVG Version: 6.00 Build 0)  -->
<svg version="1.1" id="Capa_1" xmlns="http://www.w3.org/2000/svg" xmlns:xlink="http://www.w3.org/1999/xlink" x="0px" y="0px"
	 viewBox="0 0 480 480" style="enable-background:new 0 0 480 480;" xml:space="preserve">
<g>
	
		<linearGradient id="SVGID_1_" gradientUnits="userSpaceOnUse" x1="-26.875" y1="529.475" x2="-26.875" y2="582.979" gradientTransform="matrix(8 0 0 -8 455 4689)">
		<stop  offset="0" style="stop-color:#006DF0"/>
		<stop  offset="1" style="stop-color:#00E7F0"/>
	</linearGradient>
	<path style="fill:url(#SVGID_1_);" d="M456,28H24C10.745,28,0,38.745,0,52v288c0,13.255,10.745,24,24,24h172.584L170.4,436H144
		c-4.418,0-8,3.582-8,8s3.582,8,8,8h192c4.418,0,8-3.582,8-8s-3.582-8-8-8h-26.4l-26.184-72H456c13.255,0,24-10.745,24-24V52
		C480,38.745,469.255,28,456,28z M292.576,436H187.424l26.176-72h52.8L292.576,436z M456,348H24c-4.418,0-8-3.582-8-8v-24h184
		c4.418,0,8-3.582,8-8s-3.582-8-8-8H16V76h392c4.418,0,8-3.582,8-8s-3.582-8-8-8H16v-8c0-4.418,3.582-8,8-8h432c4.418,0,8,3.582,8,8
		v8h-24c-4.418,0-8,3.582-8,8s3.582,8,8,8h24v224H280c-4.418,0-8,3.582-8,8s3.582,8,8,8h184v24C464,344.418,460.418,348,456,348z"/>
	
		<linearGradient id="SVGID_2_" gradientUnits="userSpaceOnUse" x1="-26.875" y1="529.475" x2="-26.875" y2="582.979" gradientTransform="matrix(8 0 0 -8 455 4689)">
		<stop  offset="0" style="stop-color:#006DF0"/>
		<stop  offset="1" style="stop-color:#00E7F0"/>
	</linearGradient>
	<path style="fill:url(#SVGID_2_);" d="M248,300h-16c-4.418,0-8,3.582-8,8s3.582,8,8,8h16c4.418,0,8-3.582,8-8S252.418,300,248,300z
		"/>
</g>
<g>
</g>
<g>
</g>
<g>
</g>
<g>
</g>
<g>
</g>
<g>
</g>
<g>
</g>
<g>
</g>
<g>
</g>
<g>
</g>
<g>
</g>
<g>
</g>
<g>
</g>
<g>
</g>
<g>
</g>
</svg>
