<?xml version="1.0" encoding="iso-8859-1"?>
<!-- Generator: Adobe Illustrator 19.0.0, SVG Export Plug-In . SVG Version: 6.00 Build 0)  -->
<svg version="1.1" id="Capa_1" xmlns="http://www.w3.org/2000/svg" xmlns:xlink="http://www.w3.org/1999/xlink" x="0px" y="0px"
	 viewBox="0 0 480 480" style="enable-background:new 0 0 480 480;" xml:space="preserve">
<linearGradient id="SVGID_1_" gradientUnits="userSpaceOnUse" x1="-32.875" y1="569.235" x2="-32.875" y2="607.413" gradientTransform="matrix(8 0 0 -8 455 4941)">
	<stop  offset="0" style="stop-color:#006DF0"/>
	<stop  offset="1" style="stop-color:#00E7F0"/>
</linearGradient>
<path style="fill:url(#SVGID_1_);" d="M232,280h-80V136h80V280z M168,264h48V152h-48V264z"/>
<g>
	
		<linearGradient id="SVGID_2_" gradientUnits="userSpaceOnUse" x1="-20.875" y1="569.235" x2="-20.875" y2="607.413" gradientTransform="matrix(8 0 0 -8 455 4941)">
		<stop  offset="0" style="stop-color:#006DF0"/>
		<stop  offset="1" style="stop-color:#00E7F0"/>
	</linearGradient>
	<path style="fill:url(#SVGID_2_);" d="M328,280h-80V136h80V280z M264,264h48V152h-48V264z"/>
	
		<linearGradient id="SVGID_3_" gradientUnits="userSpaceOnUse" x1="-44.875" y1="569.235" x2="-44.875" y2="607.413" gradientTransform="matrix(8 0 0 -8 455 4941)">
		<stop  offset="0" style="stop-color:#006DF0"/>
		<stop  offset="1" style="stop-color:#00E7F0"/>
	</linearGradient>
	<path style="fill:url(#SVGID_3_);" d="M136,280H56V136h80V280z M72,264h48V152H72V264z"/>
	
		<linearGradient id="SVGID_4_" gradientUnits="userSpaceOnUse" x1="-8.875" y1="569.235" x2="-8.875" y2="607.413" gradientTransform="matrix(8 0 0 -8 455 4941)">
		<stop  offset="0" style="stop-color:#006DF0"/>
		<stop  offset="1" style="stop-color:#00E7F0"/>
	</linearGradient>
	<path style="fill:url(#SVGID_4_);" d="M424,280h-80V136h80V280z M360,264h48V152h-48V264z"/>
	
		<linearGradient id="SVGID_5_" gradientUnits="userSpaceOnUse" x1="-26.875" y1="569.235" x2="-26.875" y2="607.413" gradientTransform="matrix(8 0 0 -8 455 4941)">
		<stop  offset="0" style="stop-color:#006DF0"/>
		<stop  offset="1" style="stop-color:#00E7F0"/>
	</linearGradient>
	<path style="fill:url(#SVGID_5_);" d="M472,184c4.418,0,8-3.582,8-8v-64c0-13.255-10.745-24-24-24H24C10.745,88,0,98.745,0,112v64
		c0,4.418,3.582,8,8,8s8,3.582,8,8s-3.582,8-8,8s-8,3.582-8,8v112c0,4.418,3.582,8,8,8h32v56c0,4.418,3.582,8,8,8h128
		c4.418,0,8-3.582,8-8v-16c0-4.418,3.582-8,8-8c2.158-0.007,4.223,0.879,5.704,2.448c1.484,1.465,2.312,3.467,2.296,5.552v16
		c0,4.418,3.582,8,8,8h224c4.418,0,8-3.582,8-8v-56h32c4.418,0,8-3.582,8-8V208c0-4.418-3.582-8-8-8s-8-3.582-8-8
		S467.582,184,472,184z M424,376h-16v-32h-16v32h-16v-32h-16v32h-16v-32h-16v32h-16v-32h-16v32h-16v-32h-16v32h-16v-32h-16v32h-16
		v-8c-0.057-13.231-10.769-23.943-24-24c-13.255,0-24,10.745-24,24v8h-16v-32h-16v32h-16v-32h-16v32H88v-32H72v32H56v-48h368V376z
		 M464,169.368c-12.499,4.411-19.056,18.12-14.645,30.619c2.416,6.845,7.8,12.229,14.645,14.645V312H16v-97.368
		c12.499-4.411,19.056-18.12,14.645-30.619c-2.416-6.845-7.8-12.229-14.645-14.645V112c0-4.418,3.582-8,8-8h432c4.418,0,8,3.582,8,8
		V169.368z"/>
</g>
<g>
</g>
<g>
</g>
<g>
</g>
<g>
</g>
<g>
</g>
<g>
</g>
<g>
</g>
<g>
</g>
<g>
</g>
<g>
</g>
<g>
</g>
<g>
</g>
<g>
</g>
<g>
</g>
<g>
</g>
</svg>
