<?xml version="1.0" encoding="iso-8859-1"?>
<!-- Generator: Adobe Illustrator 19.0.0, SVG Export Plug-In . SVG Version: 6.00 Build 0)  -->
<svg version="1.1" id="Capa_1" xmlns="http://www.w3.org/2000/svg" xmlns:xlink="http://www.w3.org/1999/xlink" x="0px" y="0px"
	 viewBox="0 0 480 480" style="enable-background:new 0 0 480 480;" xml:space="preserve">
<linearGradient id="SVGID_1_" gradientUnits="userSpaceOnUse" x1="-33.875" y1="558.1151" x2="-33.875" y2="616.84" gradientTransform="matrix(8 0 0 -8 454.9998 4941.0005)">
	<stop  offset="0" style="stop-color:#006DF0"/>
	<stop  offset="1" style="stop-color:#00E7F0"/>
</linearGradient>
<path style="fill:url(#SVGID_1_);" d="M280,416h-16v16H104v-16H88v32h192V416z"/>
<g>
	
		<linearGradient id="SVGID_2_" gradientUnits="userSpaceOnUse" x1="-8.875" y1="558.1151" x2="-8.875" y2="616.84" gradientTransform="matrix(8 0 0 -8 454.9998 4941.0005)">
		<stop  offset="0" style="stop-color:#006DF0"/>
		<stop  offset="1" style="stop-color:#00E7F0"/>
	</linearGradient>
	<path style="fill:url(#SVGID_2_);" d="M368,424h32v16h-32V424z"/>
	
		<linearGradient id="SVGID_3_" gradientUnits="userSpaceOnUse" x1="-13.875" y1="558.1151" x2="-13.875" y2="616.84" gradientTransform="matrix(8 0 0 -8 454.9998 4941.0005)">
		<stop  offset="0" style="stop-color:#006DF0"/>
		<stop  offset="1" style="stop-color:#00E7F0"/>
	</linearGradient>
	<path style="fill:url(#SVGID_3_);" d="M328,424h32v16h-32V424z"/>
	
		<linearGradient id="SVGID_4_" gradientUnits="userSpaceOnUse" x1="-26.875" y1="558.1151" x2="-26.875" y2="616.84" gradientTransform="matrix(8 0 0 -8 454.9998 4941.0005)">
		<stop  offset="0" style="stop-color:#006DF0"/>
		<stop  offset="1" style="stop-color:#00E7F0"/>
	</linearGradient>
	<path style="fill:url(#SVGID_4_);" d="M440,375.312l-32-368c-0.358-4.148-3.837-7.327-8-7.312H80c-4.163-0.015-7.642,3.164-8,7.312
		L40,376v96c0,4.418,3.582,8,8,8h384c4.418,0,8-3.582,8-8V375.312z M87.336,16h305.328L424,376v8H56v-7.312L87.336,16z M424,464H56
		v-64h368V464z"/>
	
		<linearGradient id="SVGID_5_" gradientUnits="userSpaceOnUse" x1="-26.8754" y1="558.1151" x2="-26.8754" y2="616.84" gradientTransform="matrix(8 0 0 -8 454.9998 4941.0005)">
		<stop  offset="0" style="stop-color:#006DF0"/>
		<stop  offset="1" style="stop-color:#00E7F0"/>
	</linearGradient>
	<path style="fill:url(#SVGID_5_);" d="M128.16,281.6c0.76,3.725,4.038,6.401,7.84,6.4h208c3.802,0.001,7.08-2.675,7.84-6.4l32-160
		c0.845-4.337-1.986-8.537-6.323-9.382c-2.284-0.445-4.648,0.127-6.477,1.566L298.144,172l-51.2-88c-1.432-2.48-4.08-4.006-6.944-4
		c-2.852,0.006-5.486,1.53-6.912,4l-51.328,88L109,113.784c-3.451-2.759-8.485-2.197-11.244,1.254
		c-1.474,1.845-2.059,4.246-1.596,6.562L128.16,281.6z M179,190.28c3.449,2.762,8.483,2.205,11.245-1.244
		c0.246-0.307,0.469-0.632,0.667-0.972L240,103.888L288.984,188c2.224,3.818,7.122,5.109,10.94,2.885
		c0.337-0.196,0.659-0.417,0.964-0.661l62.96-50.304L343.84,240H328v16h12.64l-3.2,16H142.56l-3.2-16H152v-16h-15.84l-20-100
		L179,190.28z"/>
	
		<linearGradient id="SVGID_6_" gradientUnits="userSpaceOnUse" x1="-34.875" y1="558.1151" x2="-34.875" y2="616.84" gradientTransform="matrix(8 0 0 -8 454.9998 4941.0005)">
		<stop  offset="0" style="stop-color:#006DF0"/>
		<stop  offset="1" style="stop-color:#00E7F0"/>
	</linearGradient>
	<path style="fill:url(#SVGID_6_);" d="M168,240h16v16h-16V240z"/>
	
		<linearGradient id="SVGID_7_" gradientUnits="userSpaceOnUse" x1="-22.875" y1="558.1151" x2="-22.875" y2="616.84" gradientTransform="matrix(8 0 0 -8 454.9998 4941.0005)">
		<stop  offset="0" style="stop-color:#006DF0"/>
		<stop  offset="1" style="stop-color:#00E7F0"/>
	</linearGradient>
	<path style="fill:url(#SVGID_7_);" d="M264,240h16v16h-16V240z"/>
	
		<linearGradient id="SVGID_8_" gradientUnits="userSpaceOnUse" x1="-18.875" y1="558.1151" x2="-18.875" y2="616.84" gradientTransform="matrix(8 0 0 -8 454.9998 4941.0005)">
		<stop  offset="0" style="stop-color:#006DF0"/>
		<stop  offset="1" style="stop-color:#00E7F0"/>
	</linearGradient>
	<path style="fill:url(#SVGID_8_);" d="M296,240h16v16h-16V240z"/>
	
		<linearGradient id="SVGID_9_" gradientUnits="userSpaceOnUse" x1="-26.875" y1="558.1151" x2="-26.875" y2="616.84" gradientTransform="matrix(8 0 0 -8 454.9998 4941.0005)">
		<stop  offset="0" style="stop-color:#006DF0"/>
		<stop  offset="1" style="stop-color:#00E7F0"/>
	</linearGradient>
	<path style="fill:url(#SVGID_9_);" d="M232,240h16v16h-16V240z"/>
	
		<linearGradient id="SVGID_10_" gradientUnits="userSpaceOnUse" x1="-30.875" y1="558.1151" x2="-30.875" y2="616.84" gradientTransform="matrix(8 0 0 -8 454.9998 4941.0005)">
		<stop  offset="0" style="stop-color:#006DF0"/>
		<stop  offset="1" style="stop-color:#00E7F0"/>
	</linearGradient>
	<path style="fill:url(#SVGID_10_);" d="M200,240h16v16h-16V240z"/>
</g>
<g>
</g>
<g>
</g>
<g>
</g>
<g>
</g>
<g>
</g>
<g>
</g>
<g>
</g>
<g>
</g>
<g>
</g>
<g>
</g>
<g>
</g>
<g>
</g>
<g>
</g>
<g>
</g>
<g>
</g>
</svg>
