<?xml version="1.0" encoding="iso-8859-1"?>
<!-- Generator: Adobe Illustrator 19.0.0, SVG Export Plug-In . SVG Version: 6.00 Build 0)  -->
<svg version="1.1" id="Capa_1" xmlns="http://www.w3.org/2000/svg" xmlns:xlink="http://www.w3.org/1999/xlink" x="0px" y="0px"
	 viewBox="0 0 480 480" style="enable-background:new 0 0 480 480;" xml:space="preserve">
<g>
	
		<linearGradient id="SVGID_1_" gradientUnits="userSpaceOnUse" x1="-26.875" y1="558.075" x2="-26.875" y2="619.661" gradientTransform="matrix(8 0 0 -8 455.0002 4941)">
		<stop  offset="0" style="stop-color:#006DF0"/>
		<stop  offset="1" style="stop-color:#00E7F0"/>
	</linearGradient>
	<path style="fill:url(#SVGID_1_);" d="M479.696,422.48c-0.005-0.289-0.026-0.577-0.064-0.864L440,294.792V24
		c0-13.255-10.745-24-24-24H64C50.745,0,40,10.745,40,24v270.792L0.368,421.6c-0.038,0.287-0.059,0.575-0.064,0.864
		C0.152,422.965,0.05,423.479,0,424v32c0,13.255,10.745,24,24,24h432c13.255,0,24-10.745,24-24v-32
		C479.949,423.485,479.847,422.975,479.696,422.48L479.696,422.48z M56,24c0-4.418,3.582-8,8-8h352c4.418,0,8,3.582,8,8v264H56V24z
		 M53.88,304h372.24l35,112H18.88L53.88,304z M464,456c0,4.418-3.582,8-8,8H24c-4.418,0-8-3.582-8-8v-24h448V456z"/>
	
		<linearGradient id="SVGID_2_" gradientUnits="userSpaceOnUse" x1="-26.875" y1="558.075" x2="-26.875" y2="619.661" gradientTransform="matrix(8 0 0 -8 455.0002 4941)">
		<stop  offset="0" style="stop-color:#006DF0"/>
		<stop  offset="1" style="stop-color:#00E7F0"/>
	</linearGradient>
	<path style="fill:url(#SVGID_2_);" d="M64,272h352V24H64V272z M80,40h320v216H80V40z"/>
</g>
<g>
	
		<linearGradient id="SVGID_3_" gradientUnits="userSpaceOnUse" x1="-44.875" y1="558.075" x2="-44.875" y2="619.661" gradientTransform="matrix(8 0 0 -8 455.0002 4941)">
		<stop  offset="0" style="stop-color:#006DF0"/>
		<stop  offset="1" style="stop-color:#00E7F0"/>
	</linearGradient>
	<path style="fill:url(#SVGID_3_);" d="M80,320h32v16H80V320z"/>
	
		<linearGradient id="SVGID_4_" gradientUnits="userSpaceOnUse" x1="-38.875" y1="558.075" x2="-38.875" y2="619.661" gradientTransform="matrix(8 0 0 -8 455.0002 4941)">
		<stop  offset="0" style="stop-color:#006DF0"/>
		<stop  offset="1" style="stop-color:#00E7F0"/>
	</linearGradient>
	<path style="fill:url(#SVGID_4_);" d="M128,320h32v16h-32V320z"/>
	
		<linearGradient id="SVGID_5_" gradientUnits="userSpaceOnUse" x1="-32.875" y1="558.075" x2="-32.875" y2="619.661" gradientTransform="matrix(8 0 0 -8 455.0002 4941)">
		<stop  offset="0" style="stop-color:#006DF0"/>
		<stop  offset="1" style="stop-color:#00E7F0"/>
	</linearGradient>
	<path style="fill:url(#SVGID_5_);" d="M176,320h32v16h-32V320z"/>
</g>
<linearGradient id="SVGID_6_" gradientUnits="userSpaceOnUse" x1="-26.875" y1="558.075" x2="-26.875" y2="619.661" gradientTransform="matrix(8 0 0 -8 455.0002 4941)">
	<stop  offset="0" style="stop-color:#006DF0"/>
	<stop  offset="1" style="stop-color:#00E7F0"/>
</linearGradient>
<path style="fill:url(#SVGID_6_);" d="M224,320h32v16h-32V320z"/>
<g>
	
		<linearGradient id="SVGID_7_" gradientUnits="userSpaceOnUse" x1="-20.875" y1="558.075" x2="-20.875" y2="619.661" gradientTransform="matrix(8 0 0 -8 455.0002 4941)">
		<stop  offset="0" style="stop-color:#006DF0"/>
		<stop  offset="1" style="stop-color:#00E7F0"/>
	</linearGradient>
	<path style="fill:url(#SVGID_7_);" d="M272,320h32v16h-32V320z"/>
	
		<linearGradient id="SVGID_8_" gradientUnits="userSpaceOnUse" x1="-14.875" y1="558.075" x2="-14.875" y2="619.661" gradientTransform="matrix(8 0 0 -8 455.0002 4941)">
		<stop  offset="0" style="stop-color:#006DF0"/>
		<stop  offset="1" style="stop-color:#00E7F0"/>
	</linearGradient>
	<path style="fill:url(#SVGID_8_);" d="M320,320h32v16h-32V320z"/>
	
		<linearGradient id="SVGID_9_" gradientUnits="userSpaceOnUse" x1="-8.875" y1="558.075" x2="-8.875" y2="619.661" gradientTransform="matrix(8 0 0 -8 455.0002 4941)">
		<stop  offset="0" style="stop-color:#006DF0"/>
		<stop  offset="1" style="stop-color:#00E7F0"/>
	</linearGradient>
	<path style="fill:url(#SVGID_9_);" d="M368,320h32v16h-32V320z"/>
	
		<linearGradient id="SVGID_10_" gradientUnits="userSpaceOnUse" x1="-44.875" y1="558.075" x2="-44.875" y2="619.661" gradientTransform="matrix(8 0 0 -8 455.0002 4941)">
		<stop  offset="0" style="stop-color:#006DF0"/>
		<stop  offset="1" style="stop-color:#00E7F0"/>
	</linearGradient>
	<path style="fill:url(#SVGID_10_);" d="M80,352h32v16H80V352z"/>
	
		<linearGradient id="SVGID_11_" gradientUnits="userSpaceOnUse" x1="-38.875" y1="558.075" x2="-38.875" y2="619.661" gradientTransform="matrix(8 0 0 -8 455.0002 4941)">
		<stop  offset="0" style="stop-color:#006DF0"/>
		<stop  offset="1" style="stop-color:#00E7F0"/>
	</linearGradient>
	<path style="fill:url(#SVGID_11_);" d="M128,352h32v16h-32V352z"/>
	
		<linearGradient id="SVGID_12_" gradientUnits="userSpaceOnUse" x1="-32.875" y1="558.075" x2="-32.875" y2="619.661" gradientTransform="matrix(8 0 0 -8 455.0002 4941)">
		<stop  offset="0" style="stop-color:#006DF0"/>
		<stop  offset="1" style="stop-color:#00E7F0"/>
	</linearGradient>
	<path style="fill:url(#SVGID_12_);" d="M176,352h32v16h-32V352z"/>
</g>
<linearGradient id="SVGID_13_" gradientUnits="userSpaceOnUse" x1="-26.875" y1="558.075" x2="-26.875" y2="619.661" gradientTransform="matrix(8 0 0 -8 455.0002 4941)">
	<stop  offset="0" style="stop-color:#006DF0"/>
	<stop  offset="1" style="stop-color:#00E7F0"/>
</linearGradient>
<path style="fill:url(#SVGID_13_);" d="M224,352h32v16h-32V352z"/>
<g>
	
		<linearGradient id="SVGID_14_" gradientUnits="userSpaceOnUse" x1="-20.875" y1="558.075" x2="-20.875" y2="619.661" gradientTransform="matrix(8 0 0 -8 455.0002 4941)">
		<stop  offset="0" style="stop-color:#006DF0"/>
		<stop  offset="1" style="stop-color:#00E7F0"/>
	</linearGradient>
	<path style="fill:url(#SVGID_14_);" d="M272,352h32v16h-32V352z"/>
	
		<linearGradient id="SVGID_15_" gradientUnits="userSpaceOnUse" x1="-14.875" y1="558.075" x2="-14.875" y2="619.661" gradientTransform="matrix(8 0 0 -8 455.0002 4941)">
		<stop  offset="0" style="stop-color:#006DF0"/>
		<stop  offset="1" style="stop-color:#00E7F0"/>
	</linearGradient>
	<path style="fill:url(#SVGID_15_);" d="M320,352h32v16h-32V352z"/>
	
		<linearGradient id="SVGID_16_" gradientUnits="userSpaceOnUse" x1="-8.875" y1="558.075" x2="-8.875" y2="619.661" gradientTransform="matrix(8 0 0 -8 455.0002 4941)">
		<stop  offset="0" style="stop-color:#006DF0"/>
		<stop  offset="1" style="stop-color:#00E7F0"/>
	</linearGradient>
	<path style="fill:url(#SVGID_16_);" d="M368,352h32v16h-32V352z"/>
</g>
<linearGradient id="SVGID_17_" gradientUnits="userSpaceOnUse" x1="-26.875" y1="558.075" x2="-26.875" y2="619.661" gradientTransform="matrix(8 0 0 -8 455.0002 4941)">
	<stop  offset="0" style="stop-color:#006DF0"/>
	<stop  offset="1" style="stop-color:#00E7F0"/>
</linearGradient>
<path style="fill:url(#SVGID_17_);" d="M176,384h128v16H176V384z"/>
<g>
	
		<linearGradient id="SVGID_18_" gradientUnits="userSpaceOnUse" x1="-14.875" y1="558.075" x2="-14.875" y2="619.661" gradientTransform="matrix(8 0 0 -8 455.0002 4941)">
		<stop  offset="0" style="stop-color:#006DF0"/>
		<stop  offset="1" style="stop-color:#00E7F0"/>
	</linearGradient>
	<path style="fill:url(#SVGID_18_);" d="M320,384h32v16h-32V384z"/>
	
		<linearGradient id="SVGID_19_" gradientUnits="userSpaceOnUse" x1="-38.875" y1="558.075" x2="-38.875" y2="619.661" gradientTransform="matrix(8 0 0 -8 455.0002 4941)">
		<stop  offset="0" style="stop-color:#006DF0"/>
		<stop  offset="1" style="stop-color:#00E7F0"/>
	</linearGradient>
	<path style="fill:url(#SVGID_19_);" d="M128,384h32v16h-32V384z"/>
</g>
<g>
</g>
<g>
</g>
<g>
</g>
<g>
</g>
<g>
</g>
<g>
</g>
<g>
</g>
<g>
</g>
<g>
</g>
<g>
</g>
<g>
</g>
<g>
</g>
<g>
</g>
<g>
</g>
<g>
</g>
</svg>
