<?xml version="1.0" encoding="iso-8859-1"?>
<!-- Generator: Adobe Illustrator 19.0.0, SVG Export Plug-In . SVG Version: 6.00 Build 0)  -->
<svg version="1.1" id="Capa_1" xmlns="http://www.w3.org/2000/svg" xmlns:xlink="http://www.w3.org/1999/xlink" x="0px" y="0px"
	 viewBox="0 0 480 480" style="enable-background:new 0 0 480 480;" xml:space="preserve">
<linearGradient id="SVGID_1_" gradientUnits="userSpaceOnUse" x1="-33.4216" y1="558.435" x2="-33.4216" y2="618.821" gradientTransform="matrix(8 0 0 -8 455.0001 4941)">
	<stop  offset="0" style="stop-color:#006DF0"/>
	<stop  offset="1" style="stop-color:#00E7F0"/>
</linearGradient>
<path style="fill:url(#SVGID_1_);" d="M135.248,168.352c-4.418-0.004-7.997-3.589-7.993-8.007c0.001-0.968,0.177-1.928,0.521-2.833
	C145.607,110.994,190.182,80.206,240,80c4.418,0,8,3.582,8,8s-3.582,8-8,8c-43.185,0.18-81.823,26.873-97.272,67.2
	C141.546,166.303,138.569,168.354,135.248,168.352z"/>
<g>
	
		<linearGradient id="SVGID_2_" gradientUnits="userSpaceOnUse" x1="-40.8034" y1="558.435" x2="-40.8034" y2="618.821" gradientTransform="matrix(8 0 0 -8 455.0001 4941)">
		<stop  offset="0" style="stop-color:#006DF0"/>
		<stop  offset="1" style="stop-color:#00E7F0"/>
	</linearGradient>
	<path style="fill:url(#SVGID_2_);" d="M128,208c-4.418,0-8-3.582-8-8c0.004-5.733,0.411-11.459,1.216-17.136
		c0.627-4.376,4.684-7.415,9.06-6.788s7.415,4.684,6.788,9.06c-0.707,4.923-1.062,9.89-1.064,14.864
		C136,204.418,132.418,208,128,208z"/>
	
		<linearGradient id="SVGID_3_" gradientUnits="userSpaceOnUse" x1="-45.875" y1="558.435" x2="-45.875" y2="618.821" gradientTransform="matrix(8 0 0 -8 455.0001 4941)">
		<stop  offset="0" style="stop-color:#006DF0"/>
		<stop  offset="1" style="stop-color:#00E7F0"/>
	</linearGradient>
	<path style="fill:url(#SVGID_3_);" d="M88,64c-8.837,0-16-7.163-16-16s7.163-16,16-16s16,7.163,16,16S96.837,64,88,64z"/>
	
		<linearGradient id="SVGID_4_" gradientUnits="userSpaceOnUse" x1="-7.875" y1="558.435" x2="-7.875" y2="618.821" gradientTransform="matrix(8 0 0 -8 455.0001 4941)">
		<stop  offset="0" style="stop-color:#006DF0"/>
		<stop  offset="1" style="stop-color:#00E7F0"/>
	</linearGradient>
	<path style="fill:url(#SVGID_4_);" d="M392,64c-8.837,0-16-7.163-16-16s7.163-16,16-16s16,7.163,16,16S400.837,64,392,64z"/>
	
		<linearGradient id="SVGID_5_" gradientUnits="userSpaceOnUse" x1="-26.875" y1="558.435" x2="-26.875" y2="618.821" gradientTransform="matrix(8 0 0 -8 455.0001 4941)">
		<stop  offset="0" style="stop-color:#006DF0"/>
		<stop  offset="1" style="stop-color:#00E7F0"/>
	</linearGradient>
	<path style="fill:url(#SVGID_5_);" d="M240,224c-13.255,0-24-10.745-24-24s10.745-24,24-24c13.255,0,24,10.745,24,24
		S253.255,224,240,224z M240,192c-4.418,0-8,3.582-8,8s3.582,8,8,8s8-3.582,8-8S244.418,192,240,192z"/>
	
		<linearGradient id="SVGID_6_" gradientUnits="userSpaceOnUse" x1="-15.875" y1="558.435" x2="-15.875" y2="618.821" gradientTransform="matrix(8 0 0 -8 455.0001 4941)">
		<stop  offset="0" style="stop-color:#006DF0"/>
		<stop  offset="1" style="stop-color:#00E7F0"/>
	</linearGradient>
	<path style="fill:url(#SVGID_6_);" d="M344,208h-32c-4.418,0-8-3.582-8-8s3.582-8,8-8h32c4.418,0,8,3.582,8,8S348.418,208,344,208z
		"/>
	
		<linearGradient id="SVGID_7_" gradientUnits="userSpaceOnUse" x1="-16.6616" y1="558.435" x2="-16.6616" y2="618.821" gradientTransform="matrix(8 0 0 -8 455.0001 4941)">
		<stop  offset="0" style="stop-color:#006DF0"/>
		<stop  offset="1" style="stop-color:#00E7F0"/>
	</linearGradient>
	<path style="fill:url(#SVGID_7_);" d="M307.832,170.536c-4.418,0-8-3.582-8-8c0-2.858,1.525-5.499,4-6.928l27.704-16
		c3.812-2.234,8.713-0.956,10.947,2.856c2.234,3.812,0.956,8.713-2.856,10.947c-0.03,0.018-0.061,0.035-0.092,0.053l-27.704,16
		C310.616,170.166,309.236,170.536,307.832,170.536L307.832,170.536z"/>
	
		<linearGradient id="SVGID_8_" gradientUnits="userSpaceOnUse" x1="-26.875" y1="558.435" x2="-26.875" y2="618.821" gradientTransform="matrix(8 0 0 -8 455.0001 4941)">
		<stop  offset="0" style="stop-color:#006DF0"/>
		<stop  offset="1" style="stop-color:#00E7F0"/>
	</linearGradient>
	<path style="fill:url(#SVGID_8_);" d="M438.288,340.944c1.109-1.41,1.712-3.151,1.712-4.944V24c0-13.255-10.745-24-24-24H64
		C50.745,0,40,10.745,40,24v312c0,1.828,0.627,3.601,1.776,5.024l24,29.656c2.357,2.914,2.357,7.078,0,9.992l-24.048,30.36
		C40.608,412.446,40,414.197,40,416v40c0,13.255,10.745,24,24,24l0,0h352c13.255,0,24-10.745,24-24l0,0v-40
		c0.002-1.84-0.634-3.624-1.8-5.048L414.288,381.6c-2.366-2.902-2.402-7.057-0.088-10L438.288,340.944z M401.872,391.656L424,418.84
		V456c0,4.418-3.582,8-8,8H64c-4.418,0-8-3.582-8-8v-24h65.52c3.107,6.249,8.807,10.814,15.584,12.48l27.816,6.96
		c12.754,3.27,25.744-4.418,29.014-17.171c0.192-0.748,0.347-1.505,0.466-2.269H352c4.418,0,8-3.582,8-8s-3.582-8-8-8H196.608
		l9.184-67.928c81.952,19.092,163.864-31.865,182.956-113.817S356.883,70.392,274.931,51.299S111.068,83.164,91.975,165.116
		c-15.323,65.773,14.48,133.784,73.225,167.1l-43.928,78.624c-0.788,1.648-1.389,3.379-1.792,5.16H58.208l20.104-25.384
		c7.029-8.777,6.973-21.271-0.136-29.984L56,333.168V24c0-4.418,3.582-8,8-8h352c4.418,0,8,3.582,8,8v309.232l-22.4,28.432
		C394.624,370.481,394.737,382.967,401.872,391.656z M215.928,273.072c0.588-4.379-2.485-8.406-6.864-8.994
		c-3.255-0.437-6.446,1.159-8.048,4.026l-28.048,50.2c-64.737-36.89-87.31-119.275-50.42-184.012s119.275-87.31,184.012-50.42
		s87.31,119.275,50.42,184.012c-29.786,52.27-90.581,78.501-149.044,64.308L215.928,273.072z M183.128,332.976v-0.04L194.4,312.8
		l-3.288,24.224v0.104l-12.464,92.28c-0.305,2.215-1.55,4.192-3.416,5.424c-1.88,1.26-4.209,1.655-6.4,1.088l-27.888-6.976
		c-2.322-0.563-4.264-2.149-5.28-4.312c-0.978-2.007-1.048-4.338-0.192-6.4L183.128,332.976z"/>
	
		<linearGradient id="SVGID_9_" gradientUnits="userSpaceOnUse" x1="-7.875" y1="558.435" x2="-7.875" y2="618.821" gradientTransform="matrix(8 0 0 -8 455.0001 4941)">
		<stop  offset="0" style="stop-color:#006DF0"/>
		<stop  offset="1" style="stop-color:#00E7F0"/>
	</linearGradient>
	<circle style="fill:url(#SVGID_9_);" cx="392" cy="432" r="16"/>
	
		<linearGradient id="SVGID_10_" gradientUnits="userSpaceOnUse" x1="-26.875" y1="558.435" x2="-26.875" y2="618.821" gradientTransform="matrix(8 0 0 -8 455.0001 4941)">
		<stop  offset="0" style="stop-color:#006DF0"/>
		<stop  offset="1" style="stop-color:#00E7F0"/>
	</linearGradient>
	<path style="fill:url(#SVGID_10_);" d="M296,200c0-30.928-25.072-56-56-56s-56,25.072-56,56s25.072,56,56,56l0,0
		C270.913,255.965,295.965,230.913,296,200z M200,200c0-22.091,17.909-40,40-40s40,17.909,40,40s-17.909,40-40,40
		C217.92,239.974,200.026,222.08,200,200z"/>
	
		<linearGradient id="SVGID_11_" gradientUnits="userSpaceOnUse" x1="-17.3427" y1="558.435" x2="-17.3427" y2="618.821" gradientTransform="matrix(8 0 0 -8 455.0001 4941)">
		<stop  offset="0" style="stop-color:#006DF0"/>
		<stop  offset="1" style="stop-color:#00E7F0"/>
	</linearGradient>
	<path style="fill:url(#SVGID_11_);" d="M298.352,242.928l27.72,16c3.811,2.235,8.713,0.957,10.948-2.854
		c2.235-3.811,0.957-8.713-2.854-10.948c-0.031-0.018-0.062-0.036-0.093-0.054l-27.72-16c-3.841-2.183-8.725-0.84-10.908,3.002
		C293.281,235.878,294.577,240.714,298.352,242.928z"/>
	
		<linearGradient id="SVGID_12_" gradientUnits="userSpaceOnUse" x1="-21.375" y1="558.435" x2="-21.375" y2="618.821" gradientTransform="matrix(8 0 0 -8 455.0001 4941)">
		<stop  offset="0" style="stop-color:#006DF0"/>
		<stop  offset="1" style="stop-color:#00E7F0"/>
	</linearGradient>
	<path style="fill:url(#SVGID_12_);" d="M282.928,258.352c-2.183-3.841-7.067-5.185-10.908-3.002
		c-3.841,2.183-5.185,7.067-3.002,10.908c0.018,0.031,0.036,0.062,0.054,0.093l16,27.712c2.183,3.841,7.067,5.185,10.908,3.002
		c3.841-2.183,5.185-7.067,3.002-10.908c-0.018-0.031-0.036-0.062-0.054-0.093L282.928,258.352z"/>
</g>
<g>
</g>
<g>
</g>
<g>
</g>
<g>
</g>
<g>
</g>
<g>
</g>
<g>
</g>
<g>
</g>
<g>
</g>
<g>
</g>
<g>
</g>
<g>
</g>
<g>
</g>
<g>
</g>
<g>
</g>
</svg>
