<?xml version="1.0" encoding="iso-8859-1"?>
<!-- Generator: Adobe Illustrator 19.0.0, SVG Export Plug-In . SVG Version: 6.00 Build 0)  -->
<svg version="1.1" id="Capa_1" xmlns="http://www.w3.org/2000/svg" xmlns:xlink="http://www.w3.org/1999/xlink" x="0px" y="0px"
	 viewBox="0 0 479.96 479.96" style="enable-background:new 0 0 479.96 479.96;" xml:space="preserve">
<g>
	
		<linearGradient id="SVGID_1_" gradientUnits="userSpaceOnUse" x1="-38.895" y1="558.899" x2="-38.895" y2="618.489" gradientTransform="matrix(8 0 0 -8 455.1403 4940.6401)">
		<stop  offset="0" style="stop-color:#006DF0"/>
		<stop  offset="1" style="stop-color:#00E7F0"/>
	</linearGradient>
	<path style="fill:url(#SVGID_1_);" d="M71.98,127.96h144v16h-144V127.96z"/>
	
		<linearGradient id="SVGID_2_" gradientUnits="userSpaceOnUse" x1="-38.895" y1="558.899" x2="-38.895" y2="618.489" gradientTransform="matrix(8 0 0 -8 455.1403 4940.6401)">
		<stop  offset="0" style="stop-color:#006DF0"/>
		<stop  offset="1" style="stop-color:#00E7F0"/>
	</linearGradient>
	<path style="fill:url(#SVGID_2_);" d="M71.98,159.96h144v16h-144V159.96z"/>
	
		<linearGradient id="SVGID_3_" gradientUnits="userSpaceOnUse" x1="-38.895" y1="558.899" x2="-38.895" y2="618.489" gradientTransform="matrix(8 0 0 -8 455.1403 4940.6401)">
		<stop  offset="0" style="stop-color:#006DF0"/>
		<stop  offset="1" style="stop-color:#00E7F0"/>
	</linearGradient>
	<path style="fill:url(#SVGID_3_);" d="M143.98,319.96c-13.255,0-24-10.745-24-24s10.745-24,24-24s24,10.745,24,24
		S157.235,319.96,143.98,319.96z M143.98,287.96c-4.418,0-8,3.582-8,8s3.582,8,8,8s8-3.582,8-8S148.398,287.96,143.98,287.96z"/>
	
		<linearGradient id="SVGID_4_" gradientUnits="userSpaceOnUse" x1="-38.895" y1="558.899" x2="-38.895" y2="618.489" gradientTransform="matrix(8 0 0 -8 455.1403 4940.6401)">
		<stop  offset="0" style="stop-color:#006DF0"/>
		<stop  offset="1" style="stop-color:#00E7F0"/>
	</linearGradient>
	<path style="fill:url(#SVGID_4_);" d="M143.98,383.96c-13.255,0-24-10.745-24-24s10.745-24,24-24s24,10.745,24,24
		S157.235,383.96,143.98,383.96z M143.98,351.96c-4.418,0-8,3.582-8,8s3.582,8,8,8s8-3.582,8-8S148.398,351.96,143.98,351.96z"/>
</g>
<g>
	
		<linearGradient id="SVGID_5_" gradientUnits="userSpaceOnUse" x1="-46.895" y1="558.899" x2="-46.895" y2="618.489" gradientTransform="matrix(8 0 0 -8 455.1403 4940.6401)">
		<stop  offset="0" style="stop-color:#006DF0"/>
		<stop  offset="1" style="stop-color:#00E7F0"/>
	</linearGradient>
	<path style="fill:url(#SVGID_5_);" d="M71.98,407.96h16v32h-16V407.96z"/>
	
		<linearGradient id="SVGID_6_" gradientUnits="userSpaceOnUse" x1="-42.895" y1="558.899" x2="-42.895" y2="618.489" gradientTransform="matrix(8 0 0 -8 455.1403 4940.6401)">
		<stop  offset="0" style="stop-color:#006DF0"/>
		<stop  offset="1" style="stop-color:#00E7F0"/>
	</linearGradient>
	<path style="fill:url(#SVGID_6_);" d="M103.98,407.96h16v32h-16V407.96z"/>
</g>
<linearGradient id="SVGID_7_" gradientUnits="userSpaceOnUse" x1="-38.895" y1="558.899" x2="-38.895" y2="618.489" gradientTransform="matrix(8 0 0 -8 455.1403 4940.6401)">
	<stop  offset="0" style="stop-color:#006DF0"/>
	<stop  offset="1" style="stop-color:#00E7F0"/>
</linearGradient>
<path style="fill:url(#SVGID_7_);" d="M135.98,407.96h16v32h-16V407.96z"/>
<g>
	
		<linearGradient id="SVGID_8_" gradientUnits="userSpaceOnUse" x1="-34.895" y1="558.899" x2="-34.895" y2="618.489" gradientTransform="matrix(8 0 0 -8 455.1403 4940.6401)">
		<stop  offset="0" style="stop-color:#006DF0"/>
		<stop  offset="1" style="stop-color:#00E7F0"/>
	</linearGradient>
	<path style="fill:url(#SVGID_8_);" d="M167.98,407.96h16v32h-16V407.96z"/>
	
		<linearGradient id="SVGID_9_" gradientUnits="userSpaceOnUse" x1="-30.895" y1="558.899" x2="-30.895" y2="618.489" gradientTransform="matrix(8 0 0 -8 455.1403 4940.6401)">
		<stop  offset="0" style="stop-color:#006DF0"/>
		<stop  offset="1" style="stop-color:#00E7F0"/>
	</linearGradient>
	<path style="fill:url(#SVGID_9_);" d="M199.98,407.96h16v32h-16V407.96z"/>
	
		<linearGradient id="SVGID_10_" gradientUnits="userSpaceOnUse" x1="-26.895" y1="558.899" x2="-26.895" y2="618.489" gradientTransform="matrix(8 0 0 -8 455.1403 4940.6401)">
		<stop  offset="0" style="stop-color:#006DF0"/>
		<stop  offset="1" style="stop-color:#00E7F0"/>
	</linearGradient>
	<path style="fill:url(#SVGID_10_);" d="M442.508,64.376l-192-64c-0.754-0.247-1.542-0.374-2.336-0.376c-0.064,0-0.12,0-0.192,0
		h-208c-4.403,0-7.978,3.557-8,7.96v464c0,4.418,3.582,8,8,8h208c0.86,0,1.714-0.14,2.528-0.416l192-64
		c3.266-1.088,5.469-4.142,5.472-7.584v-336C447.977,68.518,445.774,65.464,442.508,64.376L442.508,64.376z M47.98,15.96h192v448
		h-192V15.96z M431.98,402.192l-176,58.664V19.064l176,58.664V402.192z"/>
</g>
<linearGradient id="SVGID_11_" gradientUnits="userSpaceOnUse" x1="-38.895" y1="558.899" x2="-38.895" y2="618.489" gradientTransform="matrix(8 0 0 -8 455.1403 4940.6401)">
	<stop  offset="0" style="stop-color:#006DF0"/>
	<stop  offset="1" style="stop-color:#00E7F0"/>
</linearGradient>
<path style="fill:url(#SVGID_11_);" d="M215.98,95.96h-144c-4.418,0-8-3.582-8-8v-32c0-4.418,3.582-8,8-8h144c4.418,0,8,3.582,8,8
	v32C223.98,92.378,220.398,95.96,215.98,95.96z M79.98,79.96h128v-16h-128V79.96z"/>
<g>
</g>
<g>
</g>
<g>
</g>
<g>
</g>
<g>
</g>
<g>
</g>
<g>
</g>
<g>
</g>
<g>
</g>
<g>
</g>
<g>
</g>
<g>
</g>
<g>
</g>
<g>
</g>
<g>
</g>
</svg>
