<?xml version="1.0" encoding="iso-8859-1"?>
<!-- Generator: Adobe Illustrator 19.0.0, SVG Export Plug-In . SVG Version: 6.00 Build 0)  -->
<svg version="1.1" id="Capa_1" xmlns="http://www.w3.org/2000/svg" xmlns:xlink="http://www.w3.org/1999/xlink" x="0px" y="0px"
	 viewBox="0 0 480 480" style="enable-background:new 0 0 480 480;" xml:space="preserve">
<linearGradient id="SVGID_1_" gradientUnits="userSpaceOnUse" x1="-48.875" y1="558.335" x2="-48.875" y2="617.658" gradientTransform="matrix(8 0 0 -8 455 4941)">
	<stop  offset="0" style="stop-color:#006DF0"/>
	<stop  offset="1" style="stop-color:#00E7F0"/>
</linearGradient>
<path style="fill:url(#SVGID_1_);" d="M64,456c-17.673,0-32-14.327-32-32s14.327-32,32-32s32,14.327,32,32S81.673,456,64,456z
	 M64,408c-8.837,0-16,7.163-16,16s7.163,16,16,16s16-7.163,16-16S72.837,408,64,408z"/>
<g>
	
		<linearGradient id="SVGID_2_" gradientUnits="userSpaceOnUse" x1="-24.875" y1="558.335" x2="-24.875" y2="617.658" gradientTransform="matrix(8 0 0 -8 455 4941)">
		<stop  offset="0" style="stop-color:#006DF0"/>
		<stop  offset="1" style="stop-color:#00E7F0"/>
	</linearGradient>
	<path style="fill:url(#SVGID_2_);" d="M392,432H120c-4.418,0-8-3.582-8-8s3.582-8,8-8h272c4.418,0,8,3.582,8,8S396.418,432,392,432
		z"/>
	
		<linearGradient id="SVGID_3_" gradientUnits="userSpaceOnUse" x1="-26.875" y1="558.335" x2="-26.875" y2="617.658" gradientTransform="matrix(8 0 0 -8 455 4941)">
		<stop  offset="0" style="stop-color:#006DF0"/>
		<stop  offset="1" style="stop-color:#00E7F0"/>
	</linearGradient>
	<path style="fill:url(#SVGID_3_);" d="M456,352H24c-13.255,0-24-10.745-24-24V24C0,10.745,10.745,0,24,0h432
		c13.255,0,24,10.745,24,24v304C480,341.255,469.255,352,456,352z M24,16c-4.418,0-8,3.582-8,8v304c0,4.418,3.582,8,8,8h432
		c4.418,0,8-3.582,8-8V24c0-4.418-3.582-8-8-8H24z"/>
	
		<linearGradient id="SVGID_4_" gradientUnits="userSpaceOnUse" x1="-26.875" y1="558.335" x2="-26.875" y2="617.658" gradientTransform="matrix(8 0 0 -8 455 4941)">
		<stop  offset="0" style="stop-color:#006DF0"/>
		<stop  offset="1" style="stop-color:#00E7F0"/>
	</linearGradient>
	<path style="fill:url(#SVGID_4_);" d="M440,320H40c-4.418,0-8-3.582-8-8V40c0-4.418,3.582-8,8-8h400c4.418,0,8,3.582,8,8v272
		C448,316.418,444.418,320,440,320z M48,304h384V48H48V304z"/>
	
		<linearGradient id="SVGID_5_" gradientUnits="userSpaceOnUse" x1="-26.875" y1="558.335" x2="-26.875" y2="617.658" gradientTransform="matrix(8 0 0 -8 455 4941)">
		<stop  offset="0" style="stop-color:#006DF0"/>
		<stop  offset="1" style="stop-color:#00E7F0"/>
	</linearGradient>
	<path style="fill:url(#SVGID_5_);" d="M456,368H24c-13.255,0-24,10.745-24,24v64c0,13.255,10.745,24,24,24h432
		c13.255,0,24-10.745,24-24v-64C480,378.745,469.255,368,456,368z M456,464H24c-4.418,0-8-3.582-8-8v-64c0-4.418,3.582-8,8-8h432
		c4.418,0,8,3.582,8,8v24h-40c-4.418,0-8,3.582-8,8s3.582,8,8,8h40v24C464,460.418,460.418,464,456,464z"/>
</g>
<g>
</g>
<g>
</g>
<g>
</g>
<g>
</g>
<g>
</g>
<g>
</g>
<g>
</g>
<g>
</g>
<g>
</g>
<g>
</g>
<g>
</g>
<g>
</g>
<g>
</g>
<g>
</g>
<g>
</g>
</svg>
