<?xml version="1.0" encoding="iso-8859-1"?>
<!-- Generator: Adobe Illustrator 19.0.0, SVG Export Plug-In . SVG Version: 6.00 Build 0)  -->
<svg version="1.1" id="Capa_1" xmlns="http://www.w3.org/2000/svg" xmlns:xlink="http://www.w3.org/1999/xlink" x="0px" y="0px"
	 viewBox="0 0 480 480" style="enable-background:new 0 0 480 480;" xml:space="preserve">
<linearGradient id="SVGID_1_" gradientUnits="userSpaceOnUse" x1="-26.875" y1="557.535" x2="-26.875" y2="618.537" gradientTransform="matrix(8 0 0 -8 455 4941)">
	<stop  offset="0" style="stop-color:#006DF0"/>
	<stop  offset="1" style="stop-color:#00E7F0"/>
</linearGradient>
<path style="fill:url(#SVGID_1_);" d="M240,480C107.452,480,0,372.548,0,240S107.452,0,240,0s240,107.452,240,240
	C479.85,372.486,372.486,479.85,240,480z M240,16C116.288,16,16,116.288,16,240s100.288,224,224,224s224-100.288,224-224
	C463.859,116.347,363.653,16.141,240,16z"/>
<g>
	
		<linearGradient id="SVGID_2_" gradientUnits="userSpaceOnUse" x1="-31.4459" y1="557.535" x2="-31.4459" y2="618.537" gradientTransform="matrix(8 0 0 -8 455 4941)">
		<stop  offset="0" style="stop-color:#006DF0"/>
		<stop  offset="1" style="stop-color:#00E7F0"/>
	</linearGradient>
	<path style="fill:url(#SVGID_2_);" d="M240.344,448c-74.428,0.098-143.243-39.557-180.48-104c-2.184-3.841-0.841-8.725,3-10.909
		c3.805-2.163,8.642-0.867,10.856,2.909c53.103,91.725,170.428,123.164,262.28,70.28c3.811-2.235,8.713-0.957,10.948,2.854
		c2.235,3.811,0.957,8.713-2.854,10.948c-0.031,0.018-0.062,0.036-0.093,0.054C312.504,438.388,276.747,448,240.344,448z"/>
	
		<linearGradient id="SVGID_3_" gradientUnits="userSpaceOnUse" x1="-22.2966" y1="557.535" x2="-22.2966" y2="618.537" gradientTransform="matrix(8 0 0 -8 455 4941)">
		<stop  offset="0" style="stop-color:#006DF0"/>
		<stop  offset="1" style="stop-color:#00E7F0"/>
	</linearGradient>
	<path style="fill:url(#SVGID_3_);" d="M413.216,148c-2.861,0.003-5.506-1.522-6.936-4C353.177,52.275,235.852,20.836,144,73.72
		c-3.841,2.184-8.725,0.841-10.909-3c-2.163-3.805-0.867-8.642,2.909-10.856C235.505,2.572,362.609,36.63,420.136,136
		c2.209,3.826,0.898,8.719-2.928,10.928C415.994,147.629,414.617,147.999,413.216,148L413.216,148z"/>
</g>
<g>
	
		<linearGradient id="SVGID_4_" gradientUnits="userSpaceOnUse" x1="-26.875" y1="557.535" x2="-26.875" y2="618.537" gradientTransform="matrix(8 0 0 -8 455 4941)">
		<stop  offset="0" style="stop-color:#006DF0"/>
		<stop  offset="1" style="stop-color:#00E7F0"/>
	</linearGradient>
	<path style="fill:url(#SVGID_4_);" d="M240,328c-48.601,0-88-39.399-88-88s39.399-88,88-88s88,39.399,88,88
		C327.943,288.577,288.577,327.943,240,328z M240,168c-39.764,0-72,32.236-72,72s32.236,72,72,72s72-32.236,72-72
		C311.952,200.256,279.744,168.048,240,168z"/>
	
		<linearGradient id="SVGID_5_" gradientUnits="userSpaceOnUse" x1="-26.875" y1="557.535" x2="-26.875" y2="618.537" gradientTransform="matrix(8 0 0 -8 455 4941)">
		<stop  offset="0" style="stop-color:#006DF0"/>
		<stop  offset="1" style="stop-color:#00E7F0"/>
	</linearGradient>
	<path style="fill:url(#SVGID_5_);" d="M240,272c-17.673,0-32-14.327-32-32s14.327-32,32-32s32,14.327,32,32S257.673,272,240,272z
		 M240,224c-8.837,0-16,7.163-16,16c0,8.837,7.163,16,16,16c8.837,0,16-7.163,16-16C256,231.163,248.837,224,240,224z"/>
</g>
<g>
</g>
<g>
</g>
<g>
</g>
<g>
</g>
<g>
</g>
<g>
</g>
<g>
</g>
<g>
</g>
<g>
</g>
<g>
</g>
<g>
</g>
<g>
</g>
<g>
</g>
<g>
</g>
<g>
</g>
</svg>
