<?xml version="1.0" encoding="iso-8859-1"?>
<!-- Generator: Adobe Illustrator 19.0.0, SVG Export Plug-In . SVG Version: 6.00 Build 0)  -->
<svg version="1.1" id="Capa_1" xmlns="http://www.w3.org/2000/svg" xmlns:xlink="http://www.w3.org/1999/xlink" x="0px" y="0px"
	 viewBox="0 0 480 480" style="enable-background:new 0 0 480 480;" xml:space="preserve">
<linearGradient id="SVGID_1_" gradientUnits="userSpaceOnUse" x1="-33.875" y1="558.3551" x2="-33.875" y2="619.3521" gradientTransform="matrix(8 0 0 -8 454.9998 4941.0005)">
	<stop  offset="0" style="stop-color:#006DF0"/>
	<stop  offset="1" style="stop-color:#00E7F0"/>
</linearGradient>
<path style="fill:url(#SVGID_1_);" d="M280,416h-16v16H104v-16H88v32h192V416z"/>
<g>
	
		<linearGradient id="SVGID_2_" gradientUnits="userSpaceOnUse" x1="-26.875" y1="558.3551" x2="-26.875" y2="619.3521" gradientTransform="matrix(8 0 0 -8 454.9998 4941.0005)">
		<stop  offset="0" style="stop-color:#006DF0"/>
		<stop  offset="1" style="stop-color:#00E7F0"/>
	</linearGradient>
	<path style="fill:url(#SVGID_2_);" d="M440,375.304l-32-368c-0.362-4.144-3.84-7.32-8-7.304H80c-4.16-0.016-7.638,3.16-8,7.304
		L40,376v96c0,4.418,3.582,8,8,8h384c4.418,0,8-3.582,8-8V375.304z M87.336,16h305.328L424,376v8H56v-7.304L87.336,16z M424,464H56
		v-64h368V464z"/>
	
		<linearGradient id="SVGID_3_" gradientUnits="userSpaceOnUse" x1="-8.875" y1="558.3551" x2="-8.875" y2="619.3521" gradientTransform="matrix(8 0 0 -8 454.9998 4941.0005)">
		<stop  offset="0" style="stop-color:#006DF0"/>
		<stop  offset="1" style="stop-color:#00E7F0"/>
	</linearGradient>
	<path style="fill:url(#SVGID_3_);" d="M368,424h32v16h-32V424z"/>
	
		<linearGradient id="SVGID_4_" gradientUnits="userSpaceOnUse" x1="-13.875" y1="558.3551" x2="-13.875" y2="619.3521" gradientTransform="matrix(8 0 0 -8 454.9998 4941.0005)">
		<stop  offset="0" style="stop-color:#006DF0"/>
		<stop  offset="1" style="stop-color:#00E7F0"/>
	</linearGradient>
	<path style="fill:url(#SVGID_4_);" d="M328,424h32v16h-32V424z"/>
	
		<linearGradient id="SVGID_5_" gradientUnits="userSpaceOnUse" x1="-28.875" y1="558.3551" x2="-28.875" y2="619.3521" gradientTransform="matrix(8 0 0 -8 454.9998 4941.0005)">
		<stop  offset="0" style="stop-color:#006DF0"/>
		<stop  offset="1" style="stop-color:#00E7F0"/>
	</linearGradient>
	<path style="fill:url(#SVGID_5_);" d="M240,304h-32c-22.08-0.026-39.974-17.92-40-40v-96c0.026-22.08,17.92-39.974,40-40h32
		c22.08,0.026,39.974,17.92,40,40h-16c0-13.255-10.745-24-24-24h-32c-13.255,0-24,10.745-24,24v96c0,13.255,10.745,24,24,24h32
		c13.255,0,24-10.745,24-24h16C279.974,286.08,262.08,303.974,240,304z"/>
	
		<linearGradient id="SVGID_6_" gradientUnits="userSpaceOnUse" x1="-17.8774" y1="558.3551" x2="-17.8774" y2="619.3521" gradientTransform="matrix(8 0 0 -8 454.9998 4941.0005)">
		<stop  offset="0" style="stop-color:#006DF0"/>
		<stop  offset="1" style="stop-color:#00E7F0"/>
	</linearGradient>
	<path style="fill:url(#SVGID_6_);" d="M312,200c-8.837,0.011-16.009-7.143-16.02-15.98s7.143-16.009,15.98-16.02
		c7.303-0.009,13.686,4.928,15.512,12c2.196,8.545-2.917,17.261-11.448,19.512C314.708,199.842,313.356,200.006,312,200z"/>
	
		<linearGradient id="SVGID_7_" gradientUnits="userSpaceOnUse" x1="-17.875" y1="558.3551" x2="-17.875" y2="619.3521" gradientTransform="matrix(8 0 0 -8 454.9998 4941.0005)">
		<stop  offset="0" style="stop-color:#006DF0"/>
		<stop  offset="1" style="stop-color:#00E7F0"/>
	</linearGradient>
	<path style="fill:url(#SVGID_7_);" d="M312,264c-8.837,0-16-7.163-16-16c0-8.837,7.163-16,16-16s16,7.163,16,16
		C328,256.837,320.837,264,312,264z"/>
</g>
<g>
</g>
<g>
</g>
<g>
</g>
<g>
</g>
<g>
</g>
<g>
</g>
<g>
</g>
<g>
</g>
<g>
</g>
<g>
</g>
<g>
</g>
<g>
</g>
<g>
</g>
<g>
</g>
<g>
</g>
</svg>
